G04 #@! TF.GenerationSoftware,KiCad,Pcbnew,(5.1.4)-1*
G04 #@! TF.CreationDate,2021-01-20T15:51:09-05:00*
G04 #@! TF.ProjectId,macropad,6d616372-6f70-4616-942e-6b696361645f,rev?*
G04 #@! TF.SameCoordinates,Original*
G04 #@! TF.FileFunction,Legend,Bot*
G04 #@! TF.FilePolarity,Positive*
%FSLAX46Y46*%
G04 Gerber Fmt 4.6, Leading zero omitted, Abs format (unit mm)*
G04 Created by KiCad (PCBNEW (5.1.4)-1) date 2021-01-20 15:51:09*
%MOMM*%
%LPD*%
G04 APERTURE LIST*
%ADD10C,0.150000*%
%ADD11C,0.381000*%
G04 APERTURE END LIST*
D10*
X71650000Y-39068750D02*
X70950000Y-39068750D01*
X68150000Y-39068750D02*
X68750000Y-39068750D01*
X68150000Y-45068750D02*
X68750000Y-45068750D01*
X71650000Y-45068750D02*
X70950000Y-45068750D01*
X68150000Y-45068750D02*
X68150000Y-39068750D01*
X71650000Y-39068750D02*
X71650000Y-45068750D01*
X71650000Y-39068750D02*
X71650000Y-44968750D01*
D11*
X90646250Y-33972500D02*
X90646250Y-64452500D01*
X90646250Y-64452500D02*
X72866250Y-64452500D01*
X72866250Y-64452500D02*
X72866250Y-33972500D01*
X88106250Y-33972500D02*
X88106250Y-36512500D01*
X88106250Y-36512500D02*
X90646250Y-36512500D01*
D10*
G36*
X76824682Y-39851860D02*
G01*
X76824682Y-40151860D01*
X76924682Y-40151860D01*
X76924682Y-39851860D01*
X76824682Y-39851860D01*
G37*
X76824682Y-39851860D02*
X76824682Y-40151860D01*
X76924682Y-40151860D01*
X76924682Y-39851860D01*
X76824682Y-39851860D01*
G36*
X77024682Y-40251860D02*
G01*
X77024682Y-40351860D01*
X77124682Y-40351860D01*
X77124682Y-40251860D01*
X77024682Y-40251860D01*
G37*
X77024682Y-40251860D02*
X77024682Y-40351860D01*
X77124682Y-40351860D01*
X77124682Y-40251860D01*
X77024682Y-40251860D01*
G36*
X76824682Y-39851860D02*
G01*
X76824682Y-39951860D01*
X77324682Y-39951860D01*
X77324682Y-39851860D01*
X76824682Y-39851860D01*
G37*
X76824682Y-39851860D02*
X76824682Y-39951860D01*
X77324682Y-39951860D01*
X77324682Y-39851860D01*
X76824682Y-39851860D01*
G36*
X77224682Y-39851860D02*
G01*
X77224682Y-40651860D01*
X77324682Y-40651860D01*
X77324682Y-39851860D01*
X77224682Y-39851860D01*
G37*
X77224682Y-39851860D02*
X77224682Y-40651860D01*
X77324682Y-40651860D01*
X77324682Y-39851860D01*
X77224682Y-39851860D01*
G36*
X76824682Y-40451860D02*
G01*
X76824682Y-40651860D01*
X76924682Y-40651860D01*
X76924682Y-40451860D01*
X76824682Y-40451860D01*
G37*
X76824682Y-40451860D02*
X76824682Y-40651860D01*
X76924682Y-40651860D01*
X76924682Y-40451860D01*
X76824682Y-40451860D01*
D11*
X72866250Y-33972500D02*
X72866250Y-31432500D01*
X72866250Y-31432500D02*
X90646250Y-31432500D01*
X90646250Y-31432500D02*
X90646250Y-33972500D01*
X88106250Y-33972500D02*
X90646250Y-33972500D01*
D10*
X70211904Y-40906845D02*
X69830952Y-40640178D01*
X70211904Y-40449702D02*
X69411904Y-40449702D01*
X69411904Y-40754464D01*
X69450000Y-40830654D01*
X69488095Y-40868750D01*
X69564285Y-40906845D01*
X69678571Y-40906845D01*
X69754761Y-40868750D01*
X69792857Y-40830654D01*
X69830952Y-40754464D01*
X69830952Y-40449702D01*
X69792857Y-41249702D02*
X69792857Y-41516369D01*
X70211904Y-41630654D02*
X70211904Y-41249702D01*
X69411904Y-41249702D01*
X69411904Y-41630654D01*
X70173809Y-41935416D02*
X70211904Y-42049702D01*
X70211904Y-42240178D01*
X70173809Y-42316369D01*
X70135714Y-42354464D01*
X70059523Y-42392559D01*
X69983333Y-42392559D01*
X69907142Y-42354464D01*
X69869047Y-42316369D01*
X69830952Y-42240178D01*
X69792857Y-42087797D01*
X69754761Y-42011607D01*
X69716666Y-41973511D01*
X69640476Y-41935416D01*
X69564285Y-41935416D01*
X69488095Y-41973511D01*
X69450000Y-42011607D01*
X69411904Y-42087797D01*
X69411904Y-42278273D01*
X69450000Y-42392559D01*
X69792857Y-42735416D02*
X69792857Y-43002083D01*
X70211904Y-43116369D02*
X70211904Y-42735416D01*
X69411904Y-42735416D01*
X69411904Y-43116369D01*
X69411904Y-43344940D02*
X69411904Y-43802083D01*
X70211904Y-43573511D02*
X69411904Y-43573511D01*
X76619059Y-60585357D02*
X76504773Y-60623452D01*
X76466678Y-60661547D01*
X76428583Y-60737738D01*
X76428583Y-60852023D01*
X76466678Y-60928214D01*
X76504773Y-60966309D01*
X76580964Y-61004404D01*
X76885726Y-61004404D01*
X76885726Y-60204404D01*
X76619059Y-60204404D01*
X76542869Y-60242500D01*
X76504773Y-60280595D01*
X76466678Y-60356785D01*
X76466678Y-60432976D01*
X76504773Y-60509166D01*
X76542869Y-60547261D01*
X76619059Y-60585357D01*
X76885726Y-60585357D01*
X76123821Y-60280595D02*
X76085726Y-60242500D01*
X76009535Y-60204404D01*
X75819059Y-60204404D01*
X75742869Y-60242500D01*
X75704773Y-60280595D01*
X75666678Y-60356785D01*
X75666678Y-60432976D01*
X75704773Y-60547261D01*
X76161916Y-61004404D01*
X75666678Y-61004404D01*
X76561916Y-52965357D02*
X76828583Y-52965357D01*
X76828583Y-53384404D02*
X76828583Y-52584404D01*
X76447630Y-52584404D01*
X76219059Y-52584404D02*
X75685726Y-52584404D01*
X76028583Y-53384404D01*
X76561916Y-50425357D02*
X76828583Y-50425357D01*
X76828583Y-50844404D02*
X76828583Y-50044404D01*
X76447630Y-50044404D01*
X75800011Y-50044404D02*
X75952392Y-50044404D01*
X76028583Y-50082500D01*
X76066678Y-50120595D01*
X76142869Y-50234880D01*
X76180964Y-50387261D01*
X76180964Y-50692023D01*
X76142869Y-50768214D01*
X76104773Y-50806309D01*
X76028583Y-50844404D01*
X75876202Y-50844404D01*
X75800011Y-50806309D01*
X75761916Y-50768214D01*
X75723821Y-50692023D01*
X75723821Y-50501547D01*
X75761916Y-50425357D01*
X75800011Y-50387261D01*
X75876202Y-50349166D01*
X76028583Y-50349166D01*
X76104773Y-50387261D01*
X76142869Y-50425357D01*
X76180964Y-50501547D01*
X76561916Y-47885357D02*
X76828583Y-47885357D01*
X76828583Y-48304404D02*
X76828583Y-47504404D01*
X76447630Y-47504404D01*
X75761916Y-47504404D02*
X76142869Y-47504404D01*
X76180964Y-47885357D01*
X76142869Y-47847261D01*
X76066678Y-47809166D01*
X75876202Y-47809166D01*
X75800011Y-47847261D01*
X75761916Y-47885357D01*
X75723821Y-47961547D01*
X75723821Y-48152023D01*
X75761916Y-48228214D01*
X75800011Y-48266309D01*
X75876202Y-48304404D01*
X76066678Y-48304404D01*
X76142869Y-48266309D01*
X76180964Y-48228214D01*
X76847630Y-35604404D02*
X77114297Y-35223452D01*
X77304773Y-35604404D02*
X77304773Y-34804404D01*
X77000011Y-34804404D01*
X76923821Y-34842500D01*
X76885726Y-34880595D01*
X76847630Y-34956785D01*
X76847630Y-35071071D01*
X76885726Y-35147261D01*
X76923821Y-35185357D01*
X77000011Y-35223452D01*
X77304773Y-35223452D01*
X76542869Y-35375833D02*
X76161916Y-35375833D01*
X76619059Y-35604404D02*
X76352392Y-34804404D01*
X76085726Y-35604404D01*
X75895250Y-34804404D02*
X75704773Y-35604404D01*
X75552392Y-35032976D01*
X75400011Y-35604404D01*
X75209535Y-34804404D01*
X76904773Y-37382500D02*
X76980964Y-37344404D01*
X77095250Y-37344404D01*
X77209535Y-37382500D01*
X77285726Y-37458690D01*
X77323821Y-37534880D01*
X77361916Y-37687261D01*
X77361916Y-37801547D01*
X77323821Y-37953928D01*
X77285726Y-38030119D01*
X77209535Y-38106309D01*
X77095250Y-38144404D01*
X77019059Y-38144404D01*
X76904773Y-38106309D01*
X76866678Y-38068214D01*
X76866678Y-37801547D01*
X77019059Y-37801547D01*
X76523821Y-38144404D02*
X76523821Y-37344404D01*
X76066678Y-38144404D01*
X76066678Y-37344404D01*
X75685726Y-38144404D02*
X75685726Y-37344404D01*
X75495250Y-37344404D01*
X75380964Y-37382500D01*
X75304773Y-37458690D01*
X75266678Y-37534880D01*
X75228583Y-37687261D01*
X75228583Y-37801547D01*
X75266678Y-37953928D01*
X75304773Y-38030119D01*
X75380964Y-38106309D01*
X75495250Y-38144404D01*
X75685726Y-38144404D01*
X76556463Y-40616309D02*
X76442177Y-40654404D01*
X76251701Y-40654404D01*
X76175510Y-40616309D01*
X76137415Y-40578214D01*
X76099320Y-40502023D01*
X76099320Y-40425833D01*
X76137415Y-40349642D01*
X76175510Y-40311547D01*
X76251701Y-40273452D01*
X76404082Y-40235357D01*
X76480272Y-40197261D01*
X76518368Y-40159166D01*
X76556463Y-40082976D01*
X76556463Y-40006785D01*
X76518368Y-39930595D01*
X76480272Y-39892500D01*
X76404082Y-39854404D01*
X76213606Y-39854404D01*
X76099320Y-39892500D01*
X75870749Y-39854404D02*
X75413606Y-39854404D01*
X75642177Y-40654404D02*
X75642177Y-39854404D01*
X77361916Y-42424404D02*
X77095250Y-43224404D01*
X76828583Y-42424404D01*
X76104773Y-43148214D02*
X76142869Y-43186309D01*
X76257154Y-43224404D01*
X76333345Y-43224404D01*
X76447630Y-43186309D01*
X76523821Y-43110119D01*
X76561916Y-43033928D01*
X76600011Y-42881547D01*
X76600011Y-42767261D01*
X76561916Y-42614880D01*
X76523821Y-42538690D01*
X76447630Y-42462500D01*
X76333345Y-42424404D01*
X76257154Y-42424404D01*
X76142869Y-42462500D01*
X76104773Y-42500595D01*
X75304773Y-43148214D02*
X75342869Y-43186309D01*
X75457154Y-43224404D01*
X75533345Y-43224404D01*
X75647630Y-43186309D01*
X75723821Y-43110119D01*
X75761916Y-43033928D01*
X75800011Y-42881547D01*
X75800011Y-42767261D01*
X75761916Y-42614880D01*
X75723821Y-42538690D01*
X75647630Y-42462500D01*
X75533345Y-42424404D01*
X75457154Y-42424404D01*
X75342869Y-42462500D01*
X75304773Y-42500595D01*
X76561916Y-45345357D02*
X76828583Y-45345357D01*
X76828583Y-45764404D02*
X76828583Y-44964404D01*
X76447630Y-44964404D01*
X75800011Y-45231071D02*
X75800011Y-45764404D01*
X75990488Y-44926309D02*
X76180964Y-45497738D01*
X75685726Y-45497738D01*
X76619059Y-55505357D02*
X76504773Y-55543452D01*
X76466678Y-55581547D01*
X76428583Y-55657738D01*
X76428583Y-55772023D01*
X76466678Y-55848214D01*
X76504773Y-55886309D01*
X76580964Y-55924404D01*
X76885726Y-55924404D01*
X76885726Y-55124404D01*
X76619059Y-55124404D01*
X76542869Y-55162500D01*
X76504773Y-55200595D01*
X76466678Y-55276785D01*
X76466678Y-55352976D01*
X76504773Y-55429166D01*
X76542869Y-55467261D01*
X76619059Y-55505357D01*
X76885726Y-55505357D01*
X75666678Y-55924404D02*
X76123821Y-55924404D01*
X75895250Y-55924404D02*
X75895250Y-55124404D01*
X75971440Y-55238690D01*
X76047630Y-55314880D01*
X76123821Y-55352976D01*
X76619059Y-58045357D02*
X76504773Y-58083452D01*
X76466678Y-58121547D01*
X76428583Y-58197738D01*
X76428583Y-58312023D01*
X76466678Y-58388214D01*
X76504773Y-58426309D01*
X76580964Y-58464404D01*
X76885726Y-58464404D01*
X76885726Y-57664404D01*
X76619059Y-57664404D01*
X76542869Y-57702500D01*
X76504773Y-57740595D01*
X76466678Y-57816785D01*
X76466678Y-57892976D01*
X76504773Y-57969166D01*
X76542869Y-58007261D01*
X76619059Y-58045357D01*
X76885726Y-58045357D01*
X76161916Y-57664404D02*
X75666678Y-57664404D01*
X75933345Y-57969166D01*
X75819059Y-57969166D01*
X75742869Y-58007261D01*
X75704773Y-58045357D01*
X75666678Y-58121547D01*
X75666678Y-58312023D01*
X75704773Y-58388214D01*
X75742869Y-58426309D01*
X75819059Y-58464404D01*
X76047630Y-58464404D01*
X76123821Y-58426309D01*
X76161916Y-58388214D01*
X76619059Y-63125357D02*
X76504773Y-63163452D01*
X76466678Y-63201547D01*
X76428583Y-63277738D01*
X76428583Y-63392023D01*
X76466678Y-63468214D01*
X76504773Y-63506309D01*
X76580964Y-63544404D01*
X76885726Y-63544404D01*
X76885726Y-62744404D01*
X76619059Y-62744404D01*
X76542869Y-62782500D01*
X76504773Y-62820595D01*
X76466678Y-62896785D01*
X76466678Y-62972976D01*
X76504773Y-63049166D01*
X76542869Y-63087261D01*
X76619059Y-63125357D01*
X76885726Y-63125357D01*
X75742869Y-62744404D02*
X75895250Y-62744404D01*
X75971440Y-62782500D01*
X76009535Y-62820595D01*
X76085726Y-62934880D01*
X76123821Y-63087261D01*
X76123821Y-63392023D01*
X76085726Y-63468214D01*
X76047630Y-63506309D01*
X75971440Y-63544404D01*
X75819059Y-63544404D01*
X75742869Y-63506309D01*
X75704773Y-63468214D01*
X75666678Y-63392023D01*
X75666678Y-63201547D01*
X75704773Y-63125357D01*
X75742869Y-63087261D01*
X75819059Y-63049166D01*
X75971440Y-63049166D01*
X76047630Y-63087261D01*
X76085726Y-63125357D01*
X76123821Y-63201547D01*
X87541059Y-63125357D02*
X87426773Y-63163452D01*
X87388678Y-63201547D01*
X87350583Y-63277738D01*
X87350583Y-63392023D01*
X87388678Y-63468214D01*
X87426773Y-63506309D01*
X87502964Y-63544404D01*
X87807726Y-63544404D01*
X87807726Y-62744404D01*
X87541059Y-62744404D01*
X87464869Y-62782500D01*
X87426773Y-62820595D01*
X87388678Y-62896785D01*
X87388678Y-62972976D01*
X87426773Y-63049166D01*
X87464869Y-63087261D01*
X87541059Y-63125357D01*
X87807726Y-63125357D01*
X86626773Y-62744404D02*
X87007726Y-62744404D01*
X87045821Y-63125357D01*
X87007726Y-63087261D01*
X86931535Y-63049166D01*
X86741059Y-63049166D01*
X86664869Y-63087261D01*
X86626773Y-63125357D01*
X86588678Y-63201547D01*
X86588678Y-63392023D01*
X86626773Y-63468214D01*
X86664869Y-63506309D01*
X86741059Y-63544404D01*
X86931535Y-63544404D01*
X87007726Y-63506309D01*
X87045821Y-63468214D01*
X87541059Y-60585357D02*
X87426773Y-60623452D01*
X87388678Y-60661547D01*
X87350583Y-60737738D01*
X87350583Y-60852023D01*
X87388678Y-60928214D01*
X87426773Y-60966309D01*
X87502964Y-61004404D01*
X87807726Y-61004404D01*
X87807726Y-60204404D01*
X87541059Y-60204404D01*
X87464869Y-60242500D01*
X87426773Y-60280595D01*
X87388678Y-60356785D01*
X87388678Y-60432976D01*
X87426773Y-60509166D01*
X87464869Y-60547261D01*
X87541059Y-60585357D01*
X87807726Y-60585357D01*
X86664869Y-60471071D02*
X86664869Y-61004404D01*
X86855345Y-60166309D02*
X87045821Y-60737738D01*
X86550583Y-60737738D01*
X87769630Y-58045357D02*
X87502964Y-58045357D01*
X87388678Y-58464404D02*
X87769630Y-58464404D01*
X87769630Y-57664404D01*
X87388678Y-57664404D01*
X86702964Y-57664404D02*
X86855345Y-57664404D01*
X86931535Y-57702500D01*
X86969630Y-57740595D01*
X87045821Y-57854880D01*
X87083916Y-58007261D01*
X87083916Y-58312023D01*
X87045821Y-58388214D01*
X87007726Y-58426309D01*
X86931535Y-58464404D01*
X86779154Y-58464404D01*
X86702964Y-58426309D01*
X86664869Y-58388214D01*
X86626773Y-58312023D01*
X86626773Y-58121547D01*
X86664869Y-58045357D01*
X86702964Y-58007261D01*
X86779154Y-57969166D01*
X86931535Y-57969166D01*
X87007726Y-58007261D01*
X87045821Y-58045357D01*
X87083916Y-58121547D01*
X87807726Y-55924404D02*
X87807726Y-55124404D01*
X87617250Y-55124404D01*
X87502964Y-55162500D01*
X87426773Y-55238690D01*
X87388678Y-55314880D01*
X87350583Y-55467261D01*
X87350583Y-55581547D01*
X87388678Y-55733928D01*
X87426773Y-55810119D01*
X87502964Y-55886309D01*
X87617250Y-55924404D01*
X87807726Y-55924404D01*
X87083916Y-55124404D02*
X86550583Y-55124404D01*
X86893440Y-55924404D01*
X87350583Y-53308214D02*
X87388678Y-53346309D01*
X87502964Y-53384404D01*
X87579154Y-53384404D01*
X87693440Y-53346309D01*
X87769630Y-53270119D01*
X87807726Y-53193928D01*
X87845821Y-53041547D01*
X87845821Y-52927261D01*
X87807726Y-52774880D01*
X87769630Y-52698690D01*
X87693440Y-52622500D01*
X87579154Y-52584404D01*
X87502964Y-52584404D01*
X87388678Y-52622500D01*
X87350583Y-52660595D01*
X86664869Y-52584404D02*
X86817250Y-52584404D01*
X86893440Y-52622500D01*
X86931535Y-52660595D01*
X87007726Y-52774880D01*
X87045821Y-52927261D01*
X87045821Y-53232023D01*
X87007726Y-53308214D01*
X86969630Y-53346309D01*
X86893440Y-53384404D01*
X86741059Y-53384404D01*
X86664869Y-53346309D01*
X86626773Y-53308214D01*
X86588678Y-53232023D01*
X86588678Y-53041547D01*
X86626773Y-52965357D01*
X86664869Y-52927261D01*
X86741059Y-52889166D01*
X86893440Y-52889166D01*
X86969630Y-52927261D01*
X87007726Y-52965357D01*
X87045821Y-53041547D01*
X87807726Y-50844404D02*
X87807726Y-50044404D01*
X87617250Y-50044404D01*
X87502964Y-50082500D01*
X87426773Y-50158690D01*
X87388678Y-50234880D01*
X87350583Y-50387261D01*
X87350583Y-50501547D01*
X87388678Y-50653928D01*
X87426773Y-50730119D01*
X87502964Y-50806309D01*
X87617250Y-50844404D01*
X87807726Y-50844404D01*
X86664869Y-50311071D02*
X86664869Y-50844404D01*
X86855345Y-50006309D02*
X87045821Y-50577738D01*
X86550583Y-50577738D01*
X87826773Y-39922500D02*
X87902964Y-39884404D01*
X88017250Y-39884404D01*
X88131535Y-39922500D01*
X88207726Y-39998690D01*
X88245821Y-40074880D01*
X88283916Y-40227261D01*
X88283916Y-40341547D01*
X88245821Y-40493928D01*
X88207726Y-40570119D01*
X88131535Y-40646309D01*
X88017250Y-40684404D01*
X87941059Y-40684404D01*
X87826773Y-40646309D01*
X87788678Y-40608214D01*
X87788678Y-40341547D01*
X87941059Y-40341547D01*
X87445821Y-40684404D02*
X87445821Y-39884404D01*
X86988678Y-40684404D01*
X86988678Y-39884404D01*
X86607726Y-40684404D02*
X86607726Y-39884404D01*
X86417250Y-39884404D01*
X86302964Y-39922500D01*
X86226773Y-39998690D01*
X86188678Y-40074880D01*
X86150583Y-40227261D01*
X86150583Y-40341547D01*
X86188678Y-40493928D01*
X86226773Y-40570119D01*
X86302964Y-40646309D01*
X86417250Y-40684404D01*
X86607726Y-40684404D01*
X87826773Y-42462500D02*
X87902964Y-42424404D01*
X88017250Y-42424404D01*
X88131535Y-42462500D01*
X88207726Y-42538690D01*
X88245821Y-42614880D01*
X88283916Y-42767261D01*
X88283916Y-42881547D01*
X88245821Y-43033928D01*
X88207726Y-43110119D01*
X88131535Y-43186309D01*
X88017250Y-43224404D01*
X87941059Y-43224404D01*
X87826773Y-43186309D01*
X87788678Y-43148214D01*
X87788678Y-42881547D01*
X87941059Y-42881547D01*
X87445821Y-43224404D02*
X87445821Y-42424404D01*
X86988678Y-43224404D01*
X86988678Y-42424404D01*
X86607726Y-43224404D02*
X86607726Y-42424404D01*
X86417250Y-42424404D01*
X86302964Y-42462500D01*
X86226773Y-42538690D01*
X86188678Y-42614880D01*
X86150583Y-42767261D01*
X86150583Y-42881547D01*
X86188678Y-43033928D01*
X86226773Y-43110119D01*
X86302964Y-43186309D01*
X86417250Y-43224404D01*
X86607726Y-43224404D01*
X87807726Y-45764404D02*
X87807726Y-44964404D01*
X87617250Y-44964404D01*
X87502964Y-45002500D01*
X87426773Y-45078690D01*
X87388678Y-45154880D01*
X87350583Y-45307261D01*
X87350583Y-45421547D01*
X87388678Y-45573928D01*
X87426773Y-45650119D01*
X87502964Y-45726309D01*
X87617250Y-45764404D01*
X87807726Y-45764404D01*
X86588678Y-45764404D02*
X87045821Y-45764404D01*
X86817250Y-45764404D02*
X86817250Y-44964404D01*
X86893440Y-45078690D01*
X86969630Y-45154880D01*
X87045821Y-45192976D01*
X87807726Y-48304404D02*
X87807726Y-47504404D01*
X87617250Y-47504404D01*
X87502964Y-47542500D01*
X87426773Y-47618690D01*
X87388678Y-47694880D01*
X87350583Y-47847261D01*
X87350583Y-47961547D01*
X87388678Y-48113928D01*
X87426773Y-48190119D01*
X87502964Y-48266309D01*
X87617250Y-48304404D01*
X87807726Y-48304404D01*
X86855345Y-47504404D02*
X86779154Y-47504404D01*
X86702964Y-47542500D01*
X86664869Y-47580595D01*
X86626773Y-47656785D01*
X86588678Y-47809166D01*
X86588678Y-47999642D01*
X86626773Y-48152023D01*
X86664869Y-48228214D01*
X86702964Y-48266309D01*
X86779154Y-48304404D01*
X86855345Y-48304404D01*
X86931535Y-48266309D01*
X86969630Y-48228214D01*
X87007726Y-48152023D01*
X87045821Y-47999642D01*
X87045821Y-47809166D01*
X87007726Y-47656785D01*
X86969630Y-47580595D01*
X86931535Y-47542500D01*
X86855345Y-47504404D01*
X87807726Y-38144404D02*
X87807726Y-37344404D01*
X87617250Y-37344404D01*
X87502964Y-37382500D01*
X87426773Y-37458690D01*
X87388678Y-37534880D01*
X87350583Y-37687261D01*
X87350583Y-37801547D01*
X87388678Y-37953928D01*
X87426773Y-38030119D01*
X87502964Y-38106309D01*
X87617250Y-38144404D01*
X87807726Y-38144404D01*
X87045821Y-37420595D02*
X87007726Y-37382500D01*
X86931535Y-37344404D01*
X86741059Y-37344404D01*
X86664869Y-37382500D01*
X86626773Y-37420595D01*
X86588678Y-37496785D01*
X86588678Y-37572976D01*
X86626773Y-37687261D01*
X87083916Y-38144404D01*
X86588678Y-38144404D01*
X87518598Y-34804404D02*
X87061455Y-34804404D01*
X87290026Y-35604404D02*
X87290026Y-34804404D01*
X86870979Y-34804404D02*
X86337645Y-35604404D01*
X86337645Y-34804404D02*
X86870979Y-35604404D01*
X85880502Y-34804404D02*
X85804312Y-34804404D01*
X85728122Y-34842500D01*
X85690026Y-34880595D01*
X85651931Y-34956785D01*
X85613836Y-35109166D01*
X85613836Y-35299642D01*
X85651931Y-35452023D01*
X85690026Y-35528214D01*
X85728122Y-35566309D01*
X85804312Y-35604404D01*
X85880502Y-35604404D01*
X85956693Y-35566309D01*
X85994788Y-35528214D01*
X86032883Y-35452023D01*
X86070979Y-35299642D01*
X86070979Y-35109166D01*
X86032883Y-34956785D01*
X85994788Y-34880595D01*
X85956693Y-34842500D01*
X85880502Y-34804404D01*
X84699550Y-34766309D02*
X85385264Y-35794880D01*
X84432883Y-35604404D02*
X84432883Y-34804404D01*
X84242407Y-34804404D01*
X84128122Y-34842500D01*
X84051931Y-34918690D01*
X84013836Y-34994880D01*
X83975741Y-35147261D01*
X83975741Y-35261547D01*
X84013836Y-35413928D01*
X84051931Y-35490119D01*
X84128122Y-35566309D01*
X84242407Y-35604404D01*
X84432883Y-35604404D01*
X83709074Y-34804404D02*
X83213836Y-34804404D01*
X83480502Y-35109166D01*
X83366217Y-35109166D01*
X83290026Y-35147261D01*
X83251931Y-35185357D01*
X83213836Y-35261547D01*
X83213836Y-35452023D01*
X83251931Y-35528214D01*
X83290026Y-35566309D01*
X83366217Y-35604404D01*
X83594788Y-35604404D01*
X83670979Y-35566309D01*
X83709074Y-35528214D01*
M02*
