M48
; DRILL file {KiCad (5.1.4)-1} date 1/20/2021 3:51:15 PM
; FORMAT={-:-/ absolute / inch / decimal}
; #@! TF.CreationDate,2021-01-20T15:51:15-05:00
; #@! TF.GenerationSoftware,Kicad,Pcbnew,(5.1.4)-1
; #@! TF.FileFunction,NonPlated,1,2,NPTH
FMAT,2
INCH
T1C0.0689
T2C0.1570
%
G90
G05
T1
X4.55Y-1.5625
X4.95Y-1.5625
X3.8Y-2.3125
X4.2Y-2.3125
X5.3Y-2.3125
X5.7Y-2.3125
X6.05Y-1.5625
X6.45Y-1.5625
X3.8Y-3.0625
X4.2Y-3.0625
X4.55Y-2.3125
X4.95Y-2.3125
X5.3Y-1.5625
X5.7Y-1.5625
X6.05Y-2.3125
X6.45Y-2.3125
X4.55Y-3.0625
X4.95Y-3.0625
X6.05Y-3.0625
X6.45Y-3.0625
X3.8Y-1.5625
X4.2Y-1.5625
X5.3Y-3.0625
X5.7Y-3.0625
T2
X4.75Y-1.5625
X4.0Y-2.3125
X5.5Y-2.3125
X6.25Y-1.5625
X4.0Y-3.0625
X4.75Y-2.3125
X5.5Y-1.5625
X6.25Y-2.3125
X4.75Y-3.0625
X6.25Y-3.0625
X4.0Y-1.5625
X5.5Y-3.0625
T0
M30
