M48
; DRILL file {KiCad (5.1.4)-1} date 1/20/2021 3:51:15 PM
; FORMAT={-:-/ absolute / inch / decimal}
; #@! TF.CreationDate,2021-01-20T15:51:15-05:00
; #@! TF.GenerationSoftware,Kicad,Pcbnew,(5.1.4)-1
; #@! TF.FileFunction,Plated,1,2,PTH
FMAT,2
INCH
T1C0.0315
T2C0.0394
T3C0.0430
T4C0.0512
T5C0.0579
T6C0.0591
T7C0.0866
%
G90
G05
T1
X5.8125Y-1.6875
X5.8125Y-2.9875
X5.8125Y-3.1875
X6.5625Y-1.4875
X6.5625Y-1.6875
X4.3125Y-1.4875
X4.3125Y-1.6875
X5.0625Y-2.2375
X5.0625Y-2.4375
X5.0625Y-1.4875
X5.0625Y-1.6875
X4.3125Y-2.9875
X4.3125Y-3.1875
X5.0625Y-2.9875
X5.0625Y-3.1875
X5.8125Y-2.2375
X5.8125Y-2.4375
X6.5625Y-2.9875
X6.5625Y-3.1875
X6.5625Y-2.2375
X6.5625Y-2.4375
X5.8125Y-1.4875
X4.3125Y-2.2375
X4.3125Y-2.4375
T2
X2.9235Y-2.8078
X2.9235Y-2.9062
X2.9235Y-3.0047
X3.4943Y-2.8078
X3.4943Y-3.0047
T3
X2.9187Y-1.3875
X2.9187Y-1.4875
X2.9187Y-1.5875
X2.9187Y-1.6875
X2.9187Y-1.7875
X2.9187Y-1.8875
X2.9187Y-1.9875
X2.9187Y-2.0875
X2.9187Y-2.1875
X2.9187Y-2.2875
X2.9187Y-2.3875
X2.9187Y-2.4875
X3.5187Y-1.3875
X3.5187Y-1.4875
X3.5187Y-1.5875
X3.5187Y-1.6875
X3.5187Y-1.7875
X3.5187Y-1.8875
X3.5187Y-1.9875
X3.5187Y-2.0875
X3.5187Y-2.1875
X3.5187Y-2.2875
X3.5187Y-2.3875
X3.5187Y-2.4875
T4
X2.75Y-1.5283
X2.75Y-1.7842
T5
X3.85Y-2.9625
X3.9016Y-2.905
X4.0984Y-2.8853
X4.1Y-2.8625
X4.6Y-2.2125
X4.6516Y-2.155
X4.8484Y-2.1353
X4.85Y-2.1125
X5.35Y-1.4625
X5.4016Y-1.405
X5.5984Y-1.3853
X5.6Y-1.3625
X6.1Y-2.2125
X6.1516Y-2.155
X6.3484Y-2.1353
X6.35Y-2.1125
X4.6Y-2.9625
X4.6516Y-2.905
X4.8484Y-2.8853
X4.85Y-2.8625
X6.1Y-2.9625
X6.1516Y-2.905
X6.3484Y-2.8853
X6.35Y-2.8625
X3.85Y-1.4625
X3.9016Y-1.405
X4.0984Y-1.3853
X4.1Y-1.3625
X5.35Y-2.9625
X5.4016Y-2.905
X5.5984Y-2.8853
X5.6Y-2.8625
X4.6Y-1.4625
X4.6516Y-1.405
X4.8484Y-1.3853
X4.85Y-1.3625
X3.85Y-2.2125
X3.9016Y-2.155
X4.0984Y-2.1353
X4.1Y-2.1125
X5.35Y-2.2125
X5.4016Y-2.155
X5.5984Y-2.1353
X5.6Y-2.1125
X6.1Y-1.4625
X6.1516Y-1.405
X6.3484Y-1.3853
X6.35Y-1.3625
T7
X2.7188Y-3.2812
X6.4688Y-3.3125
X5.2188Y-2.0
X2.7188Y-1.3438
X6.5Y-1.3125
T6
G00X3.1932Y-2.6858
M15
G01X3.2443Y-2.6858
M16
G05
G00X3.1932Y-3.1267
M15
G01X3.2443Y-3.1267
M16
G05
T0
M30
