G04 #@! TF.GenerationSoftware,KiCad,Pcbnew,(5.1.4)-1*
G04 #@! TF.CreationDate,2021-01-23T00:36:45-05:00*
G04 #@! TF.ProjectId,macropad,6d616372-6f70-4616-942e-6b696361645f,rev?*
G04 #@! TF.SameCoordinates,Original*
G04 #@! TF.FileFunction,Copper,L2,Bot*
G04 #@! TF.FilePolarity,Positive*
%FSLAX46Y46*%
G04 Gerber Fmt 4.6, Leading zero omitted, Abs format (unit mm)*
G04 Created by KiCad (PCBNEW (5.1.4)-1) date 2021-01-23 00:36:45*
%MOMM*%
%LPD*%
G04 APERTURE LIST*
%ADD10R,2.000000X2.000000*%
%ADD11C,2.000000*%
%ADD12O,2.000000X3.200000*%
%ADD13C,2.250000*%
%ADD14C,4.400000*%
%ADD15R,1.752600X1.752600*%
%ADD16C,1.752600*%
%ADD17O,1.600000X1.600000*%
%ADD18R,1.600000X1.600000*%
%ADD19C,0.254000*%
%ADD20C,0.250000*%
%ADD21C,0.381000*%
G04 APERTURE END LIST*
D10*
X172918750Y-71000000D03*
D11*
X175418750Y-71000000D03*
X177918750Y-71000000D03*
D12*
X169818750Y-63500000D03*
X181018750Y-63500000D03*
D11*
X172918750Y-56500000D03*
X177918750Y-56500000D03*
D10*
X115768750Y-71000000D03*
D11*
X118268750Y-71000000D03*
X120768750Y-71000000D03*
D12*
X112668750Y-63500000D03*
X123868750Y-63500000D03*
D11*
X115768750Y-56500000D03*
X120768750Y-56500000D03*
D13*
X177958750Y-96520000D03*
X171608750Y-99060000D03*
X177958750Y-77470000D03*
X171608750Y-80010000D03*
X177958750Y-58420000D03*
X171608750Y-60960000D03*
X158908750Y-96520000D03*
X152558750Y-99060000D03*
X158908750Y-77470000D03*
X152558750Y-80010000D03*
X158908750Y-58420000D03*
X152558750Y-60960000D03*
X139858750Y-96520000D03*
X133508750Y-99060000D03*
X139858750Y-77470000D03*
X133508750Y-80010000D03*
X139858750Y-58420000D03*
X133508750Y-60960000D03*
X120808750Y-96520000D03*
X114458750Y-99060000D03*
X120808750Y-77470000D03*
X114458750Y-80010000D03*
X120808750Y-58420000D03*
X114458750Y-60960000D03*
D14*
X270668750Y-107950000D03*
X194468750Y-107950000D03*
X270668750Y-57150000D03*
X194468750Y-57150000D03*
D11*
X148463000Y-65734000D03*
X148463000Y-59234000D03*
D15*
X129698750Y-58261250D03*
D16*
X129698750Y-60801250D03*
X129698750Y-63341250D03*
X129698750Y-65881250D03*
X129698750Y-68421250D03*
X129698750Y-70961250D03*
X129698750Y-73501250D03*
X129698750Y-76041250D03*
X129698750Y-78581250D03*
X129698750Y-81121250D03*
X129698750Y-83661250D03*
X144938750Y-86201250D03*
X144938750Y-83661250D03*
X144938750Y-81121250D03*
X144938750Y-78581250D03*
X144938750Y-76041250D03*
X144938750Y-73501250D03*
X144938750Y-70961250D03*
X144938750Y-68421250D03*
X144938750Y-65881250D03*
X144938750Y-63341250D03*
X144938750Y-60801250D03*
X129698750Y-86201250D03*
X144938750Y-58261250D03*
D14*
X184943750Y-107950000D03*
X108743750Y-107950000D03*
X184943750Y-57150000D03*
X108743750Y-57150000D03*
D17*
X176688750Y-107156250D03*
D18*
X169068750Y-107156250D03*
D17*
X176688750Y-88106250D03*
D18*
X169068750Y-88106250D03*
D17*
X180975000Y-66992500D03*
D18*
X180975000Y-74612500D03*
D17*
X164306250Y-99536250D03*
D18*
X164306250Y-107156250D03*
D17*
X164306250Y-80486250D03*
D18*
X164306250Y-88106250D03*
D17*
X164306250Y-61436250D03*
D18*
X164306250Y-69056250D03*
D17*
X145256250Y-99536250D03*
D18*
X145256250Y-107156250D03*
D17*
X148431250Y-80486250D03*
D18*
X148431250Y-88106250D03*
D17*
X141763750Y-90487500D03*
D18*
X134143750Y-90487500D03*
D17*
X126206250Y-99536250D03*
D18*
X126206250Y-107156250D03*
D17*
X121920000Y-90487500D03*
D18*
X114300000Y-90487500D03*
D17*
X123825000Y-66992500D03*
D18*
X123825000Y-74612500D03*
D19*
X120768750Y-58380000D02*
X120808750Y-58420000D01*
X120768750Y-56500000D02*
X120768750Y-58380000D01*
X120808750Y-63976250D02*
X120808750Y-58420000D01*
X123825000Y-66992500D02*
X120808750Y-63976250D01*
X170916500Y-74612500D02*
X179921000Y-74612500D01*
X165360250Y-69056250D02*
X170916500Y-74612500D01*
X164306250Y-69056250D02*
X165360250Y-69056250D01*
D20*
X179921000Y-74612500D02*
X180975000Y-74612500D01*
D19*
X133892949Y-77244551D02*
X134937500Y-76200000D01*
X125403051Y-77244551D02*
X133892949Y-77244551D01*
X123825000Y-75666500D02*
X125403051Y-77244551D01*
X123825000Y-74612500D02*
X123825000Y-75666500D01*
X136525000Y-77787500D02*
X134937500Y-76200000D01*
X136525000Y-79908816D02*
X136525000Y-77787500D01*
X134143750Y-90487500D02*
X134143750Y-82290066D01*
X134143750Y-82290066D02*
X136525000Y-79908816D01*
X136432949Y-74704551D02*
X134937500Y-76200000D01*
X143735449Y-74704551D02*
X136432949Y-74704551D01*
D20*
X143735449Y-74704551D02*
X144938750Y-73501250D01*
D19*
X162718750Y-69056250D02*
X164306250Y-69056250D01*
X159543750Y-72231250D02*
X162718750Y-69056250D01*
X144938750Y-73501250D02*
X146208750Y-72231250D01*
X146208750Y-72231250D02*
X159543750Y-72231250D01*
X120808750Y-89376250D02*
X121920000Y-90487500D01*
X120808750Y-77470000D02*
X120808750Y-89376250D01*
X149485250Y-88106250D02*
X164306250Y-88106250D01*
X148431250Y-88106250D02*
X149485250Y-88106250D01*
X115354000Y-90487500D02*
X114300000Y-90487500D01*
X116941500Y-92075000D02*
X115354000Y-90487500D01*
X148431250Y-88106250D02*
X148431250Y-89160250D01*
X148431250Y-89160250D02*
X145516500Y-92075000D01*
D20*
X126206250Y-88900000D02*
X123031250Y-92075000D01*
X126206250Y-87153750D02*
X126206250Y-88900000D01*
X129698750Y-83661250D02*
X126206250Y-87153750D01*
D19*
X145516500Y-92075000D02*
X123031250Y-92075000D01*
X123031250Y-92075000D02*
X116941500Y-92075000D01*
X169068750Y-88106250D02*
X164306250Y-88106250D01*
D20*
X123190000Y-96520000D02*
X126206250Y-99536250D01*
X120808750Y-96520000D02*
X123190000Y-96520000D01*
D19*
X145256250Y-107156250D02*
X164306250Y-107156250D01*
X126206250Y-107156250D02*
X145256250Y-107156250D01*
X164306250Y-107156250D02*
X169068750Y-107156250D01*
X141686699Y-79917949D02*
X139818750Y-78050000D01*
X145516335Y-79917949D02*
X141686699Y-79917949D01*
X146084636Y-80486250D02*
X145516335Y-79917949D01*
X148431250Y-80486250D02*
X146084636Y-80486250D01*
D20*
X142240000Y-96520000D02*
X145256250Y-99536250D01*
X139858750Y-96520000D02*
X142240000Y-96520000D01*
D19*
X161290000Y-58420000D02*
X164306250Y-61436250D01*
X158908750Y-58420000D02*
X161290000Y-58420000D01*
D20*
X161417000Y-77597000D02*
X164306250Y-80486250D01*
X158868750Y-78050000D02*
X159321750Y-77597000D01*
X159321750Y-77597000D02*
X161417000Y-77597000D01*
X161290000Y-96520000D02*
X164306250Y-99536250D01*
X158908750Y-96520000D02*
X161290000Y-96520000D01*
D19*
X177958750Y-56540000D02*
X177918750Y-56500000D01*
X177958750Y-58420000D02*
X177958750Y-56540000D01*
X177958750Y-63976250D02*
X180975000Y-66992500D01*
X177958750Y-58420000D02*
X177958750Y-63976250D01*
X178276250Y-77787500D02*
X177958750Y-77470000D01*
X177958750Y-86836250D02*
X177958750Y-77470000D01*
X176688750Y-88106250D02*
X177958750Y-86836250D01*
X177958750Y-105886250D02*
X176688750Y-107156250D01*
X177958750Y-96520000D02*
X177958750Y-105886250D01*
D20*
X132049275Y-80010000D02*
X133508750Y-80010000D01*
X130938025Y-81121250D02*
X132049275Y-80010000D01*
X129698750Y-81121250D02*
X130938025Y-81121250D01*
D19*
X151130000Y-78581250D02*
X152558750Y-80010000D01*
X144938750Y-78581250D02*
X151130000Y-78581250D01*
X166763701Y-75164951D02*
X171608750Y-80010000D01*
X145815049Y-75164951D02*
X166763701Y-75164951D01*
X144938750Y-76041250D02*
X145815049Y-75164951D01*
X172918750Y-59650000D02*
X172918750Y-56500000D01*
X171608750Y-60960000D02*
X172918750Y-59650000D01*
D21*
X144938750Y-60801250D02*
X145815049Y-61677549D01*
X146284951Y-61677549D02*
X147491451Y-61677549D01*
X145815049Y-61677549D02*
X146284951Y-61677549D01*
X130575049Y-66757549D02*
X129698750Y-65881250D01*
X137590115Y-66757549D02*
X130575049Y-66757549D01*
X140493750Y-63853914D02*
X137590115Y-66757549D01*
X140493750Y-62709401D02*
X140493750Y-63853914D01*
X144938750Y-60801250D02*
X142401901Y-60801250D01*
X142401901Y-60801250D02*
X140493750Y-62709401D01*
X129698750Y-65881250D02*
X129698750Y-63341250D01*
X175418750Y-72414213D02*
X176283537Y-73279000D01*
X175418750Y-71000000D02*
X175418750Y-72414213D01*
X176283537Y-73279000D02*
X179705000Y-73279000D01*
X179705000Y-73279000D02*
X179959000Y-73025000D01*
X151698303Y-65884401D02*
X147491451Y-61677549D01*
X174861093Y-65884401D02*
X151698303Y-65884401D01*
X179959000Y-70982308D02*
X174861093Y-65884401D01*
X179959000Y-73025000D02*
X179959000Y-70982308D01*
X148463000Y-60706000D02*
X148463000Y-59234000D01*
X147491451Y-61677549D02*
X148463000Y-60706000D01*
X128822451Y-66757549D02*
X129698750Y-65881250D01*
X127000000Y-68580000D02*
X128822451Y-66757549D01*
X118268750Y-71000000D02*
X120688750Y-68580000D01*
X120688750Y-68580000D02*
X127000000Y-68580000D01*
D20*
X147331500Y-65734000D02*
X148463000Y-65734000D01*
X144938750Y-63341250D02*
X147331500Y-65734000D01*
X144938750Y-70961250D02*
X157638750Y-70961250D01*
D19*
X168355750Y-67691000D02*
X171664750Y-71000000D01*
X171664750Y-71000000D02*
X172918750Y-71000000D01*
X157638750Y-70961250D02*
X160909000Y-67691000D01*
X160909000Y-67691000D02*
X168355750Y-67691000D01*
D20*
X157448250Y-70358000D02*
X159385000Y-68421250D01*
X144938750Y-68421250D02*
X146875500Y-70358000D01*
X146875500Y-70358000D02*
X157448250Y-70358000D01*
D19*
X174155739Y-67236989D02*
X176918751Y-70000001D01*
X176918751Y-70000001D02*
X177918750Y-71000000D01*
X160569261Y-67236989D02*
X174155739Y-67236989D01*
X159385000Y-68421250D02*
X160569261Y-67236989D01*
M02*
