G04 #@! TF.GenerationSoftware,KiCad,Pcbnew,(5.1.4)-1*
G04 #@! TF.CreationDate,2021-01-21T10:19:27-05:00*
G04 #@! TF.ProjectId,macropad,6d616372-6f70-4616-942e-6b696361645f,rev?*
G04 #@! TF.SameCoordinates,Original*
G04 #@! TF.FileFunction,Copper,L2,Bot*
G04 #@! TF.FilePolarity,Positive*
%FSLAX46Y46*%
G04 Gerber Fmt 4.6, Leading zero omitted, Abs format (unit mm)*
G04 Created by KiCad (PCBNEW (5.1.4)-1) date 2021-01-21 10:19:27*
%MOMM*%
%LPD*%
G04 APERTURE LIST*
%ADD10C,4.400000*%
%ADD11C,2.250000*%
%ADD12C,2.250000*%
%ADD13C,2.000000*%
%ADD14R,2.000000X2.000000*%
%ADD15O,2.000000X3.200000*%
%ADD16R,1.752600X1.752600*%
%ADD17C,1.752600*%
%ADD18O,1.600000X1.600000*%
%ADD19R,1.600000X1.600000*%
%ADD20C,0.254000*%
%ADD21C,0.250000*%
%ADD22C,0.381000*%
G04 APERTURE END LIST*
D10*
X194468750Y-57150000D03*
X194468750Y-107950000D03*
X270668750Y-107950000D03*
X270668750Y-57150000D03*
D11*
X115768750Y-59500000D03*
X115113751Y-60230000D03*
D12*
X114458750Y-60960000D02*
X115768752Y-59500000D01*
D11*
X120808750Y-58420000D03*
X120788750Y-58710000D03*
D12*
X120768750Y-59000000D02*
X120808750Y-58420000D01*
D13*
X148431250Y-59456250D03*
X148431250Y-65956250D03*
D14*
X177918750Y-56000000D03*
D13*
X175418750Y-56000000D03*
X172918750Y-56000000D03*
D15*
X181018750Y-63500000D03*
X169818750Y-63500000D03*
D13*
X177918750Y-70500000D03*
X172918750Y-70500000D03*
D16*
X129698750Y-58261250D03*
D17*
X129698750Y-60801250D03*
X129698750Y-63341250D03*
X129698750Y-65881250D03*
X129698750Y-68421250D03*
X129698750Y-70961250D03*
X129698750Y-73501250D03*
X129698750Y-76041250D03*
X129698750Y-78581250D03*
X129698750Y-81121250D03*
X129698750Y-83661250D03*
X144938750Y-86201250D03*
X144938750Y-83661250D03*
X144938750Y-81121250D03*
X144938750Y-78581250D03*
X144938750Y-76041250D03*
X144938750Y-73501250D03*
X144938750Y-70961250D03*
X144938750Y-68421250D03*
X144938750Y-65881250D03*
X144938750Y-63341250D03*
X144938750Y-60801250D03*
X129698750Y-86201250D03*
X144938750Y-58261250D03*
D14*
X120768750Y-56000000D03*
D13*
X118268750Y-56000000D03*
X115768750Y-56000000D03*
D15*
X123868750Y-63500000D03*
X112668750Y-63500000D03*
D13*
X120768750Y-70500000D03*
X115768750Y-70500000D03*
D11*
X172918750Y-97600000D03*
X172263751Y-98330000D03*
D12*
X171608750Y-99060000D02*
X172918752Y-97600000D01*
D11*
X177958750Y-96520000D03*
X177938750Y-96810000D03*
D12*
X177918750Y-97100000D02*
X177958750Y-96520000D01*
D11*
X172918750Y-78550000D03*
X172263751Y-79280000D03*
D12*
X171608750Y-80010000D02*
X172918752Y-78550000D01*
D11*
X177958750Y-77470000D03*
X177938750Y-77760000D03*
D12*
X177918750Y-78050000D02*
X177958750Y-77470000D01*
D11*
X172918750Y-59500000D03*
X172263751Y-60230000D03*
D12*
X171608750Y-60960000D02*
X172918752Y-59500000D01*
D11*
X177958750Y-58420000D03*
X177938750Y-58710000D03*
D12*
X177918750Y-59000000D02*
X177958750Y-58420000D01*
D11*
X153868750Y-97600000D03*
X153213751Y-98330000D03*
D12*
X152558750Y-99060000D02*
X153868752Y-97600000D01*
D11*
X158908750Y-96520000D03*
X158888750Y-96810000D03*
D12*
X158868750Y-97100000D02*
X158908750Y-96520000D01*
D11*
X153868750Y-78550000D03*
X153213751Y-79280000D03*
D12*
X152558750Y-80010000D02*
X153868752Y-78550000D01*
D11*
X158908750Y-77470000D03*
X158888750Y-77760000D03*
D12*
X158868750Y-78050000D02*
X158908750Y-77470000D01*
D11*
X153868750Y-59500000D03*
X153213751Y-60230000D03*
D12*
X152558750Y-60960000D02*
X153868752Y-59500000D01*
D11*
X158908750Y-58420000D03*
X158888750Y-58710000D03*
D12*
X158868750Y-59000000D02*
X158908750Y-58420000D01*
D11*
X134818750Y-97600000D03*
X134163751Y-98330000D03*
D12*
X133508750Y-99060000D02*
X134818752Y-97600000D01*
D11*
X139858750Y-96520000D03*
X139838750Y-96810000D03*
D12*
X139818750Y-97100000D02*
X139858750Y-96520000D01*
D11*
X134818750Y-78550000D03*
X134163751Y-79280000D03*
D12*
X133508750Y-80010000D02*
X134818752Y-78550000D01*
D11*
X139858750Y-77470000D03*
X139838750Y-77760000D03*
D12*
X139818750Y-78050000D02*
X139858750Y-77470000D01*
D11*
X134818750Y-59500000D03*
X134163751Y-60230000D03*
D12*
X133508750Y-60960000D02*
X134818752Y-59500000D01*
D11*
X139858750Y-58420000D03*
X139838750Y-58710000D03*
D12*
X139818750Y-59000000D02*
X139858750Y-58420000D01*
D11*
X115768750Y-97600000D03*
X115113751Y-98330000D03*
D12*
X114458750Y-99060000D02*
X115768752Y-97600000D01*
D11*
X120808750Y-96520000D03*
X120788750Y-96810000D03*
D12*
X120768750Y-97100000D02*
X120808750Y-96520000D01*
D11*
X115768750Y-78550000D03*
X115113751Y-79280000D03*
D12*
X114458750Y-80010000D02*
X115768752Y-78550000D01*
D11*
X120808750Y-77470000D03*
X120788750Y-77760000D03*
D12*
X120768750Y-78050000D02*
X120808750Y-77470000D01*
D10*
X184943750Y-57150000D03*
X108743750Y-57150000D03*
X184943750Y-107950000D03*
X108743750Y-107950000D03*
D18*
X176688750Y-106362500D03*
D19*
X169068750Y-106362500D03*
D18*
X180975000Y-86042500D03*
D19*
X180975000Y-93662500D03*
D18*
X180975000Y-66992500D03*
D19*
X180975000Y-74612500D03*
D18*
X164306250Y-99536250D03*
D19*
X164306250Y-107156250D03*
D18*
X164306250Y-80486250D03*
D19*
X164306250Y-88106250D03*
D18*
X164306250Y-61436250D03*
D19*
X164306250Y-69056250D03*
D18*
X145256250Y-99536250D03*
D19*
X145256250Y-107156250D03*
D18*
X148431250Y-80486250D03*
D19*
X148431250Y-88106250D03*
D18*
X141763750Y-90487500D03*
D19*
X134143750Y-90487500D03*
D18*
X126206250Y-99536250D03*
D19*
X126206250Y-107156250D03*
D18*
X121920000Y-90487500D03*
D19*
X114300000Y-90487500D03*
D18*
X123825000Y-66992500D03*
D19*
X123825000Y-74612500D03*
D20*
X119276250Y-66992500D02*
X123825000Y-66992500D01*
X115768750Y-70500000D02*
X119276250Y-66992500D01*
X170916500Y-74612500D02*
X179921000Y-74612500D01*
X165360250Y-69056250D02*
X170916500Y-74612500D01*
X164306250Y-69056250D02*
X165360250Y-69056250D01*
X136432949Y-74704551D02*
X134937500Y-76200000D01*
X145516335Y-74704551D02*
X136432949Y-74704551D01*
X151164636Y-69056250D02*
X145516335Y-74704551D01*
X164306250Y-69056250D02*
X151164636Y-69056250D01*
X133902451Y-75164951D02*
X134143750Y-75406250D01*
X130575049Y-75164951D02*
X133902451Y-75164951D01*
X129698750Y-76041250D02*
X130575049Y-75164951D01*
X134937500Y-76200000D02*
X134143750Y-75406250D01*
X128270000Y-74612500D02*
X129698750Y-76041250D01*
X123825000Y-74612500D02*
X128270000Y-74612500D01*
D21*
X179921000Y-74612500D02*
X180975000Y-74612500D01*
D20*
X136525000Y-77787500D02*
X134937500Y-76200000D01*
X136525000Y-79908816D02*
X136525000Y-77787500D01*
X134143750Y-90487500D02*
X134143750Y-82290066D01*
X134143750Y-82290066D02*
X136525000Y-79908816D01*
X120768750Y-89336250D02*
X121920000Y-90487500D01*
X120768750Y-78050000D02*
X120768750Y-89336250D01*
X149485250Y-88106250D02*
X164306250Y-88106250D01*
X148431250Y-88106250D02*
X149485250Y-88106250D01*
X180975000Y-92608500D02*
X180975000Y-93662500D01*
X176472750Y-88106250D02*
X180975000Y-92608500D01*
X164306250Y-88106250D02*
X176472750Y-88106250D01*
X115354000Y-90487500D02*
X114300000Y-90487500D01*
X116941500Y-92075000D02*
X115354000Y-90487500D01*
X145516500Y-92075000D02*
X116941500Y-92075000D01*
X148431250Y-88106250D02*
X148431250Y-89160250D01*
X148431250Y-89160250D02*
X145516500Y-92075000D01*
X123770000Y-97100000D02*
X126206250Y-99536250D01*
X120768750Y-97100000D02*
X123770000Y-97100000D01*
X145256250Y-107156250D02*
X164306250Y-107156250D01*
X126206250Y-107156250D02*
X145256250Y-107156250D01*
X165893750Y-107156250D02*
X164306250Y-107156250D01*
X169068750Y-106362500D02*
X166687500Y-106362500D01*
X166687500Y-106362500D02*
X165893750Y-107156250D01*
X141686699Y-79917949D02*
X139818750Y-78050000D01*
X145516335Y-79917949D02*
X141686699Y-79917949D01*
X146084636Y-80486250D02*
X145516335Y-79917949D01*
X148431250Y-80486250D02*
X146084636Y-80486250D01*
X142820000Y-97100000D02*
X145256250Y-99536250D01*
X139818750Y-97100000D02*
X142820000Y-97100000D01*
X161870000Y-59000000D02*
X164306250Y-61436250D01*
X158868750Y-59000000D02*
X161870000Y-59000000D01*
D21*
X161870000Y-78050000D02*
X164306250Y-80486250D01*
X158868750Y-78050000D02*
X161870000Y-78050000D01*
D20*
X161870000Y-97100000D02*
X164306250Y-99536250D01*
X158868750Y-97100000D02*
X161870000Y-97100000D01*
X177918750Y-63936250D02*
X180975000Y-66992500D01*
X177918750Y-59000000D02*
X177918750Y-63936250D01*
D21*
X180975000Y-67443750D02*
X180975000Y-66992500D01*
X177918750Y-70500000D02*
X180975000Y-67443750D01*
D20*
X177918750Y-82986250D02*
X180975000Y-86042500D01*
X177918750Y-78050000D02*
X177918750Y-82986250D01*
X177918750Y-97100000D02*
X178593750Y-97775000D01*
X177958750Y-97140000D02*
X177918750Y-97100000D01*
X177958750Y-105092500D02*
X177958750Y-97140000D01*
X176688750Y-106362500D02*
X177958750Y-105092500D01*
X151130000Y-78581250D02*
X152558750Y-80010000D01*
X144938750Y-78581250D02*
X151130000Y-78581250D01*
X166763701Y-75164951D02*
X171608750Y-80010000D01*
X145815049Y-75164951D02*
X166763701Y-75164951D01*
X144938750Y-76041250D02*
X145815049Y-75164951D01*
D22*
X174418751Y-55000001D02*
X175418750Y-56000000D01*
X174028249Y-54609499D02*
X174418751Y-55000001D01*
X156516309Y-54609499D02*
X174028249Y-54609499D01*
X149448259Y-61677549D02*
X156516309Y-54609499D01*
X144938750Y-60801250D02*
X145815049Y-61677549D01*
X130575049Y-66757549D02*
X129698750Y-65881250D01*
X137590115Y-66757549D02*
X130575049Y-66757549D01*
X140493750Y-63853914D02*
X137590115Y-66757549D01*
X140493750Y-62709401D02*
X140493750Y-63853914D01*
X144938750Y-60801250D02*
X142401901Y-60801250D01*
X142401901Y-60801250D02*
X140493750Y-62709401D01*
X129698750Y-65881250D02*
X129698750Y-63341250D01*
D20*
X147553750Y-65956250D02*
X148431250Y-65956250D01*
D22*
X148431250Y-63823848D02*
X146284951Y-61677549D01*
X148431250Y-65956250D02*
X148431250Y-63823848D01*
X145815049Y-61677549D02*
X146284951Y-61677549D01*
X146284951Y-61677549D02*
X149448259Y-61677549D01*
X118268750Y-57414213D02*
X118268750Y-56000000D01*
X118268750Y-59483994D02*
X118268750Y-57414213D01*
X120294255Y-61509499D02*
X118268750Y-59483994D01*
X129698750Y-63341250D02*
X127866999Y-61509499D01*
X127866999Y-61509499D02*
X120294255Y-61509499D01*
D20*
X175975000Y-57943750D02*
X177918750Y-56000000D01*
X172243750Y-57943750D02*
X175975000Y-57943750D01*
X144938750Y-68421250D02*
X161766250Y-68421250D01*
X161766250Y-68421250D02*
X172243750Y-57943750D01*
X171918751Y-56999999D02*
X172918750Y-56000000D01*
X161450000Y-67468750D02*
X171918751Y-56999999D01*
X144938750Y-65881250D02*
X146526250Y-67468750D01*
X146526250Y-67468750D02*
X161450000Y-67468750D01*
M02*
