M48
; DRILL file {KiCad (5.1.4)-1} date 1/21/2021 10:19:29 AM
; FORMAT={-:-/ absolute / inch / decimal}
; #@! TF.CreationDate,2021-01-21T10:19:29-05:00
; #@! TF.GenerationSoftware,Kicad,Pcbnew,(5.1.4)-1
; #@! TF.FileFunction,NonPlated,1,2,NPTH
FMAT,2
INCH
T1C0.0310
T2C0.0689
T3C0.1570
%
G90
G05
T1
X7.4262Y-2.49
X7.5112Y-2.54
X7.4262Y-3.94
X7.4262Y-3.99
X7.4262Y-4.04
X7.4262Y-4.09
X7.4262Y-4.14
X7.4262Y-2.39
X7.4262Y-2.44
X7.4262Y-2.54
X7.4262Y-2.59
X7.5112Y-3.94
X7.5112Y-3.99
X7.5112Y-4.04
X7.5112Y-4.09
X7.5112Y-4.14
X7.5112Y-2.39
X7.5112Y-2.44
X7.5112Y-2.49
X7.5112Y-2.59
T2
X4.4562Y-2.5
X4.8563Y-2.5
X5.9562Y-4.0
X6.3563Y-4.0
X5.2062Y-3.25
X5.6063Y-3.25
X6.7062Y-3.25
X7.1063Y-3.25
X4.4562Y-4.0
X4.8563Y-4.0
X6.7062Y-4.0
X7.1063Y-4.0
X5.9562Y-2.5
X6.3563Y-2.5
X5.2062Y-2.5
X5.6063Y-2.5
X4.4562Y-3.25
X4.8563Y-3.25
X6.7062Y-2.5
X7.1063Y-2.5
X5.2062Y-4.0
X5.6063Y-4.0
X5.9562Y-3.25
X6.3563Y-3.25
T3
X4.6562Y-4.0
X6.9062Y-4.0
X6.1562Y-2.5
X5.4062Y-2.5
X4.6562Y-3.25
X6.9062Y-2.5
X5.4062Y-4.0
X6.1562Y-3.25
X4.6562Y-2.5
X6.1562Y-4.0
X5.4062Y-3.25
X6.9062Y-3.25
T0
M30
