G04 #@! TF.GenerationSoftware,KiCad,Pcbnew,(5.1.4)-1*
G04 #@! TF.CreationDate,2021-01-21T10:19:27-05:00*
G04 #@! TF.ProjectId,macropad,6d616372-6f70-4616-942e-6b696361645f,rev?*
G04 #@! TF.SameCoordinates,Original*
G04 #@! TF.FileFunction,Legend,Top*
G04 #@! TF.FilePolarity,Positive*
%FSLAX46Y46*%
G04 Gerber Fmt 4.6, Leading zero omitted, Abs format (unit mm)*
G04 Created by KiCad (PCBNEW (5.1.4)-1) date 2021-01-21 10:19:27*
%MOMM*%
%LPD*%
G04 APERTURE LIST*
%ADD10C,0.120000*%
%ADD11C,0.150000*%
G04 APERTURE END LIST*
D10*
X178418750Y-63500000D02*
G75*
G03X178418750Y-63500000I-3000000J0D01*
G01*
X181318750Y-65500000D02*
X181318750Y-69600000D01*
X169518750Y-69600000D02*
X169518750Y-65500000D01*
X169518750Y-61500000D02*
X169518750Y-57400000D01*
X181318750Y-61500000D02*
X181318750Y-57400000D01*
X181318750Y-57400000D02*
X169518750Y-57400000D01*
X179218750Y-56000000D02*
X179518750Y-55700000D01*
X179518750Y-55700000D02*
X179518750Y-56300000D01*
X179518750Y-56300000D02*
X179218750Y-56000000D01*
X181318750Y-69600000D02*
X178918750Y-69600000D01*
X176718750Y-69600000D02*
X174118750Y-69600000D01*
X171918750Y-69600000D02*
X169518750Y-69600000D01*
X175918750Y-63500000D02*
X174918750Y-63500000D01*
X175418750Y-63000000D02*
X175418750Y-64000000D01*
X121268750Y-63500000D02*
G75*
G03X121268750Y-63500000I-3000000J0D01*
G01*
X124168750Y-65500000D02*
X124168750Y-69600000D01*
X112368750Y-69600000D02*
X112368750Y-65500000D01*
X112368750Y-61500000D02*
X112368750Y-57400000D01*
X124168750Y-61500000D02*
X124168750Y-57400000D01*
X124168750Y-57400000D02*
X112368750Y-57400000D01*
X122068750Y-56000000D02*
X122368750Y-55700000D01*
X122368750Y-55700000D02*
X122368750Y-56300000D01*
X122368750Y-56300000D02*
X122068750Y-56000000D01*
X124168750Y-69600000D02*
X121768750Y-69600000D01*
X119568750Y-69600000D02*
X116968750Y-69600000D01*
X114768750Y-69600000D02*
X112368750Y-69600000D01*
X118768750Y-63500000D02*
X117768750Y-63500000D01*
X118268750Y-63000000D02*
X118268750Y-64000000D01*
D11*
X193706845Y-57602380D02*
X193706845Y-56602380D01*
X193706845Y-57078571D02*
X194278273Y-57078571D01*
X194278273Y-57602380D02*
X194278273Y-56602380D01*
X194659226Y-56602380D02*
X195278273Y-56602380D01*
X194944940Y-56983333D01*
X195087797Y-56983333D01*
X195183035Y-57030952D01*
X195230654Y-57078571D01*
X195278273Y-57173809D01*
X195278273Y-57411904D01*
X195230654Y-57507142D01*
X195183035Y-57554761D01*
X195087797Y-57602380D01*
X194802083Y-57602380D01*
X194706845Y-57554761D01*
X194659226Y-57507142D01*
X193706845Y-108402380D02*
X193706845Y-107402380D01*
X193706845Y-107878571D02*
X194278273Y-107878571D01*
X194278273Y-108402380D02*
X194278273Y-107402380D01*
X195278273Y-108402380D02*
X194706845Y-108402380D01*
X194992559Y-108402380D02*
X194992559Y-107402380D01*
X194897321Y-107545238D01*
X194802083Y-107640476D01*
X194706845Y-107688095D01*
X269906845Y-108402380D02*
X269906845Y-107402380D01*
X269906845Y-107878571D02*
X270478273Y-107878571D01*
X270478273Y-108402380D02*
X270478273Y-107402380D01*
X270906845Y-107497619D02*
X270954464Y-107450000D01*
X271049702Y-107402380D01*
X271287797Y-107402380D01*
X271383035Y-107450000D01*
X271430654Y-107497619D01*
X271478273Y-107592857D01*
X271478273Y-107688095D01*
X271430654Y-107830952D01*
X270859226Y-108402380D01*
X271478273Y-108402380D01*
X269906845Y-57602380D02*
X269906845Y-56602380D01*
X269906845Y-57078571D02*
X270478273Y-57078571D01*
X270478273Y-57602380D02*
X270478273Y-56602380D01*
X271430654Y-56602380D02*
X270954464Y-56602380D01*
X270906845Y-57078571D01*
X270954464Y-57030952D01*
X271049702Y-56983333D01*
X271287797Y-56983333D01*
X271383035Y-57030952D01*
X271430654Y-57078571D01*
X271478273Y-57173809D01*
X271478273Y-57411904D01*
X271430654Y-57507142D01*
X271383035Y-57554761D01*
X271287797Y-57602380D01*
X271049702Y-57602380D01*
X270954464Y-57554761D01*
X270906845Y-57507142D01*
X175823511Y-64833333D02*
X175871130Y-64690476D01*
X175871130Y-64452380D01*
X175823511Y-64357142D01*
X175775892Y-64309523D01*
X175680654Y-64261904D01*
X175585416Y-64261904D01*
X175490178Y-64309523D01*
X175442559Y-64357142D01*
X175394940Y-64452380D01*
X175347321Y-64642857D01*
X175299702Y-64738095D01*
X175252083Y-64785714D01*
X175156845Y-64833333D01*
X175061607Y-64833333D01*
X174966369Y-64785714D01*
X174918750Y-64738095D01*
X174871130Y-64642857D01*
X174871130Y-64404761D01*
X174918750Y-64261904D01*
X174871130Y-63928571D02*
X175871130Y-63690476D01*
X175156845Y-63500000D01*
X175871130Y-63309523D01*
X174871130Y-63071428D01*
X174871130Y-62785714D02*
X174871130Y-62166666D01*
X175252083Y-62500000D01*
X175252083Y-62357142D01*
X175299702Y-62261904D01*
X175347321Y-62214285D01*
X175442559Y-62166666D01*
X175680654Y-62166666D01*
X175775892Y-62214285D01*
X175823511Y-62261904D01*
X175871130Y-62357142D01*
X175871130Y-62642857D01*
X175823511Y-62738095D01*
X175775892Y-62785714D01*
X118673511Y-64833333D02*
X118721130Y-64690476D01*
X118721130Y-64452380D01*
X118673511Y-64357142D01*
X118625892Y-64309523D01*
X118530654Y-64261904D01*
X118435416Y-64261904D01*
X118340178Y-64309523D01*
X118292559Y-64357142D01*
X118244940Y-64452380D01*
X118197321Y-64642857D01*
X118149702Y-64738095D01*
X118102083Y-64785714D01*
X118006845Y-64833333D01*
X117911607Y-64833333D01*
X117816369Y-64785714D01*
X117768750Y-64738095D01*
X117721130Y-64642857D01*
X117721130Y-64404761D01*
X117768750Y-64261904D01*
X117721130Y-63928571D02*
X118721130Y-63690476D01*
X118006845Y-63500000D01*
X118721130Y-63309523D01*
X117721130Y-63071428D01*
X118721130Y-62166666D02*
X118721130Y-62738095D01*
X118721130Y-62452380D02*
X117721130Y-62452380D01*
X117863988Y-62547619D01*
X117959226Y-62642857D01*
X118006845Y-62738095D01*
X184181845Y-57602380D02*
X184181845Y-56602380D01*
X184181845Y-57078571D02*
X184753273Y-57078571D01*
X184753273Y-57602380D02*
X184753273Y-56602380D01*
X185705654Y-56602380D02*
X185229464Y-56602380D01*
X185181845Y-57078571D01*
X185229464Y-57030952D01*
X185324702Y-56983333D01*
X185562797Y-56983333D01*
X185658035Y-57030952D01*
X185705654Y-57078571D01*
X185753273Y-57173809D01*
X185753273Y-57411904D01*
X185705654Y-57507142D01*
X185658035Y-57554761D01*
X185562797Y-57602380D01*
X185324702Y-57602380D01*
X185229464Y-57554761D01*
X185181845Y-57507142D01*
X107981845Y-57602380D02*
X107981845Y-56602380D01*
X107981845Y-57078571D02*
X108553273Y-57078571D01*
X108553273Y-57602380D02*
X108553273Y-56602380D01*
X108934226Y-56602380D02*
X109553273Y-56602380D01*
X109219940Y-56983333D01*
X109362797Y-56983333D01*
X109458035Y-57030952D01*
X109505654Y-57078571D01*
X109553273Y-57173809D01*
X109553273Y-57411904D01*
X109505654Y-57507142D01*
X109458035Y-57554761D01*
X109362797Y-57602380D01*
X109077083Y-57602380D01*
X108981845Y-57554761D01*
X108934226Y-57507142D01*
X184181845Y-108402380D02*
X184181845Y-107402380D01*
X184181845Y-107878571D02*
X184753273Y-107878571D01*
X184753273Y-108402380D02*
X184753273Y-107402380D01*
X185181845Y-107497619D02*
X185229464Y-107450000D01*
X185324702Y-107402380D01*
X185562797Y-107402380D01*
X185658035Y-107450000D01*
X185705654Y-107497619D01*
X185753273Y-107592857D01*
X185753273Y-107688095D01*
X185705654Y-107830952D01*
X185134226Y-108402380D01*
X185753273Y-108402380D01*
X107981845Y-108402380D02*
X107981845Y-107402380D01*
X107981845Y-107878571D02*
X108553273Y-107878571D01*
X108553273Y-108402380D02*
X108553273Y-107402380D01*
X109553273Y-108402380D02*
X108981845Y-108402380D01*
X109267559Y-108402380D02*
X109267559Y-107402380D01*
X109172321Y-107545238D01*
X109077083Y-107640476D01*
X108981845Y-107688095D01*
M02*
