G04 #@! TF.GenerationSoftware,KiCad,Pcbnew,(5.1.4)-1*
G04 #@! TF.CreationDate,2021-01-20T15:51:09-05:00*
G04 #@! TF.ProjectId,macropad,6d616372-6f70-4616-942e-6b696361645f,rev?*
G04 #@! TF.SameCoordinates,Original*
G04 #@! TF.FileFunction,Legend,Top*
G04 #@! TF.FilePolarity,Positive*
%FSLAX46Y46*%
G04 Gerber Fmt 4.6, Leading zero omitted, Abs format (unit mm)*
G04 Created by KiCad (PCBNEW (5.1.4)-1) date 2021-01-20 15:51:09*
%MOMM*%
%LPD*%
G04 APERTURE LIST*
%ADD10C,0.120000*%
%ADD11C,0.150000*%
%ADD12C,0.381000*%
G04 APERTURE END LIST*
D10*
X166687500Y-79636129D02*
X166687500Y-76982500D01*
X168013871Y-80962500D02*
G75*
G03X168013871Y-80962500I-1326371J0D01*
G01*
D11*
X71650000Y-39068750D02*
X70950000Y-39068750D01*
X68150000Y-39068750D02*
X68750000Y-39068750D01*
X68150000Y-45068750D02*
X68750000Y-45068750D01*
X71650000Y-45068750D02*
X70950000Y-45068750D01*
X68150000Y-39068750D02*
X68150000Y-45068750D01*
X71650000Y-45068750D02*
X71650000Y-39068750D01*
D12*
X88106250Y-36512500D02*
X90646250Y-36512500D01*
X88106250Y-33972500D02*
X88106250Y-36512500D01*
D11*
G36*
X75711615Y-40261530D02*
G01*
X75711615Y-40361530D01*
X75611615Y-40361530D01*
X75611615Y-40261530D01*
X75711615Y-40261530D01*
G37*
X75711615Y-40261530D02*
X75711615Y-40361530D01*
X75611615Y-40361530D01*
X75611615Y-40261530D01*
X75711615Y-40261530D01*
G36*
X75511615Y-39861530D02*
G01*
X75511615Y-40661530D01*
X75411615Y-40661530D01*
X75411615Y-39861530D01*
X75511615Y-39861530D01*
G37*
X75511615Y-39861530D02*
X75511615Y-40661530D01*
X75411615Y-40661530D01*
X75411615Y-39861530D01*
X75511615Y-39861530D01*
G36*
X75911615Y-40461530D02*
G01*
X75911615Y-40661530D01*
X75811615Y-40661530D01*
X75811615Y-40461530D01*
X75911615Y-40461530D01*
G37*
X75911615Y-40461530D02*
X75911615Y-40661530D01*
X75811615Y-40661530D01*
X75811615Y-40461530D01*
X75911615Y-40461530D01*
G36*
X75911615Y-39861530D02*
G01*
X75911615Y-40161530D01*
X75811615Y-40161530D01*
X75811615Y-39861530D01*
X75911615Y-39861530D01*
G37*
X75911615Y-39861530D02*
X75911615Y-40161530D01*
X75811615Y-40161530D01*
X75811615Y-39861530D01*
X75911615Y-39861530D01*
G36*
X75911615Y-39861530D02*
G01*
X75911615Y-39961530D01*
X75411615Y-39961530D01*
X75411615Y-39861530D01*
X75911615Y-39861530D01*
G37*
X75911615Y-39861530D02*
X75911615Y-39961530D01*
X75411615Y-39961530D01*
X75411615Y-39861530D01*
X75911615Y-39861530D01*
D12*
X72866250Y-64452500D02*
X72866250Y-31432500D01*
X90646250Y-64452500D02*
X72866250Y-64452500D01*
X90646250Y-31432500D02*
X90646250Y-64452500D01*
X72866250Y-31432500D02*
X90646250Y-31432500D01*
X88106250Y-33972500D02*
X90646250Y-33972500D01*
D10*
X84756250Y-73818750D02*
G75*
G03X84756250Y-73818750I-3000000J0D01*
G01*
X83756250Y-67918750D02*
X87856250Y-67918750D01*
X87856250Y-79718750D02*
X83756250Y-79718750D01*
X79756250Y-79718750D02*
X75656250Y-79718750D01*
X79756250Y-67918750D02*
X75656250Y-67918750D01*
X75656250Y-67918750D02*
X75656250Y-79718750D01*
X74256250Y-70018750D02*
X73956250Y-69718750D01*
X73956250Y-69718750D02*
X74556250Y-69718750D01*
X74556250Y-69718750D02*
X74256250Y-70018750D01*
X87856250Y-67918750D02*
X87856250Y-70318750D01*
X87856250Y-72518750D02*
X87856250Y-75118750D01*
X87856250Y-77318750D02*
X87856250Y-79718750D01*
X81756250Y-73318750D02*
X81756250Y-74318750D01*
X81256250Y-73818750D02*
X82256250Y-73818750D01*
X166687500Y-60586129D02*
X166687500Y-57932500D01*
X168013871Y-61912500D02*
G75*
G03X168013871Y-61912500I-1326371J0D01*
G01*
X166687500Y-41536129D02*
X166687500Y-38882500D01*
X168013871Y-42862500D02*
G75*
G03X168013871Y-42862500I-1326371J0D01*
G01*
X147637500Y-79636129D02*
X147637500Y-76982500D01*
X148963871Y-80962500D02*
G75*
G03X148963871Y-80962500I-1326371J0D01*
G01*
X147637500Y-60586129D02*
X147637500Y-57932500D01*
X148963871Y-61912500D02*
G75*
G03X148963871Y-61912500I-1326371J0D01*
G01*
X147637500Y-41536129D02*
X147637500Y-38882500D01*
X148963871Y-42862500D02*
G75*
G03X148963871Y-42862500I-1326371J0D01*
G01*
X128587500Y-79636129D02*
X128587500Y-76982500D01*
X129913871Y-80962500D02*
G75*
G03X129913871Y-80962500I-1326371J0D01*
G01*
X128587500Y-60586129D02*
X128587500Y-57932500D01*
X129913871Y-61912500D02*
G75*
G03X129913871Y-61912500I-1326371J0D01*
G01*
X128587500Y-41536129D02*
X128587500Y-38882500D01*
X129913871Y-42862500D02*
G75*
G03X129913871Y-42862500I-1326371J0D01*
G01*
X109537500Y-79636129D02*
X109537500Y-76982500D01*
X110863871Y-80962500D02*
G75*
G03X110863871Y-80962500I-1326371J0D01*
G01*
X109537500Y-60586129D02*
X109537500Y-57932500D01*
X110863871Y-61912500D02*
G75*
G03X110863871Y-61912500I-1326371J0D01*
G01*
X109537500Y-41536129D02*
X109537500Y-38882500D01*
X110863871Y-42862500D02*
G75*
G03X110863871Y-42862500I-1326371J0D01*
G01*
D11*
X163544345Y-81389880D02*
X163544345Y-80389880D01*
X163544345Y-80866071D02*
X164115773Y-80866071D01*
X164115773Y-81389880D02*
X164115773Y-80389880D01*
X165068154Y-80389880D02*
X164591964Y-80389880D01*
X164544345Y-80866071D01*
X164591964Y-80818452D01*
X164687202Y-80770833D01*
X164925297Y-80770833D01*
X165020535Y-80818452D01*
X165068154Y-80866071D01*
X165115773Y-80961309D01*
X165115773Y-81199404D01*
X165068154Y-81294642D01*
X165020535Y-81342261D01*
X164925297Y-81389880D01*
X164687202Y-81389880D01*
X164591964Y-81342261D01*
X164544345Y-81294642D01*
X68294345Y-31383630D02*
X68294345Y-30383630D01*
X68294345Y-30859821D02*
X68865773Y-30859821D01*
X68865773Y-31383630D02*
X68865773Y-30383630D01*
X69770535Y-30716964D02*
X69770535Y-31383630D01*
X69532440Y-30336011D02*
X69294345Y-31050297D01*
X69913392Y-31050297D01*
X164338095Y-30589880D02*
X164338095Y-29589880D01*
X164338095Y-30066071D02*
X164909523Y-30066071D01*
X164909523Y-30589880D02*
X164909523Y-29589880D01*
X165290476Y-29589880D02*
X165909523Y-29589880D01*
X165576190Y-29970833D01*
X165719047Y-29970833D01*
X165814285Y-30018452D01*
X165861904Y-30066071D01*
X165909523Y-30161309D01*
X165909523Y-30399404D01*
X165861904Y-30494642D01*
X165814285Y-30542261D01*
X165719047Y-30589880D01*
X165433333Y-30589880D01*
X165338095Y-30542261D01*
X165290476Y-30494642D01*
X131794345Y-48052380D02*
X131794345Y-47052380D01*
X131794345Y-47528571D02*
X132365773Y-47528571D01*
X132365773Y-48052380D02*
X132365773Y-47052380D01*
X132794345Y-47147619D02*
X132841964Y-47100000D01*
X132937202Y-47052380D01*
X133175297Y-47052380D01*
X133270535Y-47100000D01*
X133318154Y-47147619D01*
X133365773Y-47242857D01*
X133365773Y-47338095D01*
X133318154Y-47480952D01*
X132746726Y-48052380D01*
X133365773Y-48052380D01*
X68294345Y-80596130D02*
X68294345Y-79596130D01*
X68294345Y-80072321D02*
X68865773Y-80072321D01*
X68865773Y-80596130D02*
X68865773Y-79596130D01*
X69865773Y-80596130D02*
X69294345Y-80596130D01*
X69580059Y-80596130D02*
X69580059Y-79596130D01*
X69484821Y-79738988D01*
X69389583Y-79834226D01*
X69294345Y-79881845D01*
X164813509Y-79636785D02*
X163813509Y-79636785D01*
X163813509Y-79398690D01*
X163861129Y-79255833D01*
X163956367Y-79160595D01*
X164051605Y-79112976D01*
X164242081Y-79065357D01*
X164384938Y-79065357D01*
X164575414Y-79112976D01*
X164670652Y-79160595D01*
X164765890Y-79255833D01*
X164813509Y-79398690D01*
X164813509Y-79636785D01*
X164813509Y-78112976D02*
X164813509Y-78684404D01*
X164813509Y-78398690D02*
X163813509Y-78398690D01*
X163956367Y-78493928D01*
X164051605Y-78589166D01*
X164099224Y-78684404D01*
X163908748Y-77732023D02*
X163861129Y-77684404D01*
X163813509Y-77589166D01*
X163813509Y-77351071D01*
X163861129Y-77255833D01*
X163908748Y-77208214D01*
X164003986Y-77160595D01*
X164099224Y-77160595D01*
X164242081Y-77208214D01*
X164813509Y-77779642D01*
X164813509Y-77160595D01*
X167654166Y-77620595D02*
X167654166Y-77144404D01*
X167939880Y-77715833D02*
X166939880Y-77382500D01*
X167939880Y-77049166D01*
X70211904Y-43230654D02*
X69830952Y-43497321D01*
X70211904Y-43687797D02*
X69411904Y-43687797D01*
X69411904Y-43383035D01*
X69450000Y-43306845D01*
X69488095Y-43268750D01*
X69564285Y-43230654D01*
X69678571Y-43230654D01*
X69754761Y-43268750D01*
X69792857Y-43306845D01*
X69830952Y-43383035D01*
X69830952Y-43687797D01*
X69792857Y-42887797D02*
X69792857Y-42621130D01*
X70211904Y-42506845D02*
X70211904Y-42887797D01*
X69411904Y-42887797D01*
X69411904Y-42506845D01*
X70173809Y-42202083D02*
X70211904Y-42087797D01*
X70211904Y-41897321D01*
X70173809Y-41821130D01*
X70135714Y-41783035D01*
X70059523Y-41744940D01*
X69983333Y-41744940D01*
X69907142Y-41783035D01*
X69869047Y-41821130D01*
X69830952Y-41897321D01*
X69792857Y-42049702D01*
X69754761Y-42125892D01*
X69716666Y-42163988D01*
X69640476Y-42202083D01*
X69564285Y-42202083D01*
X69488095Y-42163988D01*
X69450000Y-42125892D01*
X69411904Y-42049702D01*
X69411904Y-41859226D01*
X69450000Y-41744940D01*
X69792857Y-41402083D02*
X69792857Y-41135416D01*
X70211904Y-41021130D02*
X70211904Y-41402083D01*
X69411904Y-41402083D01*
X69411904Y-41021130D01*
X69411904Y-40792559D02*
X69411904Y-40335416D01*
X70211904Y-40563988D02*
X69411904Y-40563988D01*
X86626773Y-38144404D02*
X86626773Y-37344404D01*
X86817250Y-37344404D01*
X86931535Y-37382500D01*
X87007726Y-37458690D01*
X87045821Y-37534880D01*
X87083916Y-37687261D01*
X87083916Y-37801547D01*
X87045821Y-37953928D01*
X87007726Y-38030119D01*
X86931535Y-38106309D01*
X86817250Y-38144404D01*
X86626773Y-38144404D01*
X87388678Y-37420595D02*
X87426773Y-37382500D01*
X87502964Y-37344404D01*
X87693440Y-37344404D01*
X87769630Y-37382500D01*
X87807726Y-37420595D01*
X87845821Y-37496785D01*
X87845821Y-37572976D01*
X87807726Y-37687261D01*
X87350583Y-38144404D01*
X87845821Y-38144404D01*
X86626773Y-48304404D02*
X86626773Y-47504404D01*
X86817250Y-47504404D01*
X86931535Y-47542500D01*
X87007726Y-47618690D01*
X87045821Y-47694880D01*
X87083916Y-47847261D01*
X87083916Y-47961547D01*
X87045821Y-48113928D01*
X87007726Y-48190119D01*
X86931535Y-48266309D01*
X86817250Y-48304404D01*
X86626773Y-48304404D01*
X87579154Y-47504404D02*
X87655345Y-47504404D01*
X87731535Y-47542500D01*
X87769630Y-47580595D01*
X87807726Y-47656785D01*
X87845821Y-47809166D01*
X87845821Y-47999642D01*
X87807726Y-48152023D01*
X87769630Y-48228214D01*
X87731535Y-48266309D01*
X87655345Y-48304404D01*
X87579154Y-48304404D01*
X87502964Y-48266309D01*
X87464869Y-48228214D01*
X87426773Y-48152023D01*
X87388678Y-47999642D01*
X87388678Y-47809166D01*
X87426773Y-47656785D01*
X87464869Y-47580595D01*
X87502964Y-47542500D01*
X87579154Y-47504404D01*
X86626773Y-45764404D02*
X86626773Y-44964404D01*
X86817250Y-44964404D01*
X86931535Y-45002500D01*
X87007726Y-45078690D01*
X87045821Y-45154880D01*
X87083916Y-45307261D01*
X87083916Y-45421547D01*
X87045821Y-45573928D01*
X87007726Y-45650119D01*
X86931535Y-45726309D01*
X86817250Y-45764404D01*
X86626773Y-45764404D01*
X87845821Y-45764404D02*
X87388678Y-45764404D01*
X87617250Y-45764404D02*
X87617250Y-44964404D01*
X87541059Y-45078690D01*
X87464869Y-45154880D01*
X87388678Y-45192976D01*
X86607726Y-42462500D02*
X86531535Y-42424404D01*
X86417250Y-42424404D01*
X86302964Y-42462500D01*
X86226773Y-42538690D01*
X86188678Y-42614880D01*
X86150583Y-42767261D01*
X86150583Y-42881547D01*
X86188678Y-43033928D01*
X86226773Y-43110119D01*
X86302964Y-43186309D01*
X86417250Y-43224404D01*
X86493440Y-43224404D01*
X86607726Y-43186309D01*
X86645821Y-43148214D01*
X86645821Y-42881547D01*
X86493440Y-42881547D01*
X86988678Y-43224404D02*
X86988678Y-42424404D01*
X87445821Y-43224404D01*
X87445821Y-42424404D01*
X87826773Y-43224404D02*
X87826773Y-42424404D01*
X88017250Y-42424404D01*
X88131535Y-42462500D01*
X88207726Y-42538690D01*
X88245821Y-42614880D01*
X88283916Y-42767261D01*
X88283916Y-42881547D01*
X88245821Y-43033928D01*
X88207726Y-43110119D01*
X88131535Y-43186309D01*
X88017250Y-43224404D01*
X87826773Y-43224404D01*
X86607726Y-39922500D02*
X86531535Y-39884404D01*
X86417250Y-39884404D01*
X86302964Y-39922500D01*
X86226773Y-39998690D01*
X86188678Y-40074880D01*
X86150583Y-40227261D01*
X86150583Y-40341547D01*
X86188678Y-40493928D01*
X86226773Y-40570119D01*
X86302964Y-40646309D01*
X86417250Y-40684404D01*
X86493440Y-40684404D01*
X86607726Y-40646309D01*
X86645821Y-40608214D01*
X86645821Y-40341547D01*
X86493440Y-40341547D01*
X86988678Y-40684404D02*
X86988678Y-39884404D01*
X87445821Y-40684404D01*
X87445821Y-39884404D01*
X87826773Y-40684404D02*
X87826773Y-39884404D01*
X88017250Y-39884404D01*
X88131535Y-39922500D01*
X88207726Y-39998690D01*
X88245821Y-40074880D01*
X88283916Y-40227261D01*
X88283916Y-40341547D01*
X88245821Y-40493928D01*
X88207726Y-40570119D01*
X88131535Y-40646309D01*
X88017250Y-40684404D01*
X87826773Y-40684404D01*
X86626773Y-50844404D02*
X86626773Y-50044404D01*
X86817250Y-50044404D01*
X86931535Y-50082500D01*
X87007726Y-50158690D01*
X87045821Y-50234880D01*
X87083916Y-50387261D01*
X87083916Y-50501547D01*
X87045821Y-50653928D01*
X87007726Y-50730119D01*
X86931535Y-50806309D01*
X86817250Y-50844404D01*
X86626773Y-50844404D01*
X87769630Y-50311071D02*
X87769630Y-50844404D01*
X87579154Y-50006309D02*
X87388678Y-50577738D01*
X87883916Y-50577738D01*
X87083916Y-53308214D02*
X87045821Y-53346309D01*
X86931535Y-53384404D01*
X86855345Y-53384404D01*
X86741059Y-53346309D01*
X86664869Y-53270119D01*
X86626773Y-53193928D01*
X86588678Y-53041547D01*
X86588678Y-52927261D01*
X86626773Y-52774880D01*
X86664869Y-52698690D01*
X86741059Y-52622500D01*
X86855345Y-52584404D01*
X86931535Y-52584404D01*
X87045821Y-52622500D01*
X87083916Y-52660595D01*
X87769630Y-52584404D02*
X87617250Y-52584404D01*
X87541059Y-52622500D01*
X87502964Y-52660595D01*
X87426773Y-52774880D01*
X87388678Y-52927261D01*
X87388678Y-53232023D01*
X87426773Y-53308214D01*
X87464869Y-53346309D01*
X87541059Y-53384404D01*
X87693440Y-53384404D01*
X87769630Y-53346309D01*
X87807726Y-53308214D01*
X87845821Y-53232023D01*
X87845821Y-53041547D01*
X87807726Y-52965357D01*
X87769630Y-52927261D01*
X87693440Y-52889166D01*
X87541059Y-52889166D01*
X87464869Y-52927261D01*
X87426773Y-52965357D01*
X87388678Y-53041547D01*
X86626773Y-55924404D02*
X86626773Y-55124404D01*
X86817250Y-55124404D01*
X86931535Y-55162500D01*
X87007726Y-55238690D01*
X87045821Y-55314880D01*
X87083916Y-55467261D01*
X87083916Y-55581547D01*
X87045821Y-55733928D01*
X87007726Y-55810119D01*
X86931535Y-55886309D01*
X86817250Y-55924404D01*
X86626773Y-55924404D01*
X87350583Y-55124404D02*
X87883916Y-55124404D01*
X87541059Y-55924404D01*
X86664869Y-58045357D02*
X86931535Y-58045357D01*
X87045821Y-58464404D02*
X86664869Y-58464404D01*
X86664869Y-57664404D01*
X87045821Y-57664404D01*
X87731535Y-57664404D02*
X87579154Y-57664404D01*
X87502964Y-57702500D01*
X87464869Y-57740595D01*
X87388678Y-57854880D01*
X87350583Y-58007261D01*
X87350583Y-58312023D01*
X87388678Y-58388214D01*
X87426773Y-58426309D01*
X87502964Y-58464404D01*
X87655345Y-58464404D01*
X87731535Y-58426309D01*
X87769630Y-58388214D01*
X87807726Y-58312023D01*
X87807726Y-58121547D01*
X87769630Y-58045357D01*
X87731535Y-58007261D01*
X87655345Y-57969166D01*
X87502964Y-57969166D01*
X87426773Y-58007261D01*
X87388678Y-58045357D01*
X87350583Y-58121547D01*
X86893440Y-60585357D02*
X87007726Y-60623452D01*
X87045821Y-60661547D01*
X87083916Y-60737738D01*
X87083916Y-60852023D01*
X87045821Y-60928214D01*
X87007726Y-60966309D01*
X86931535Y-61004404D01*
X86626773Y-61004404D01*
X86626773Y-60204404D01*
X86893440Y-60204404D01*
X86969630Y-60242500D01*
X87007726Y-60280595D01*
X87045821Y-60356785D01*
X87045821Y-60432976D01*
X87007726Y-60509166D01*
X86969630Y-60547261D01*
X86893440Y-60585357D01*
X86626773Y-60585357D01*
X87769630Y-60471071D02*
X87769630Y-61004404D01*
X87579154Y-60166309D02*
X87388678Y-60737738D01*
X87883916Y-60737738D01*
X86893440Y-63125357D02*
X87007726Y-63163452D01*
X87045821Y-63201547D01*
X87083916Y-63277738D01*
X87083916Y-63392023D01*
X87045821Y-63468214D01*
X87007726Y-63506309D01*
X86931535Y-63544404D01*
X86626773Y-63544404D01*
X86626773Y-62744404D01*
X86893440Y-62744404D01*
X86969630Y-62782500D01*
X87007726Y-62820595D01*
X87045821Y-62896785D01*
X87045821Y-62972976D01*
X87007726Y-63049166D01*
X86969630Y-63087261D01*
X86893440Y-63125357D01*
X86626773Y-63125357D01*
X87807726Y-62744404D02*
X87426773Y-62744404D01*
X87388678Y-63125357D01*
X87426773Y-63087261D01*
X87502964Y-63049166D01*
X87693440Y-63049166D01*
X87769630Y-63087261D01*
X87807726Y-63125357D01*
X87845821Y-63201547D01*
X87845821Y-63392023D01*
X87807726Y-63468214D01*
X87769630Y-63506309D01*
X87693440Y-63544404D01*
X87502964Y-63544404D01*
X87426773Y-63506309D01*
X87388678Y-63468214D01*
X75971440Y-63125357D02*
X76085726Y-63163452D01*
X76123821Y-63201547D01*
X76161916Y-63277738D01*
X76161916Y-63392023D01*
X76123821Y-63468214D01*
X76085726Y-63506309D01*
X76009535Y-63544404D01*
X75704773Y-63544404D01*
X75704773Y-62744404D01*
X75971440Y-62744404D01*
X76047630Y-62782500D01*
X76085726Y-62820595D01*
X76123821Y-62896785D01*
X76123821Y-62972976D01*
X76085726Y-63049166D01*
X76047630Y-63087261D01*
X75971440Y-63125357D01*
X75704773Y-63125357D01*
X76847630Y-62744404D02*
X76695250Y-62744404D01*
X76619059Y-62782500D01*
X76580964Y-62820595D01*
X76504773Y-62934880D01*
X76466678Y-63087261D01*
X76466678Y-63392023D01*
X76504773Y-63468214D01*
X76542869Y-63506309D01*
X76619059Y-63544404D01*
X76771440Y-63544404D01*
X76847630Y-63506309D01*
X76885726Y-63468214D01*
X76923821Y-63392023D01*
X76923821Y-63201547D01*
X76885726Y-63125357D01*
X76847630Y-63087261D01*
X76771440Y-63049166D01*
X76619059Y-63049166D01*
X76542869Y-63087261D01*
X76504773Y-63125357D01*
X76466678Y-63201547D01*
X75971440Y-58045357D02*
X76085726Y-58083452D01*
X76123821Y-58121547D01*
X76161916Y-58197738D01*
X76161916Y-58312023D01*
X76123821Y-58388214D01*
X76085726Y-58426309D01*
X76009535Y-58464404D01*
X75704773Y-58464404D01*
X75704773Y-57664404D01*
X75971440Y-57664404D01*
X76047630Y-57702500D01*
X76085726Y-57740595D01*
X76123821Y-57816785D01*
X76123821Y-57892976D01*
X76085726Y-57969166D01*
X76047630Y-58007261D01*
X75971440Y-58045357D01*
X75704773Y-58045357D01*
X76428583Y-57664404D02*
X76923821Y-57664404D01*
X76657154Y-57969166D01*
X76771440Y-57969166D01*
X76847630Y-58007261D01*
X76885726Y-58045357D01*
X76923821Y-58121547D01*
X76923821Y-58312023D01*
X76885726Y-58388214D01*
X76847630Y-58426309D01*
X76771440Y-58464404D01*
X76542869Y-58464404D01*
X76466678Y-58426309D01*
X76428583Y-58388214D01*
X75971440Y-55505357D02*
X76085726Y-55543452D01*
X76123821Y-55581547D01*
X76161916Y-55657738D01*
X76161916Y-55772023D01*
X76123821Y-55848214D01*
X76085726Y-55886309D01*
X76009535Y-55924404D01*
X75704773Y-55924404D01*
X75704773Y-55124404D01*
X75971440Y-55124404D01*
X76047630Y-55162500D01*
X76085726Y-55200595D01*
X76123821Y-55276785D01*
X76123821Y-55352976D01*
X76085726Y-55429166D01*
X76047630Y-55467261D01*
X75971440Y-55505357D01*
X75704773Y-55505357D01*
X76923821Y-55924404D02*
X76466678Y-55924404D01*
X76695250Y-55924404D02*
X76695250Y-55124404D01*
X76619059Y-55238690D01*
X76542869Y-55314880D01*
X76466678Y-55352976D01*
X76028583Y-45345357D02*
X75761916Y-45345357D01*
X75761916Y-45764404D02*
X75761916Y-44964404D01*
X76142869Y-44964404D01*
X76790488Y-45231071D02*
X76790488Y-45764404D01*
X76600011Y-44926309D02*
X76409535Y-45497738D01*
X76904773Y-45497738D01*
X75228583Y-42424404D02*
X75495250Y-43224404D01*
X75761916Y-42424404D01*
X76485726Y-43148214D02*
X76447630Y-43186309D01*
X76333345Y-43224404D01*
X76257154Y-43224404D01*
X76142869Y-43186309D01*
X76066678Y-43110119D01*
X76028583Y-43033928D01*
X75990488Y-42881547D01*
X75990488Y-42767261D01*
X76028583Y-42614880D01*
X76066678Y-42538690D01*
X76142869Y-42462500D01*
X76257154Y-42424404D01*
X76333345Y-42424404D01*
X76447630Y-42462500D01*
X76485726Y-42500595D01*
X77285726Y-43148214D02*
X77247630Y-43186309D01*
X77133345Y-43224404D01*
X77057154Y-43224404D01*
X76942869Y-43186309D01*
X76866678Y-43110119D01*
X76828583Y-43033928D01*
X76790488Y-42881547D01*
X76790488Y-42767261D01*
X76828583Y-42614880D01*
X76866678Y-42538690D01*
X76942869Y-42462500D01*
X77057154Y-42424404D01*
X77133345Y-42424404D01*
X77247630Y-42462500D01*
X77285726Y-42500595D01*
X75685726Y-37382500D02*
X75609535Y-37344404D01*
X75495250Y-37344404D01*
X75380964Y-37382500D01*
X75304773Y-37458690D01*
X75266678Y-37534880D01*
X75228583Y-37687261D01*
X75228583Y-37801547D01*
X75266678Y-37953928D01*
X75304773Y-38030119D01*
X75380964Y-38106309D01*
X75495250Y-38144404D01*
X75571440Y-38144404D01*
X75685726Y-38106309D01*
X75723821Y-38068214D01*
X75723821Y-37801547D01*
X75571440Y-37801547D01*
X76066678Y-38144404D02*
X76066678Y-37344404D01*
X76523821Y-38144404D01*
X76523821Y-37344404D01*
X76904773Y-38144404D02*
X76904773Y-37344404D01*
X77095250Y-37344404D01*
X77209535Y-37382500D01*
X77285726Y-37458690D01*
X77323821Y-37534880D01*
X77361916Y-37687261D01*
X77361916Y-37801547D01*
X77323821Y-37953928D01*
X77285726Y-38030119D01*
X77209535Y-38106309D01*
X77095250Y-38144404D01*
X76904773Y-38144404D01*
X75742869Y-35604404D02*
X75476202Y-35223452D01*
X75285726Y-35604404D02*
X75285726Y-34804404D01*
X75590488Y-34804404D01*
X75666678Y-34842500D01*
X75704773Y-34880595D01*
X75742869Y-34956785D01*
X75742869Y-35071071D01*
X75704773Y-35147261D01*
X75666678Y-35185357D01*
X75590488Y-35223452D01*
X75285726Y-35223452D01*
X76047630Y-35375833D02*
X76428583Y-35375833D01*
X75971440Y-35604404D02*
X76238107Y-34804404D01*
X76504773Y-35604404D01*
X76695250Y-34804404D02*
X76885726Y-35604404D01*
X77038107Y-35032976D01*
X77190488Y-35604404D01*
X77380964Y-34804404D01*
X76028583Y-47885357D02*
X75761916Y-47885357D01*
X75761916Y-48304404D02*
X75761916Y-47504404D01*
X76142869Y-47504404D01*
X76828583Y-47504404D02*
X76447630Y-47504404D01*
X76409535Y-47885357D01*
X76447630Y-47847261D01*
X76523821Y-47809166D01*
X76714297Y-47809166D01*
X76790488Y-47847261D01*
X76828583Y-47885357D01*
X76866678Y-47961547D01*
X76866678Y-48152023D01*
X76828583Y-48228214D01*
X76790488Y-48266309D01*
X76714297Y-48304404D01*
X76523821Y-48304404D01*
X76447630Y-48266309D01*
X76409535Y-48228214D01*
X76028583Y-50425357D02*
X75761916Y-50425357D01*
X75761916Y-50844404D02*
X75761916Y-50044404D01*
X76142869Y-50044404D01*
X76790488Y-50044404D02*
X76638107Y-50044404D01*
X76561916Y-50082500D01*
X76523821Y-50120595D01*
X76447630Y-50234880D01*
X76409535Y-50387261D01*
X76409535Y-50692023D01*
X76447630Y-50768214D01*
X76485726Y-50806309D01*
X76561916Y-50844404D01*
X76714297Y-50844404D01*
X76790488Y-50806309D01*
X76828583Y-50768214D01*
X76866678Y-50692023D01*
X76866678Y-50501547D01*
X76828583Y-50425357D01*
X76790488Y-50387261D01*
X76714297Y-50349166D01*
X76561916Y-50349166D01*
X76485726Y-50387261D01*
X76447630Y-50425357D01*
X76409535Y-50501547D01*
X76028583Y-52965357D02*
X75761916Y-52965357D01*
X75761916Y-53384404D02*
X75761916Y-52584404D01*
X76142869Y-52584404D01*
X76371440Y-52584404D02*
X76904773Y-52584404D01*
X76561916Y-53384404D01*
X75971440Y-60585357D02*
X76085726Y-60623452D01*
X76123821Y-60661547D01*
X76161916Y-60737738D01*
X76161916Y-60852023D01*
X76123821Y-60928214D01*
X76085726Y-60966309D01*
X76009535Y-61004404D01*
X75704773Y-61004404D01*
X75704773Y-60204404D01*
X75971440Y-60204404D01*
X76047630Y-60242500D01*
X76085726Y-60280595D01*
X76123821Y-60356785D01*
X76123821Y-60432976D01*
X76085726Y-60509166D01*
X76047630Y-60547261D01*
X75971440Y-60585357D01*
X75704773Y-60585357D01*
X76466678Y-60280595D02*
X76504773Y-60242500D01*
X76580964Y-60204404D01*
X76771440Y-60204404D01*
X76847630Y-60242500D01*
X76885726Y-60280595D01*
X76923821Y-60356785D01*
X76923821Y-60432976D01*
X76885726Y-60547261D01*
X76428583Y-61004404D01*
X76923821Y-61004404D01*
X83137645Y-34804404D02*
X83594788Y-34804404D01*
X83366217Y-35604404D02*
X83366217Y-34804404D01*
X83785264Y-34804404D02*
X84318598Y-35604404D01*
X84318598Y-34804404D02*
X83785264Y-35604404D01*
X84775741Y-34804404D02*
X84851931Y-34804404D01*
X84928122Y-34842500D01*
X84966217Y-34880595D01*
X85004312Y-34956785D01*
X85042407Y-35109166D01*
X85042407Y-35299642D01*
X85004312Y-35452023D01*
X84966217Y-35528214D01*
X84928122Y-35566309D01*
X84851931Y-35604404D01*
X84775741Y-35604404D01*
X84699550Y-35566309D01*
X84661455Y-35528214D01*
X84623360Y-35452023D01*
X84585264Y-35299642D01*
X84585264Y-35109166D01*
X84623360Y-34956785D01*
X84661455Y-34880595D01*
X84699550Y-34842500D01*
X84775741Y-34804404D01*
X85956693Y-34766309D02*
X85270979Y-35794880D01*
X86223360Y-35604404D02*
X86223360Y-34804404D01*
X86413836Y-34804404D01*
X86528122Y-34842500D01*
X86604312Y-34918690D01*
X86642407Y-34994880D01*
X86680502Y-35147261D01*
X86680502Y-35261547D01*
X86642407Y-35413928D01*
X86604312Y-35490119D01*
X86528122Y-35566309D01*
X86413836Y-35604404D01*
X86223360Y-35604404D01*
X86947169Y-34804404D02*
X87442407Y-34804404D01*
X87175741Y-35109166D01*
X87290026Y-35109166D01*
X87366217Y-35147261D01*
X87404312Y-35185357D01*
X87442407Y-35261547D01*
X87442407Y-35452023D01*
X87404312Y-35528214D01*
X87366217Y-35566309D01*
X87290026Y-35604404D01*
X87061455Y-35604404D01*
X86985264Y-35566309D01*
X86947169Y-35528214D01*
X76182916Y-40626309D02*
X76297202Y-40664404D01*
X76487678Y-40664404D01*
X76563869Y-40626309D01*
X76601964Y-40588214D01*
X76640059Y-40512023D01*
X76640059Y-40435833D01*
X76601964Y-40359642D01*
X76563869Y-40321547D01*
X76487678Y-40283452D01*
X76335297Y-40245357D01*
X76259107Y-40207261D01*
X76221011Y-40169166D01*
X76182916Y-40092976D01*
X76182916Y-40016785D01*
X76221011Y-39940595D01*
X76259107Y-39902500D01*
X76335297Y-39864404D01*
X76525773Y-39864404D01*
X76640059Y-39902500D01*
X76868630Y-39864404D02*
X77325773Y-39864404D01*
X77097202Y-40664404D02*
X77097202Y-39864404D01*
X75722916Y-67023511D02*
X75865773Y-67071130D01*
X76103869Y-67071130D01*
X76199107Y-67023511D01*
X76246726Y-66975892D01*
X76294345Y-66880654D01*
X76294345Y-66785416D01*
X76246726Y-66690178D01*
X76199107Y-66642559D01*
X76103869Y-66594940D01*
X75913392Y-66547321D01*
X75818154Y-66499702D01*
X75770535Y-66452083D01*
X75722916Y-66356845D01*
X75722916Y-66261607D01*
X75770535Y-66166369D01*
X75818154Y-66118750D01*
X75913392Y-66071130D01*
X76151488Y-66071130D01*
X76294345Y-66118750D01*
X76627678Y-66071130D02*
X76865773Y-67071130D01*
X77056250Y-66356845D01*
X77246726Y-67071130D01*
X77484821Y-66071130D01*
X78389583Y-67071130D02*
X77818154Y-67071130D01*
X78103869Y-67071130D02*
X78103869Y-66071130D01*
X78008630Y-66213988D01*
X77913392Y-66309226D01*
X77818154Y-66356845D01*
X164813509Y-60586785D02*
X163813509Y-60586785D01*
X163813509Y-60348690D01*
X163861129Y-60205833D01*
X163956367Y-60110595D01*
X164051605Y-60062976D01*
X164242081Y-60015357D01*
X164384938Y-60015357D01*
X164575414Y-60062976D01*
X164670652Y-60110595D01*
X164765890Y-60205833D01*
X164813509Y-60348690D01*
X164813509Y-60586785D01*
X164813509Y-59062976D02*
X164813509Y-59634404D01*
X164813509Y-59348690D02*
X163813509Y-59348690D01*
X163956367Y-59443928D01*
X164051605Y-59539166D01*
X164099224Y-59634404D01*
X164813509Y-58110595D02*
X164813509Y-58682023D01*
X164813509Y-58396309D02*
X163813509Y-58396309D01*
X163956367Y-58491547D01*
X164051605Y-58586785D01*
X164099224Y-58682023D01*
X167654166Y-58570595D02*
X167654166Y-58094404D01*
X167939880Y-58665833D02*
X166939880Y-58332500D01*
X167939880Y-57999166D01*
X164813509Y-41536785D02*
X163813509Y-41536785D01*
X163813509Y-41298690D01*
X163861129Y-41155833D01*
X163956367Y-41060595D01*
X164051605Y-41012976D01*
X164242081Y-40965357D01*
X164384938Y-40965357D01*
X164575414Y-41012976D01*
X164670652Y-41060595D01*
X164765890Y-41155833D01*
X164813509Y-41298690D01*
X164813509Y-41536785D01*
X164813509Y-40012976D02*
X164813509Y-40584404D01*
X164813509Y-40298690D02*
X163813509Y-40298690D01*
X163956367Y-40393928D01*
X164051605Y-40489166D01*
X164099224Y-40584404D01*
X163813509Y-39393928D02*
X163813509Y-39298690D01*
X163861129Y-39203452D01*
X163908748Y-39155833D01*
X164003986Y-39108214D01*
X164194462Y-39060595D01*
X164432557Y-39060595D01*
X164623033Y-39108214D01*
X164718271Y-39155833D01*
X164765890Y-39203452D01*
X164813509Y-39298690D01*
X164813509Y-39393928D01*
X164765890Y-39489166D01*
X164718271Y-39536785D01*
X164623033Y-39584404D01*
X164432557Y-39632023D01*
X164194462Y-39632023D01*
X164003986Y-39584404D01*
X163908748Y-39536785D01*
X163861129Y-39489166D01*
X163813509Y-39393928D01*
X167654166Y-39520595D02*
X167654166Y-39044404D01*
X167939880Y-39615833D02*
X166939880Y-39282500D01*
X167939880Y-38949166D01*
X145763509Y-79160595D02*
X144763509Y-79160595D01*
X144763509Y-78922500D01*
X144811129Y-78779642D01*
X144906367Y-78684404D01*
X145001605Y-78636785D01*
X145192081Y-78589166D01*
X145334938Y-78589166D01*
X145525414Y-78636785D01*
X145620652Y-78684404D01*
X145715890Y-78779642D01*
X145763509Y-78922500D01*
X145763509Y-79160595D01*
X145763509Y-78112976D02*
X145763509Y-77922500D01*
X145715890Y-77827261D01*
X145668271Y-77779642D01*
X145525414Y-77684404D01*
X145334938Y-77636785D01*
X144953986Y-77636785D01*
X144858748Y-77684404D01*
X144811129Y-77732023D01*
X144763509Y-77827261D01*
X144763509Y-78017738D01*
X144811129Y-78112976D01*
X144858748Y-78160595D01*
X144953986Y-78208214D01*
X145192081Y-78208214D01*
X145287319Y-78160595D01*
X145334938Y-78112976D01*
X145382557Y-78017738D01*
X145382557Y-77827261D01*
X145334938Y-77732023D01*
X145287319Y-77684404D01*
X145192081Y-77636785D01*
X148604166Y-77620595D02*
X148604166Y-77144404D01*
X148889880Y-77715833D02*
X147889880Y-77382500D01*
X148889880Y-77049166D01*
X145763509Y-60110595D02*
X144763509Y-60110595D01*
X144763509Y-59872500D01*
X144811129Y-59729642D01*
X144906367Y-59634404D01*
X145001605Y-59586785D01*
X145192081Y-59539166D01*
X145334938Y-59539166D01*
X145525414Y-59586785D01*
X145620652Y-59634404D01*
X145715890Y-59729642D01*
X145763509Y-59872500D01*
X145763509Y-60110595D01*
X145192081Y-58967738D02*
X145144462Y-59062976D01*
X145096843Y-59110595D01*
X145001605Y-59158214D01*
X144953986Y-59158214D01*
X144858748Y-59110595D01*
X144811129Y-59062976D01*
X144763509Y-58967738D01*
X144763509Y-58777261D01*
X144811129Y-58682023D01*
X144858748Y-58634404D01*
X144953986Y-58586785D01*
X145001605Y-58586785D01*
X145096843Y-58634404D01*
X145144462Y-58682023D01*
X145192081Y-58777261D01*
X145192081Y-58967738D01*
X145239700Y-59062976D01*
X145287319Y-59110595D01*
X145382557Y-59158214D01*
X145573033Y-59158214D01*
X145668271Y-59110595D01*
X145715890Y-59062976D01*
X145763509Y-58967738D01*
X145763509Y-58777261D01*
X145715890Y-58682023D01*
X145668271Y-58634404D01*
X145573033Y-58586785D01*
X145382557Y-58586785D01*
X145287319Y-58634404D01*
X145239700Y-58682023D01*
X145192081Y-58777261D01*
X148604166Y-58570595D02*
X148604166Y-58094404D01*
X148889880Y-58665833D02*
X147889880Y-58332500D01*
X148889880Y-57999166D01*
X145763509Y-41060595D02*
X144763509Y-41060595D01*
X144763509Y-40822500D01*
X144811129Y-40679642D01*
X144906367Y-40584404D01*
X145001605Y-40536785D01*
X145192081Y-40489166D01*
X145334938Y-40489166D01*
X145525414Y-40536785D01*
X145620652Y-40584404D01*
X145715890Y-40679642D01*
X145763509Y-40822500D01*
X145763509Y-41060595D01*
X144763509Y-40155833D02*
X144763509Y-39489166D01*
X145763509Y-39917738D01*
X148604166Y-39520595D02*
X148604166Y-39044404D01*
X148889880Y-39615833D02*
X147889880Y-39282500D01*
X148889880Y-38949166D01*
X126713509Y-79160595D02*
X125713509Y-79160595D01*
X125713509Y-78922500D01*
X125761129Y-78779642D01*
X125856367Y-78684404D01*
X125951605Y-78636785D01*
X126142081Y-78589166D01*
X126284938Y-78589166D01*
X126475414Y-78636785D01*
X126570652Y-78684404D01*
X126665890Y-78779642D01*
X126713509Y-78922500D01*
X126713509Y-79160595D01*
X125713509Y-77732023D02*
X125713509Y-77922500D01*
X125761129Y-78017738D01*
X125808748Y-78065357D01*
X125951605Y-78160595D01*
X126142081Y-78208214D01*
X126523033Y-78208214D01*
X126618271Y-78160595D01*
X126665890Y-78112976D01*
X126713509Y-78017738D01*
X126713509Y-77827261D01*
X126665890Y-77732023D01*
X126618271Y-77684404D01*
X126523033Y-77636785D01*
X126284938Y-77636785D01*
X126189700Y-77684404D01*
X126142081Y-77732023D01*
X126094462Y-77827261D01*
X126094462Y-78017738D01*
X126142081Y-78112976D01*
X126189700Y-78160595D01*
X126284938Y-78208214D01*
X129554166Y-77620595D02*
X129554166Y-77144404D01*
X129839880Y-77715833D02*
X128839880Y-77382500D01*
X129839880Y-77049166D01*
X126713509Y-60110595D02*
X125713509Y-60110595D01*
X125713509Y-59872500D01*
X125761129Y-59729642D01*
X125856367Y-59634404D01*
X125951605Y-59586785D01*
X126142081Y-59539166D01*
X126284938Y-59539166D01*
X126475414Y-59586785D01*
X126570652Y-59634404D01*
X126665890Y-59729642D01*
X126713509Y-59872500D01*
X126713509Y-60110595D01*
X125713509Y-58634404D02*
X125713509Y-59110595D01*
X126189700Y-59158214D01*
X126142081Y-59110595D01*
X126094462Y-59015357D01*
X126094462Y-58777261D01*
X126142081Y-58682023D01*
X126189700Y-58634404D01*
X126284938Y-58586785D01*
X126523033Y-58586785D01*
X126618271Y-58634404D01*
X126665890Y-58682023D01*
X126713509Y-58777261D01*
X126713509Y-59015357D01*
X126665890Y-59110595D01*
X126618271Y-59158214D01*
X129554166Y-58570595D02*
X129554166Y-58094404D01*
X129839880Y-58665833D02*
X128839880Y-58332500D01*
X129839880Y-57999166D01*
X126713509Y-41060595D02*
X125713509Y-41060595D01*
X125713509Y-40822500D01*
X125761129Y-40679642D01*
X125856367Y-40584404D01*
X125951605Y-40536785D01*
X126142081Y-40489166D01*
X126284938Y-40489166D01*
X126475414Y-40536785D01*
X126570652Y-40584404D01*
X126665890Y-40679642D01*
X126713509Y-40822500D01*
X126713509Y-41060595D01*
X126046843Y-39632023D02*
X126713509Y-39632023D01*
X125665890Y-39870119D02*
X126380176Y-40108214D01*
X126380176Y-39489166D01*
X129554166Y-39520595D02*
X129554166Y-39044404D01*
X129839880Y-39615833D02*
X128839880Y-39282500D01*
X129839880Y-38949166D01*
X107663509Y-79160595D02*
X106663509Y-79160595D01*
X106663509Y-78922500D01*
X106711129Y-78779642D01*
X106806367Y-78684404D01*
X106901605Y-78636785D01*
X107092081Y-78589166D01*
X107234938Y-78589166D01*
X107425414Y-78636785D01*
X107520652Y-78684404D01*
X107615890Y-78779642D01*
X107663509Y-78922500D01*
X107663509Y-79160595D01*
X106663509Y-78255833D02*
X106663509Y-77636785D01*
X107044462Y-77970119D01*
X107044462Y-77827261D01*
X107092081Y-77732023D01*
X107139700Y-77684404D01*
X107234938Y-77636785D01*
X107473033Y-77636785D01*
X107568271Y-77684404D01*
X107615890Y-77732023D01*
X107663509Y-77827261D01*
X107663509Y-78112976D01*
X107615890Y-78208214D01*
X107568271Y-78255833D01*
X110504166Y-77620595D02*
X110504166Y-77144404D01*
X110789880Y-77715833D02*
X109789880Y-77382500D01*
X110789880Y-77049166D01*
X107663509Y-60110595D02*
X106663509Y-60110595D01*
X106663509Y-59872500D01*
X106711129Y-59729642D01*
X106806367Y-59634404D01*
X106901605Y-59586785D01*
X107092081Y-59539166D01*
X107234938Y-59539166D01*
X107425414Y-59586785D01*
X107520652Y-59634404D01*
X107615890Y-59729642D01*
X107663509Y-59872500D01*
X107663509Y-60110595D01*
X106758748Y-59158214D02*
X106711129Y-59110595D01*
X106663509Y-59015357D01*
X106663509Y-58777261D01*
X106711129Y-58682023D01*
X106758748Y-58634404D01*
X106853986Y-58586785D01*
X106949224Y-58586785D01*
X107092081Y-58634404D01*
X107663509Y-59205833D01*
X107663509Y-58586785D01*
X110504166Y-58570595D02*
X110504166Y-58094404D01*
X110789880Y-58665833D02*
X109789880Y-58332500D01*
X110789880Y-57999166D01*
X107663509Y-41060595D02*
X106663509Y-41060595D01*
X106663509Y-40822500D01*
X106711129Y-40679642D01*
X106806367Y-40584404D01*
X106901605Y-40536785D01*
X107092081Y-40489166D01*
X107234938Y-40489166D01*
X107425414Y-40536785D01*
X107520652Y-40584404D01*
X107615890Y-40679642D01*
X107663509Y-40822500D01*
X107663509Y-41060595D01*
X107663509Y-39536785D02*
X107663509Y-40108214D01*
X107663509Y-39822500D02*
X106663509Y-39822500D01*
X106806367Y-39917738D01*
X106901605Y-40012976D01*
X106949224Y-40108214D01*
X110504166Y-39520595D02*
X110504166Y-39044404D01*
X110789880Y-39615833D02*
X109789880Y-39282500D01*
X110789880Y-38949166D01*
M02*
