G04 #@! TF.GenerationSoftware,KiCad,Pcbnew,(5.1.4)-1*
G04 #@! TF.CreationDate,2021-01-23T00:36:45-05:00*
G04 #@! TF.ProjectId,macropad,6d616372-6f70-4616-942e-6b696361645f,rev?*
G04 #@! TF.SameCoordinates,Original*
G04 #@! TF.FileFunction,Copper,L1,Top*
G04 #@! TF.FilePolarity,Positive*
%FSLAX46Y46*%
G04 Gerber Fmt 4.6, Leading zero omitted, Abs format (unit mm)*
G04 Created by KiCad (PCBNEW (5.1.4)-1) date 2021-01-23 00:36:45*
%MOMM*%
%LPD*%
G04 APERTURE LIST*
%ADD10R,2.000000X2.000000*%
%ADD11C,2.000000*%
%ADD12O,2.000000X3.200000*%
%ADD13C,2.250000*%
%ADD14C,4.400000*%
%ADD15R,1.752600X1.752600*%
%ADD16C,1.752600*%
%ADD17O,1.600000X1.600000*%
%ADD18R,1.600000X1.600000*%
%ADD19C,0.254000*%
G04 APERTURE END LIST*
D10*
X172918750Y-71000000D03*
D11*
X175418750Y-71000000D03*
X177918750Y-71000000D03*
D12*
X169818750Y-63500000D03*
X181018750Y-63500000D03*
D11*
X172918750Y-56500000D03*
X177918750Y-56500000D03*
D10*
X115768750Y-71000000D03*
D11*
X118268750Y-71000000D03*
X120768750Y-71000000D03*
D12*
X112668750Y-63500000D03*
X123868750Y-63500000D03*
D11*
X115768750Y-56500000D03*
X120768750Y-56500000D03*
D13*
X177958750Y-96520000D03*
X171608750Y-99060000D03*
X177958750Y-77470000D03*
X171608750Y-80010000D03*
X177958750Y-58420000D03*
X171608750Y-60960000D03*
X158908750Y-96520000D03*
X152558750Y-99060000D03*
X158908750Y-77470000D03*
X152558750Y-80010000D03*
X158908750Y-58420000D03*
X152558750Y-60960000D03*
X139858750Y-96520000D03*
X133508750Y-99060000D03*
X139858750Y-77470000D03*
X133508750Y-80010000D03*
X139858750Y-58420000D03*
X133508750Y-60960000D03*
X120808750Y-96520000D03*
X114458750Y-99060000D03*
X120808750Y-77470000D03*
X114458750Y-80010000D03*
X120808750Y-58420000D03*
X114458750Y-60960000D03*
D14*
X270668750Y-107950000D03*
X194468750Y-107950000D03*
X270668750Y-57150000D03*
X194468750Y-57150000D03*
D11*
X148463000Y-65734000D03*
X148463000Y-59234000D03*
D15*
X129698750Y-58261250D03*
D16*
X129698750Y-60801250D03*
X129698750Y-63341250D03*
X129698750Y-65881250D03*
X129698750Y-68421250D03*
X129698750Y-70961250D03*
X129698750Y-73501250D03*
X129698750Y-76041250D03*
X129698750Y-78581250D03*
X129698750Y-81121250D03*
X129698750Y-83661250D03*
X144938750Y-86201250D03*
X144938750Y-83661250D03*
X144938750Y-81121250D03*
X144938750Y-78581250D03*
X144938750Y-76041250D03*
X144938750Y-73501250D03*
X144938750Y-70961250D03*
X144938750Y-68421250D03*
X144938750Y-65881250D03*
X144938750Y-63341250D03*
X144938750Y-60801250D03*
X129698750Y-86201250D03*
X144938750Y-58261250D03*
D14*
X184943750Y-107950000D03*
X108743750Y-107950000D03*
X184943750Y-57150000D03*
X108743750Y-57150000D03*
D17*
X176688750Y-107156250D03*
D18*
X169068750Y-107156250D03*
D17*
X176688750Y-88106250D03*
D18*
X169068750Y-88106250D03*
D17*
X180975000Y-66992500D03*
D18*
X180975000Y-74612500D03*
D17*
X164306250Y-99536250D03*
D18*
X164306250Y-107156250D03*
D17*
X164306250Y-80486250D03*
D18*
X164306250Y-88106250D03*
D17*
X164306250Y-61436250D03*
D18*
X164306250Y-69056250D03*
D17*
X145256250Y-99536250D03*
D18*
X145256250Y-107156250D03*
D17*
X148431250Y-80486250D03*
D18*
X148431250Y-88106250D03*
D17*
X141763750Y-90487500D03*
D18*
X134143750Y-90487500D03*
D17*
X126206250Y-99536250D03*
D18*
X126206250Y-107156250D03*
D17*
X121920000Y-90487500D03*
D18*
X114300000Y-90487500D03*
D17*
X123825000Y-66992500D03*
D18*
X123825000Y-74612500D03*
D19*
X127793750Y-88106250D02*
X129698750Y-86201250D01*
X127793750Y-104514750D02*
X127793750Y-88106250D01*
X126206250Y-107156250D02*
X126206250Y-106102250D01*
X126206250Y-106102250D02*
X127793750Y-104514750D01*
X142081250Y-67468750D02*
X139858750Y-65246250D01*
X142081250Y-78581250D02*
X142081250Y-67468750D01*
X140493750Y-80168750D02*
X142081250Y-78581250D01*
X140493750Y-88086130D02*
X140493750Y-80168750D01*
X141763750Y-90487500D02*
X141763750Y-89356130D01*
X141763750Y-89356130D02*
X140493750Y-88086130D01*
X139858750Y-65246250D02*
X139858750Y-58420000D01*
X127030725Y-80010000D02*
X114458750Y-80010000D01*
X128459475Y-78581250D02*
X127030725Y-80010000D01*
X129698750Y-78581250D02*
X128459475Y-78581250D01*
X110331250Y-94932500D02*
X114458750Y-99060000D01*
X110331250Y-82396510D02*
X110331250Y-94932500D01*
X114458750Y-80010000D02*
X112717760Y-80010000D01*
X112717760Y-80010000D02*
X110331250Y-82396510D01*
X114458750Y-57810000D02*
X115768750Y-56500000D01*
X114458750Y-60960000D02*
X114458750Y-57810000D01*
X114458750Y-64484250D02*
X114458750Y-60960000D01*
X113919000Y-65024000D02*
X114458750Y-64484250D01*
X113919000Y-77879260D02*
X113919000Y-65024000D01*
X114458750Y-78419010D02*
X114458750Y-80010000D01*
X113919000Y-77879260D02*
X114458750Y-78419010D01*
X133858000Y-61309250D02*
X133508750Y-60960000D01*
X133508750Y-80010000D02*
X133858000Y-79660750D01*
X133858000Y-79660750D02*
X133858000Y-61309250D01*
X134143750Y-80645000D02*
X133508750Y-80010000D01*
X133508750Y-99060000D02*
X132334000Y-97885250D01*
X132334000Y-97885250D02*
X132334000Y-85153500D01*
X133508750Y-83978750D02*
X133508750Y-80010000D01*
X132334000Y-85153500D02*
X133508750Y-83978750D01*
X153193750Y-79375000D02*
X152558750Y-80010000D01*
X152558750Y-60960000D02*
X153193750Y-61595000D01*
X152558750Y-60960000D02*
X152558750Y-80010000D01*
X152558750Y-80010000D02*
X152558750Y-99060000D01*
X171608750Y-98910000D02*
X171608750Y-99060000D01*
X172243750Y-98275000D02*
X171608750Y-98910000D01*
X171608750Y-60960000D02*
X171608750Y-68929250D01*
X170483751Y-78885001D02*
X171608750Y-80010000D01*
X170483751Y-70054249D02*
X170483751Y-78885001D01*
X171608750Y-68929250D02*
X170483751Y-70054249D01*
X171608750Y-80010000D02*
X171608750Y-99060000D01*
X171608750Y-80010000D02*
X172243750Y-80645000D01*
X115768750Y-72254000D02*
X116412750Y-72898000D01*
X115768750Y-71000000D02*
X115768750Y-72254000D01*
X126555500Y-72898000D02*
X129698750Y-76041250D01*
X116412750Y-72898000D02*
X126555500Y-72898000D01*
X127197500Y-71000000D02*
X129698750Y-73501250D01*
X120768750Y-71000000D02*
X127197500Y-71000000D01*
M02*
