G04 #@! TF.GenerationSoftware,KiCad,Pcbnew,(5.1.4)-1*
G04 #@! TF.CreationDate,2021-01-21T10:19:28-05:00*
G04 #@! TF.ProjectId,macropad,6d616372-6f70-4616-942e-6b696361645f,rev?*
G04 #@! TF.SameCoordinates,Original*
G04 #@! TF.FileFunction,Soldermask,Bot*
G04 #@! TF.FilePolarity,Negative*
%FSLAX46Y46*%
G04 Gerber Fmt 4.6, Leading zero omitted, Abs format (unit mm)*
G04 Created by KiCad (PCBNEW (5.1.4)-1) date 2021-01-21 10:19:28*
%MOMM*%
%LPD*%
G04 APERTURE LIST*
%ADD10C,0.100000*%
G04 APERTURE END LIST*
D10*
G36*
X270944630Y-105709776D02*
G01*
X271325343Y-105785504D01*
X271734999Y-105955189D01*
X272103679Y-106201534D01*
X272417216Y-106515071D01*
X272663561Y-106883751D01*
X272833246Y-107293407D01*
X272919750Y-107728296D01*
X272919750Y-108171704D01*
X272833246Y-108606593D01*
X272663561Y-109016249D01*
X272417216Y-109384929D01*
X272103679Y-109698466D01*
X271734999Y-109944811D01*
X271325343Y-110114496D01*
X270944630Y-110190224D01*
X270890455Y-110201000D01*
X270447045Y-110201000D01*
X270392870Y-110190224D01*
X270012157Y-110114496D01*
X269602501Y-109944811D01*
X269233821Y-109698466D01*
X268920284Y-109384929D01*
X268673939Y-109016249D01*
X268504254Y-108606593D01*
X268417750Y-108171704D01*
X268417750Y-107728296D01*
X268504254Y-107293407D01*
X268673939Y-106883751D01*
X268920284Y-106515071D01*
X269233821Y-106201534D01*
X269602501Y-105955189D01*
X270012157Y-105785504D01*
X270392870Y-105709776D01*
X270447045Y-105699000D01*
X270890455Y-105699000D01*
X270944630Y-105709776D01*
X270944630Y-105709776D01*
G37*
G36*
X194744630Y-105709776D02*
G01*
X195125343Y-105785504D01*
X195534999Y-105955189D01*
X195903679Y-106201534D01*
X196217216Y-106515071D01*
X196463561Y-106883751D01*
X196633246Y-107293407D01*
X196719750Y-107728296D01*
X196719750Y-108171704D01*
X196633246Y-108606593D01*
X196463561Y-109016249D01*
X196217216Y-109384929D01*
X195903679Y-109698466D01*
X195534999Y-109944811D01*
X195125343Y-110114496D01*
X194744630Y-110190224D01*
X194690455Y-110201000D01*
X194247045Y-110201000D01*
X194192870Y-110190224D01*
X193812157Y-110114496D01*
X193402501Y-109944811D01*
X193033821Y-109698466D01*
X192720284Y-109384929D01*
X192473939Y-109016249D01*
X192304254Y-108606593D01*
X192217750Y-108171704D01*
X192217750Y-107728296D01*
X192304254Y-107293407D01*
X192473939Y-106883751D01*
X192720284Y-106515071D01*
X193033821Y-106201534D01*
X193402501Y-105955189D01*
X193812157Y-105785504D01*
X194192870Y-105709776D01*
X194247045Y-105699000D01*
X194690455Y-105699000D01*
X194744630Y-105709776D01*
X194744630Y-105709776D01*
G37*
G36*
X109019630Y-105709776D02*
G01*
X109400343Y-105785504D01*
X109809999Y-105955189D01*
X110178679Y-106201534D01*
X110492216Y-106515071D01*
X110738561Y-106883751D01*
X110908246Y-107293407D01*
X110994750Y-107728296D01*
X110994750Y-108171704D01*
X110908246Y-108606593D01*
X110738561Y-109016249D01*
X110492216Y-109384929D01*
X110178679Y-109698466D01*
X109809999Y-109944811D01*
X109400343Y-110114496D01*
X109019630Y-110190224D01*
X108965455Y-110201000D01*
X108522045Y-110201000D01*
X108467870Y-110190224D01*
X108087157Y-110114496D01*
X107677501Y-109944811D01*
X107308821Y-109698466D01*
X106995284Y-109384929D01*
X106748939Y-109016249D01*
X106579254Y-108606593D01*
X106492750Y-108171704D01*
X106492750Y-107728296D01*
X106579254Y-107293407D01*
X106748939Y-106883751D01*
X106995284Y-106515071D01*
X107308821Y-106201534D01*
X107677501Y-105955189D01*
X108087157Y-105785504D01*
X108467870Y-105709776D01*
X108522045Y-105699000D01*
X108965455Y-105699000D01*
X109019630Y-105709776D01*
X109019630Y-105709776D01*
G37*
G36*
X185219630Y-105709776D02*
G01*
X185600343Y-105785504D01*
X186009999Y-105955189D01*
X186378679Y-106201534D01*
X186692216Y-106515071D01*
X186938561Y-106883751D01*
X187108246Y-107293407D01*
X187194750Y-107728296D01*
X187194750Y-108171704D01*
X187108246Y-108606593D01*
X186938561Y-109016249D01*
X186692216Y-109384929D01*
X186378679Y-109698466D01*
X186009999Y-109944811D01*
X185600343Y-110114496D01*
X185219630Y-110190224D01*
X185165455Y-110201000D01*
X184722045Y-110201000D01*
X184667870Y-110190224D01*
X184287157Y-110114496D01*
X183877501Y-109944811D01*
X183508821Y-109698466D01*
X183195284Y-109384929D01*
X182948939Y-109016249D01*
X182779254Y-108606593D01*
X182692750Y-108171704D01*
X182692750Y-107728296D01*
X182779254Y-107293407D01*
X182948939Y-106883751D01*
X183195284Y-106515071D01*
X183508821Y-106201534D01*
X183877501Y-105955189D01*
X184287157Y-105785504D01*
X184667870Y-105709776D01*
X184722045Y-105699000D01*
X185165455Y-105699000D01*
X185219630Y-105709776D01*
X185219630Y-105709776D01*
G37*
G36*
X127057250Y-108007250D02*
G01*
X125355250Y-108007250D01*
X125355250Y-106305250D01*
X127057250Y-106305250D01*
X127057250Y-108007250D01*
X127057250Y-108007250D01*
G37*
G36*
X165157250Y-108007250D02*
G01*
X163455250Y-108007250D01*
X163455250Y-106305250D01*
X165157250Y-106305250D01*
X165157250Y-108007250D01*
X165157250Y-108007250D01*
G37*
G36*
X146107250Y-108007250D02*
G01*
X144405250Y-108007250D01*
X144405250Y-106305250D01*
X146107250Y-106305250D01*
X146107250Y-108007250D01*
X146107250Y-108007250D01*
G37*
G36*
X176855573Y-105523813D02*
G01*
X177015992Y-105572476D01*
X177068795Y-105600700D01*
X177163828Y-105651496D01*
X177293409Y-105757841D01*
X177399754Y-105887422D01*
X177399755Y-105887424D01*
X177478774Y-106035258D01*
X177527437Y-106195677D01*
X177543867Y-106362500D01*
X177527437Y-106529323D01*
X177478774Y-106689742D01*
X177407864Y-106822406D01*
X177399754Y-106837578D01*
X177293409Y-106967159D01*
X177163828Y-107073504D01*
X177163826Y-107073505D01*
X177015992Y-107152524D01*
X176855573Y-107201187D01*
X176730554Y-107213500D01*
X176646946Y-107213500D01*
X176521927Y-107201187D01*
X176361508Y-107152524D01*
X176213674Y-107073505D01*
X176213672Y-107073504D01*
X176084091Y-106967159D01*
X175977746Y-106837578D01*
X175969636Y-106822406D01*
X175898726Y-106689742D01*
X175850063Y-106529323D01*
X175833633Y-106362500D01*
X175850063Y-106195677D01*
X175898726Y-106035258D01*
X175977745Y-105887424D01*
X175977746Y-105887422D01*
X176084091Y-105757841D01*
X176213672Y-105651496D01*
X176308705Y-105600700D01*
X176361508Y-105572476D01*
X176521927Y-105523813D01*
X176646946Y-105511500D01*
X176730554Y-105511500D01*
X176855573Y-105523813D01*
X176855573Y-105523813D01*
G37*
G36*
X169919750Y-107213500D02*
G01*
X168217750Y-107213500D01*
X168217750Y-105511500D01*
X169919750Y-105511500D01*
X169919750Y-107213500D01*
X169919750Y-107213500D01*
G37*
G36*
X188756464Y-104728389D02*
G01*
X188837395Y-104761912D01*
X188910230Y-104810579D01*
X188972171Y-104872520D01*
X189020838Y-104945355D01*
X189054361Y-105026286D01*
X189071450Y-105112201D01*
X189071450Y-105199799D01*
X189054361Y-105285714D01*
X189020838Y-105366645D01*
X188972171Y-105439480D01*
X188910230Y-105501421D01*
X188837395Y-105550088D01*
X188837394Y-105550089D01*
X188837393Y-105550089D01*
X188756464Y-105583611D01*
X188670551Y-105600700D01*
X188582949Y-105600700D01*
X188497036Y-105583611D01*
X188416107Y-105550089D01*
X188416106Y-105550089D01*
X188416105Y-105550088D01*
X188343270Y-105501421D01*
X188281329Y-105439480D01*
X188232662Y-105366645D01*
X188199139Y-105285714D01*
X188182050Y-105199799D01*
X188182050Y-105112201D01*
X188199139Y-105026286D01*
X188232662Y-104945355D01*
X188281329Y-104872520D01*
X188343270Y-104810579D01*
X188416105Y-104761912D01*
X188497036Y-104728389D01*
X188582949Y-104711300D01*
X188670551Y-104711300D01*
X188756464Y-104728389D01*
X188756464Y-104728389D01*
G37*
G36*
X190915464Y-104728389D02*
G01*
X190996395Y-104761912D01*
X191069230Y-104810579D01*
X191131171Y-104872520D01*
X191179838Y-104945355D01*
X191213361Y-105026286D01*
X191230450Y-105112201D01*
X191230450Y-105199799D01*
X191213361Y-105285714D01*
X191179838Y-105366645D01*
X191131171Y-105439480D01*
X191069230Y-105501421D01*
X190996395Y-105550088D01*
X190996394Y-105550089D01*
X190996393Y-105550089D01*
X190915464Y-105583611D01*
X190829551Y-105600700D01*
X190741949Y-105600700D01*
X190656036Y-105583611D01*
X190575107Y-105550089D01*
X190575106Y-105550089D01*
X190575105Y-105550088D01*
X190502270Y-105501421D01*
X190440329Y-105439480D01*
X190391662Y-105366645D01*
X190358139Y-105285714D01*
X190341050Y-105199799D01*
X190341050Y-105112201D01*
X190358139Y-105026286D01*
X190391662Y-104945355D01*
X190440329Y-104872520D01*
X190502270Y-104810579D01*
X190575105Y-104761912D01*
X190656036Y-104728389D01*
X190741949Y-104711300D01*
X190829551Y-104711300D01*
X190915464Y-104728389D01*
X190915464Y-104728389D01*
G37*
G36*
X188756464Y-103458389D02*
G01*
X188837395Y-103491912D01*
X188910230Y-103540579D01*
X188972171Y-103602520D01*
X189020838Y-103675355D01*
X189054361Y-103756286D01*
X189071450Y-103842201D01*
X189071450Y-103929799D01*
X189054361Y-104015714D01*
X189020838Y-104096645D01*
X188972171Y-104169480D01*
X188910230Y-104231421D01*
X188837395Y-104280088D01*
X188837394Y-104280089D01*
X188837393Y-104280089D01*
X188756464Y-104313611D01*
X188670551Y-104330700D01*
X188582949Y-104330700D01*
X188497036Y-104313611D01*
X188416107Y-104280089D01*
X188416106Y-104280089D01*
X188416105Y-104280088D01*
X188343270Y-104231421D01*
X188281329Y-104169480D01*
X188232662Y-104096645D01*
X188199139Y-104015714D01*
X188182050Y-103929799D01*
X188182050Y-103842201D01*
X188199139Y-103756286D01*
X188232662Y-103675355D01*
X188281329Y-103602520D01*
X188343270Y-103540579D01*
X188416105Y-103491912D01*
X188497036Y-103458389D01*
X188582949Y-103441300D01*
X188670551Y-103441300D01*
X188756464Y-103458389D01*
X188756464Y-103458389D01*
G37*
G36*
X190915464Y-103458389D02*
G01*
X190996395Y-103491912D01*
X191069230Y-103540579D01*
X191131171Y-103602520D01*
X191179838Y-103675355D01*
X191213361Y-103756286D01*
X191230450Y-103842201D01*
X191230450Y-103929799D01*
X191213361Y-104015714D01*
X191179838Y-104096645D01*
X191131171Y-104169480D01*
X191069230Y-104231421D01*
X190996395Y-104280088D01*
X190996394Y-104280089D01*
X190996393Y-104280089D01*
X190915464Y-104313611D01*
X190829551Y-104330700D01*
X190741949Y-104330700D01*
X190656036Y-104313611D01*
X190575107Y-104280089D01*
X190575106Y-104280089D01*
X190575105Y-104280088D01*
X190502270Y-104231421D01*
X190440329Y-104169480D01*
X190391662Y-104096645D01*
X190358139Y-104015714D01*
X190341050Y-103929799D01*
X190341050Y-103842201D01*
X190358139Y-103756286D01*
X190391662Y-103675355D01*
X190440329Y-103602520D01*
X190502270Y-103540579D01*
X190575105Y-103491912D01*
X190656036Y-103458389D01*
X190741949Y-103441300D01*
X190829551Y-103441300D01*
X190915464Y-103458389D01*
X190915464Y-103458389D01*
G37*
G36*
X137915224Y-99633684D02*
G01*
X138082748Y-99703075D01*
X138287373Y-99787833D01*
X138622298Y-100011623D01*
X138907127Y-100296452D01*
X139130917Y-100631377D01*
X139163312Y-100709586D01*
X139285066Y-101003526D01*
X139363650Y-101398594D01*
X139363650Y-101801406D01*
X139285066Y-102196474D01*
X139198544Y-102405357D01*
X139130917Y-102568623D01*
X138907127Y-102903548D01*
X138622298Y-103188377D01*
X138287373Y-103412167D01*
X138133224Y-103476017D01*
X137915224Y-103566316D01*
X137520156Y-103644900D01*
X137117344Y-103644900D01*
X136722276Y-103566316D01*
X136504276Y-103476017D01*
X136350127Y-103412167D01*
X136015202Y-103188377D01*
X135730373Y-102903548D01*
X135506583Y-102568623D01*
X135438956Y-102405357D01*
X135352434Y-102196474D01*
X135273850Y-101801406D01*
X135273850Y-101398594D01*
X135352434Y-101003526D01*
X135474188Y-100709586D01*
X135506583Y-100631377D01*
X135730373Y-100296452D01*
X136015202Y-100011623D01*
X136350127Y-99787833D01*
X136554752Y-99703075D01*
X136722276Y-99633684D01*
X137117344Y-99555100D01*
X137520156Y-99555100D01*
X137915224Y-99633684D01*
X137915224Y-99633684D01*
G37*
G36*
X156965224Y-99633684D02*
G01*
X157132748Y-99703075D01*
X157337373Y-99787833D01*
X157672298Y-100011623D01*
X157957127Y-100296452D01*
X158180917Y-100631377D01*
X158213312Y-100709586D01*
X158335066Y-101003526D01*
X158413650Y-101398594D01*
X158413650Y-101801406D01*
X158335066Y-102196474D01*
X158248544Y-102405357D01*
X158180917Y-102568623D01*
X157957127Y-102903548D01*
X157672298Y-103188377D01*
X157337373Y-103412167D01*
X157183224Y-103476017D01*
X156965224Y-103566316D01*
X156570156Y-103644900D01*
X156167344Y-103644900D01*
X155772276Y-103566316D01*
X155554276Y-103476017D01*
X155400127Y-103412167D01*
X155065202Y-103188377D01*
X154780373Y-102903548D01*
X154556583Y-102568623D01*
X154488956Y-102405357D01*
X154402434Y-102196474D01*
X154323850Y-101801406D01*
X154323850Y-101398594D01*
X154402434Y-101003526D01*
X154524188Y-100709586D01*
X154556583Y-100631377D01*
X154780373Y-100296452D01*
X155065202Y-100011623D01*
X155400127Y-99787833D01*
X155604752Y-99703075D01*
X155772276Y-99633684D01*
X156167344Y-99555100D01*
X156570156Y-99555100D01*
X156965224Y-99633684D01*
X156965224Y-99633684D01*
G37*
G36*
X118865224Y-99633684D02*
G01*
X119032748Y-99703075D01*
X119237373Y-99787833D01*
X119572298Y-100011623D01*
X119857127Y-100296452D01*
X120080917Y-100631377D01*
X120113312Y-100709586D01*
X120235066Y-101003526D01*
X120313650Y-101398594D01*
X120313650Y-101801406D01*
X120235066Y-102196474D01*
X120148544Y-102405357D01*
X120080917Y-102568623D01*
X119857127Y-102903548D01*
X119572298Y-103188377D01*
X119237373Y-103412167D01*
X119083224Y-103476017D01*
X118865224Y-103566316D01*
X118470156Y-103644900D01*
X118067344Y-103644900D01*
X117672276Y-103566316D01*
X117454276Y-103476017D01*
X117300127Y-103412167D01*
X116965202Y-103188377D01*
X116680373Y-102903548D01*
X116456583Y-102568623D01*
X116388956Y-102405357D01*
X116302434Y-102196474D01*
X116223850Y-101801406D01*
X116223850Y-101398594D01*
X116302434Y-101003526D01*
X116424188Y-100709586D01*
X116456583Y-100631377D01*
X116680373Y-100296452D01*
X116965202Y-100011623D01*
X117300127Y-99787833D01*
X117504752Y-99703075D01*
X117672276Y-99633684D01*
X118067344Y-99555100D01*
X118470156Y-99555100D01*
X118865224Y-99633684D01*
X118865224Y-99633684D01*
G37*
G36*
X176015224Y-99633684D02*
G01*
X176182748Y-99703075D01*
X176387373Y-99787833D01*
X176722298Y-100011623D01*
X177007127Y-100296452D01*
X177230917Y-100631377D01*
X177263312Y-100709586D01*
X177385066Y-101003526D01*
X177463650Y-101398594D01*
X177463650Y-101801406D01*
X177385066Y-102196474D01*
X177298544Y-102405357D01*
X177230917Y-102568623D01*
X177007127Y-102903548D01*
X176722298Y-103188377D01*
X176387373Y-103412167D01*
X176233224Y-103476017D01*
X176015224Y-103566316D01*
X175620156Y-103644900D01*
X175217344Y-103644900D01*
X174822276Y-103566316D01*
X174604276Y-103476017D01*
X174450127Y-103412167D01*
X174115202Y-103188377D01*
X173830373Y-102903548D01*
X173606583Y-102568623D01*
X173538956Y-102405357D01*
X173452434Y-102196474D01*
X173373850Y-101801406D01*
X173373850Y-101398594D01*
X173452434Y-101003526D01*
X173574188Y-100709586D01*
X173606583Y-100631377D01*
X173830373Y-100296452D01*
X174115202Y-100011623D01*
X174450127Y-99787833D01*
X174654752Y-99703075D01*
X174822276Y-99633684D01*
X175217344Y-99555100D01*
X175620156Y-99555100D01*
X176015224Y-99633684D01*
X176015224Y-99633684D01*
G37*
G36*
X188756464Y-102188389D02*
G01*
X188837395Y-102221912D01*
X188910230Y-102270579D01*
X188972171Y-102332520D01*
X188972172Y-102332522D01*
X189020839Y-102405357D01*
X189054361Y-102486286D01*
X189070739Y-102568623D01*
X189071450Y-102572201D01*
X189071450Y-102659799D01*
X189054361Y-102745714D01*
X189020838Y-102826645D01*
X188972171Y-102899480D01*
X188910230Y-102961421D01*
X188837395Y-103010088D01*
X188837394Y-103010089D01*
X188837393Y-103010089D01*
X188756464Y-103043611D01*
X188670551Y-103060700D01*
X188582949Y-103060700D01*
X188497036Y-103043611D01*
X188416107Y-103010089D01*
X188416106Y-103010089D01*
X188416105Y-103010088D01*
X188343270Y-102961421D01*
X188281329Y-102899480D01*
X188232662Y-102826645D01*
X188199139Y-102745714D01*
X188182050Y-102659799D01*
X188182050Y-102572201D01*
X188182762Y-102568623D01*
X188199139Y-102486286D01*
X188232661Y-102405357D01*
X188281328Y-102332522D01*
X188281329Y-102332520D01*
X188343270Y-102270579D01*
X188416105Y-102221912D01*
X188497036Y-102188389D01*
X188582949Y-102171300D01*
X188670551Y-102171300D01*
X188756464Y-102188389D01*
X188756464Y-102188389D01*
G37*
G36*
X190915464Y-102188389D02*
G01*
X190996395Y-102221912D01*
X191069230Y-102270579D01*
X191131171Y-102332520D01*
X191131172Y-102332522D01*
X191179839Y-102405357D01*
X191213361Y-102486286D01*
X191229739Y-102568623D01*
X191230450Y-102572201D01*
X191230450Y-102659799D01*
X191213361Y-102745714D01*
X191179838Y-102826645D01*
X191131171Y-102899480D01*
X191069230Y-102961421D01*
X190996395Y-103010088D01*
X190996394Y-103010089D01*
X190996393Y-103010089D01*
X190915464Y-103043611D01*
X190829551Y-103060700D01*
X190741949Y-103060700D01*
X190656036Y-103043611D01*
X190575107Y-103010089D01*
X190575106Y-103010089D01*
X190575105Y-103010088D01*
X190502270Y-102961421D01*
X190440329Y-102899480D01*
X190391662Y-102826645D01*
X190358139Y-102745714D01*
X190341050Y-102659799D01*
X190341050Y-102572201D01*
X190341762Y-102568623D01*
X190358139Y-102486286D01*
X190391661Y-102405357D01*
X190440328Y-102332522D01*
X190440329Y-102332520D01*
X190502270Y-102270579D01*
X190575105Y-102221912D01*
X190656036Y-102188389D01*
X190741949Y-102171300D01*
X190829551Y-102171300D01*
X190915464Y-102188389D01*
X190915464Y-102188389D01*
G37*
G36*
X132508854Y-100709585D02*
G01*
X132677376Y-100779389D01*
X132829041Y-100880728D01*
X132958022Y-101009709D01*
X133059361Y-101161374D01*
X133129165Y-101329896D01*
X133164750Y-101508797D01*
X133164750Y-101691203D01*
X133129165Y-101870104D01*
X133059361Y-102038626D01*
X132958022Y-102190291D01*
X132829041Y-102319272D01*
X132677376Y-102420611D01*
X132508854Y-102490415D01*
X132329953Y-102526000D01*
X132147547Y-102526000D01*
X131968646Y-102490415D01*
X131800124Y-102420611D01*
X131648459Y-102319272D01*
X131519478Y-102190291D01*
X131418139Y-102038626D01*
X131348335Y-101870104D01*
X131312750Y-101691203D01*
X131312750Y-101508797D01*
X131348335Y-101329896D01*
X131418139Y-101161374D01*
X131519478Y-101009709D01*
X131648459Y-100880728D01*
X131800124Y-100779389D01*
X131968646Y-100709585D01*
X132147547Y-100674000D01*
X132329953Y-100674000D01*
X132508854Y-100709585D01*
X132508854Y-100709585D01*
G37*
G36*
X113458854Y-100709585D02*
G01*
X113627376Y-100779389D01*
X113779041Y-100880728D01*
X113908022Y-101009709D01*
X114009361Y-101161374D01*
X114079165Y-101329896D01*
X114114750Y-101508797D01*
X114114750Y-101691203D01*
X114079165Y-101870104D01*
X114009361Y-102038626D01*
X113908022Y-102190291D01*
X113779041Y-102319272D01*
X113627376Y-102420611D01*
X113458854Y-102490415D01*
X113279953Y-102526000D01*
X113097547Y-102526000D01*
X112918646Y-102490415D01*
X112750124Y-102420611D01*
X112598459Y-102319272D01*
X112469478Y-102190291D01*
X112368139Y-102038626D01*
X112298335Y-101870104D01*
X112262750Y-101691203D01*
X112262750Y-101508797D01*
X112298335Y-101329896D01*
X112368139Y-101161374D01*
X112469478Y-101009709D01*
X112598459Y-100880728D01*
X112750124Y-100779389D01*
X112918646Y-100709585D01*
X113097547Y-100674000D01*
X113279953Y-100674000D01*
X113458854Y-100709585D01*
X113458854Y-100709585D01*
G37*
G36*
X123618854Y-100709585D02*
G01*
X123787376Y-100779389D01*
X123939041Y-100880728D01*
X124068022Y-101009709D01*
X124169361Y-101161374D01*
X124239165Y-101329896D01*
X124274750Y-101508797D01*
X124274750Y-101691203D01*
X124239165Y-101870104D01*
X124169361Y-102038626D01*
X124068022Y-102190291D01*
X123939041Y-102319272D01*
X123787376Y-102420611D01*
X123618854Y-102490415D01*
X123439953Y-102526000D01*
X123257547Y-102526000D01*
X123078646Y-102490415D01*
X122910124Y-102420611D01*
X122758459Y-102319272D01*
X122629478Y-102190291D01*
X122528139Y-102038626D01*
X122458335Y-101870104D01*
X122422750Y-101691203D01*
X122422750Y-101508797D01*
X122458335Y-101329896D01*
X122528139Y-101161374D01*
X122629478Y-101009709D01*
X122758459Y-100880728D01*
X122910124Y-100779389D01*
X123078646Y-100709585D01*
X123257547Y-100674000D01*
X123439953Y-100674000D01*
X123618854Y-100709585D01*
X123618854Y-100709585D01*
G37*
G36*
X142668854Y-100709585D02*
G01*
X142837376Y-100779389D01*
X142989041Y-100880728D01*
X143118022Y-101009709D01*
X143219361Y-101161374D01*
X143289165Y-101329896D01*
X143324750Y-101508797D01*
X143324750Y-101691203D01*
X143289165Y-101870104D01*
X143219361Y-102038626D01*
X143118022Y-102190291D01*
X142989041Y-102319272D01*
X142837376Y-102420611D01*
X142668854Y-102490415D01*
X142489953Y-102526000D01*
X142307547Y-102526000D01*
X142128646Y-102490415D01*
X141960124Y-102420611D01*
X141808459Y-102319272D01*
X141679478Y-102190291D01*
X141578139Y-102038626D01*
X141508335Y-101870104D01*
X141472750Y-101691203D01*
X141472750Y-101508797D01*
X141508335Y-101329896D01*
X141578139Y-101161374D01*
X141679478Y-101009709D01*
X141808459Y-100880728D01*
X141960124Y-100779389D01*
X142128646Y-100709585D01*
X142307547Y-100674000D01*
X142489953Y-100674000D01*
X142668854Y-100709585D01*
X142668854Y-100709585D01*
G37*
G36*
X151558854Y-100709585D02*
G01*
X151727376Y-100779389D01*
X151879041Y-100880728D01*
X152008022Y-101009709D01*
X152109361Y-101161374D01*
X152179165Y-101329896D01*
X152214750Y-101508797D01*
X152214750Y-101691203D01*
X152179165Y-101870104D01*
X152109361Y-102038626D01*
X152008022Y-102190291D01*
X151879041Y-102319272D01*
X151727376Y-102420611D01*
X151558854Y-102490415D01*
X151379953Y-102526000D01*
X151197547Y-102526000D01*
X151018646Y-102490415D01*
X150850124Y-102420611D01*
X150698459Y-102319272D01*
X150569478Y-102190291D01*
X150468139Y-102038626D01*
X150398335Y-101870104D01*
X150362750Y-101691203D01*
X150362750Y-101508797D01*
X150398335Y-101329896D01*
X150468139Y-101161374D01*
X150569478Y-101009709D01*
X150698459Y-100880728D01*
X150850124Y-100779389D01*
X151018646Y-100709585D01*
X151197547Y-100674000D01*
X151379953Y-100674000D01*
X151558854Y-100709585D01*
X151558854Y-100709585D01*
G37*
G36*
X161718854Y-100709585D02*
G01*
X161887376Y-100779389D01*
X162039041Y-100880728D01*
X162168022Y-101009709D01*
X162269361Y-101161374D01*
X162339165Y-101329896D01*
X162374750Y-101508797D01*
X162374750Y-101691203D01*
X162339165Y-101870104D01*
X162269361Y-102038626D01*
X162168022Y-102190291D01*
X162039041Y-102319272D01*
X161887376Y-102420611D01*
X161718854Y-102490415D01*
X161539953Y-102526000D01*
X161357547Y-102526000D01*
X161178646Y-102490415D01*
X161010124Y-102420611D01*
X160858459Y-102319272D01*
X160729478Y-102190291D01*
X160628139Y-102038626D01*
X160558335Y-101870104D01*
X160522750Y-101691203D01*
X160522750Y-101508797D01*
X160558335Y-101329896D01*
X160628139Y-101161374D01*
X160729478Y-101009709D01*
X160858459Y-100880728D01*
X161010124Y-100779389D01*
X161178646Y-100709585D01*
X161357547Y-100674000D01*
X161539953Y-100674000D01*
X161718854Y-100709585D01*
X161718854Y-100709585D01*
G37*
G36*
X170608854Y-100709585D02*
G01*
X170777376Y-100779389D01*
X170929041Y-100880728D01*
X171058022Y-101009709D01*
X171159361Y-101161374D01*
X171229165Y-101329896D01*
X171264750Y-101508797D01*
X171264750Y-101691203D01*
X171229165Y-101870104D01*
X171159361Y-102038626D01*
X171058022Y-102190291D01*
X170929041Y-102319272D01*
X170777376Y-102420611D01*
X170608854Y-102490415D01*
X170429953Y-102526000D01*
X170247547Y-102526000D01*
X170068646Y-102490415D01*
X169900124Y-102420611D01*
X169748459Y-102319272D01*
X169619478Y-102190291D01*
X169518139Y-102038626D01*
X169448335Y-101870104D01*
X169412750Y-101691203D01*
X169412750Y-101508797D01*
X169448335Y-101329896D01*
X169518139Y-101161374D01*
X169619478Y-101009709D01*
X169748459Y-100880728D01*
X169900124Y-100779389D01*
X170068646Y-100709585D01*
X170247547Y-100674000D01*
X170429953Y-100674000D01*
X170608854Y-100709585D01*
X170608854Y-100709585D01*
G37*
G36*
X180768854Y-100709585D02*
G01*
X180937376Y-100779389D01*
X181089041Y-100880728D01*
X181218022Y-101009709D01*
X181319361Y-101161374D01*
X181389165Y-101329896D01*
X181424750Y-101508797D01*
X181424750Y-101691203D01*
X181389165Y-101870104D01*
X181319361Y-102038626D01*
X181218022Y-102190291D01*
X181089041Y-102319272D01*
X180937376Y-102420611D01*
X180768854Y-102490415D01*
X180589953Y-102526000D01*
X180407547Y-102526000D01*
X180228646Y-102490415D01*
X180060124Y-102420611D01*
X179908459Y-102319272D01*
X179779478Y-102190291D01*
X179678139Y-102038626D01*
X179608335Y-101870104D01*
X179572750Y-101691203D01*
X179572750Y-101508797D01*
X179608335Y-101329896D01*
X179678139Y-101161374D01*
X179779478Y-101009709D01*
X179908459Y-100880728D01*
X180060124Y-100779389D01*
X180228646Y-100709585D01*
X180407547Y-100674000D01*
X180589953Y-100674000D01*
X180768854Y-100709585D01*
X180768854Y-100709585D01*
G37*
G36*
X190915464Y-100918389D02*
G01*
X190996395Y-100951912D01*
X191069230Y-101000579D01*
X191131171Y-101062520D01*
X191131172Y-101062522D01*
X191179839Y-101135357D01*
X191213361Y-101216286D01*
X191230450Y-101302199D01*
X191230450Y-101389801D01*
X191213361Y-101475714D01*
X191199658Y-101508797D01*
X191179838Y-101556645D01*
X191131171Y-101629480D01*
X191069230Y-101691421D01*
X190996395Y-101740088D01*
X190996394Y-101740089D01*
X190996393Y-101740089D01*
X190915464Y-101773611D01*
X190829551Y-101790700D01*
X190741949Y-101790700D01*
X190656036Y-101773611D01*
X190575107Y-101740089D01*
X190575106Y-101740089D01*
X190575105Y-101740088D01*
X190502270Y-101691421D01*
X190440329Y-101629480D01*
X190391662Y-101556645D01*
X190371843Y-101508797D01*
X190358139Y-101475714D01*
X190341050Y-101389801D01*
X190341050Y-101302199D01*
X190358139Y-101216286D01*
X190391661Y-101135357D01*
X190440328Y-101062522D01*
X190440329Y-101062520D01*
X190502270Y-101000579D01*
X190575105Y-100951912D01*
X190656036Y-100918389D01*
X190741949Y-100901300D01*
X190829551Y-100901300D01*
X190915464Y-100918389D01*
X190915464Y-100918389D01*
G37*
G36*
X188756464Y-100918389D02*
G01*
X188837395Y-100951912D01*
X188910230Y-101000579D01*
X188972171Y-101062520D01*
X188972172Y-101062522D01*
X189020839Y-101135357D01*
X189054361Y-101216286D01*
X189071450Y-101302199D01*
X189071450Y-101389801D01*
X189054361Y-101475714D01*
X189040658Y-101508797D01*
X189020838Y-101556645D01*
X188972171Y-101629480D01*
X188910230Y-101691421D01*
X188837395Y-101740088D01*
X188837394Y-101740089D01*
X188837393Y-101740089D01*
X188756464Y-101773611D01*
X188670551Y-101790700D01*
X188582949Y-101790700D01*
X188497036Y-101773611D01*
X188416107Y-101740089D01*
X188416106Y-101740089D01*
X188416105Y-101740088D01*
X188343270Y-101691421D01*
X188281329Y-101629480D01*
X188232662Y-101556645D01*
X188212843Y-101508797D01*
X188199139Y-101475714D01*
X188182050Y-101389801D01*
X188182050Y-101302199D01*
X188199139Y-101216286D01*
X188232661Y-101135357D01*
X188281328Y-101062522D01*
X188281329Y-101062520D01*
X188343270Y-101000579D01*
X188416105Y-100951912D01*
X188497036Y-100918389D01*
X188582949Y-100901300D01*
X188670551Y-100901300D01*
X188756464Y-100918389D01*
X188756464Y-100918389D01*
G37*
G36*
X188756464Y-99648389D02*
G01*
X188837395Y-99681912D01*
X188910230Y-99730579D01*
X188972171Y-99792520D01*
X188972172Y-99792522D01*
X189020839Y-99865357D01*
X189054361Y-99946286D01*
X189071450Y-100032199D01*
X189071450Y-100119801D01*
X189054361Y-100205714D01*
X189037155Y-100247254D01*
X189020838Y-100286645D01*
X188972171Y-100359480D01*
X188910230Y-100421421D01*
X188837395Y-100470088D01*
X188837394Y-100470089D01*
X188837393Y-100470089D01*
X188756464Y-100503611D01*
X188670551Y-100520700D01*
X188582949Y-100520700D01*
X188497036Y-100503611D01*
X188416107Y-100470089D01*
X188416106Y-100470089D01*
X188416105Y-100470088D01*
X188343270Y-100421421D01*
X188281329Y-100359480D01*
X188232662Y-100286645D01*
X188216346Y-100247254D01*
X188199139Y-100205714D01*
X188182050Y-100119801D01*
X188182050Y-100032199D01*
X188199139Y-99946286D01*
X188232661Y-99865357D01*
X188281328Y-99792522D01*
X188281329Y-99792520D01*
X188343270Y-99730579D01*
X188416105Y-99681912D01*
X188497036Y-99648389D01*
X188582949Y-99631300D01*
X188670551Y-99631300D01*
X188756464Y-99648389D01*
X188756464Y-99648389D01*
G37*
G36*
X190915464Y-99648389D02*
G01*
X190996395Y-99681912D01*
X191069230Y-99730579D01*
X191131171Y-99792520D01*
X191131172Y-99792522D01*
X191179839Y-99865357D01*
X191213361Y-99946286D01*
X191230450Y-100032199D01*
X191230450Y-100119801D01*
X191213361Y-100205714D01*
X191196155Y-100247254D01*
X191179838Y-100286645D01*
X191131171Y-100359480D01*
X191069230Y-100421421D01*
X190996395Y-100470088D01*
X190996394Y-100470089D01*
X190996393Y-100470089D01*
X190915464Y-100503611D01*
X190829551Y-100520700D01*
X190741949Y-100520700D01*
X190656036Y-100503611D01*
X190575107Y-100470089D01*
X190575106Y-100470089D01*
X190575105Y-100470088D01*
X190502270Y-100421421D01*
X190440329Y-100359480D01*
X190391662Y-100286645D01*
X190375346Y-100247254D01*
X190358139Y-100205714D01*
X190341050Y-100119801D01*
X190341050Y-100032199D01*
X190358139Y-99946286D01*
X190391661Y-99865357D01*
X190440328Y-99792522D01*
X190440329Y-99792520D01*
X190502270Y-99730579D01*
X190575105Y-99681912D01*
X190656036Y-99648389D01*
X190741949Y-99631300D01*
X190829551Y-99631300D01*
X190915464Y-99648389D01*
X190915464Y-99648389D01*
G37*
G36*
X126373073Y-98697563D02*
G01*
X126533492Y-98746226D01*
X126589195Y-98776000D01*
X126681328Y-98825246D01*
X126810909Y-98931591D01*
X126917254Y-99061172D01*
X126917255Y-99061174D01*
X126996274Y-99209008D01*
X127044937Y-99369427D01*
X127061367Y-99536250D01*
X127044937Y-99703073D01*
X126996274Y-99863492D01*
X126925364Y-99996156D01*
X126917254Y-100011328D01*
X126810909Y-100140909D01*
X126681328Y-100247254D01*
X126681326Y-100247255D01*
X126533492Y-100326274D01*
X126373073Y-100374937D01*
X126248054Y-100387250D01*
X126164446Y-100387250D01*
X126039427Y-100374937D01*
X125879008Y-100326274D01*
X125731174Y-100247255D01*
X125731172Y-100247254D01*
X125601591Y-100140909D01*
X125495246Y-100011328D01*
X125487136Y-99996156D01*
X125416226Y-99863492D01*
X125367563Y-99703073D01*
X125351133Y-99536250D01*
X125367563Y-99369427D01*
X125416226Y-99209008D01*
X125495245Y-99061174D01*
X125495246Y-99061172D01*
X125601591Y-98931591D01*
X125731172Y-98825246D01*
X125823305Y-98776000D01*
X125879008Y-98746226D01*
X126039427Y-98697563D01*
X126164446Y-98685250D01*
X126248054Y-98685250D01*
X126373073Y-98697563D01*
X126373073Y-98697563D01*
G37*
G36*
X145423073Y-98697563D02*
G01*
X145583492Y-98746226D01*
X145639195Y-98776000D01*
X145731328Y-98825246D01*
X145860909Y-98931591D01*
X145967254Y-99061172D01*
X145967255Y-99061174D01*
X146046274Y-99209008D01*
X146094937Y-99369427D01*
X146111367Y-99536250D01*
X146094937Y-99703073D01*
X146046274Y-99863492D01*
X145975364Y-99996156D01*
X145967254Y-100011328D01*
X145860909Y-100140909D01*
X145731328Y-100247254D01*
X145731326Y-100247255D01*
X145583492Y-100326274D01*
X145423073Y-100374937D01*
X145298054Y-100387250D01*
X145214446Y-100387250D01*
X145089427Y-100374937D01*
X144929008Y-100326274D01*
X144781174Y-100247255D01*
X144781172Y-100247254D01*
X144651591Y-100140909D01*
X144545246Y-100011328D01*
X144537136Y-99996156D01*
X144466226Y-99863492D01*
X144417563Y-99703073D01*
X144401133Y-99536250D01*
X144417563Y-99369427D01*
X144466226Y-99209008D01*
X144545245Y-99061174D01*
X144545246Y-99061172D01*
X144651591Y-98931591D01*
X144781172Y-98825246D01*
X144873305Y-98776000D01*
X144929008Y-98746226D01*
X145089427Y-98697563D01*
X145214446Y-98685250D01*
X145298054Y-98685250D01*
X145423073Y-98697563D01*
X145423073Y-98697563D01*
G37*
G36*
X164473073Y-98697563D02*
G01*
X164633492Y-98746226D01*
X164689195Y-98776000D01*
X164781328Y-98825246D01*
X164910909Y-98931591D01*
X165017254Y-99061172D01*
X165017255Y-99061174D01*
X165096274Y-99209008D01*
X165144937Y-99369427D01*
X165161367Y-99536250D01*
X165144937Y-99703073D01*
X165096274Y-99863492D01*
X165025364Y-99996156D01*
X165017254Y-100011328D01*
X164910909Y-100140909D01*
X164781328Y-100247254D01*
X164781326Y-100247255D01*
X164633492Y-100326274D01*
X164473073Y-100374937D01*
X164348054Y-100387250D01*
X164264446Y-100387250D01*
X164139427Y-100374937D01*
X163979008Y-100326274D01*
X163831174Y-100247255D01*
X163831172Y-100247254D01*
X163701591Y-100140909D01*
X163595246Y-100011328D01*
X163587136Y-99996156D01*
X163516226Y-99863492D01*
X163467563Y-99703073D01*
X163451133Y-99536250D01*
X163467563Y-99369427D01*
X163516226Y-99209008D01*
X163595245Y-99061174D01*
X163595246Y-99061172D01*
X163701591Y-98931591D01*
X163831172Y-98825246D01*
X163923305Y-98776000D01*
X163979008Y-98746226D01*
X164139427Y-98697563D01*
X164264446Y-98685250D01*
X164348054Y-98685250D01*
X164473073Y-98697563D01*
X164473073Y-98697563D01*
G37*
G36*
X115791955Y-96423881D02*
G01*
X115797395Y-96424000D01*
X115884578Y-96424000D01*
X115900847Y-96427236D01*
X115919706Y-96429515D01*
X115936282Y-96430246D01*
X116020973Y-96451010D01*
X116026268Y-96452184D01*
X116111777Y-96469193D01*
X116127112Y-96475545D01*
X116145151Y-96481455D01*
X116161271Y-96485407D01*
X116240254Y-96522280D01*
X116245244Y-96524477D01*
X116325795Y-96557842D01*
X116339591Y-96567060D01*
X116356143Y-96576382D01*
X116371176Y-96583400D01*
X116441444Y-96634971D01*
X116445942Y-96638122D01*
X116518406Y-96686541D01*
X116530133Y-96698268D01*
X116544559Y-96710648D01*
X116557929Y-96720461D01*
X116557930Y-96720462D01*
X116616771Y-96784733D01*
X116620579Y-96788714D01*
X116682209Y-96850344D01*
X116691424Y-96864135D01*
X116703146Y-96879078D01*
X116714355Y-96891321D01*
X116759549Y-96965874D01*
X116762496Y-96970501D01*
X116810908Y-97042955D01*
X116817255Y-97058277D01*
X116825842Y-97075231D01*
X116834441Y-97089417D01*
X116864228Y-97171368D01*
X116866202Y-97176448D01*
X116899557Y-97256973D01*
X116899557Y-97256974D01*
X116902791Y-97273233D01*
X116907908Y-97291542D01*
X116913575Y-97307134D01*
X116926805Y-97393345D01*
X116927751Y-97398713D01*
X116944750Y-97484173D01*
X116944750Y-97500752D01*
X116946194Y-97519692D01*
X116948713Y-97536104D01*
X116944870Y-97623249D01*
X116944750Y-97628689D01*
X116944750Y-97715825D01*
X116941516Y-97732083D01*
X116939238Y-97750941D01*
X116938506Y-97767531D01*
X116917738Y-97852237D01*
X116916562Y-97857537D01*
X116899557Y-97943027D01*
X116893207Y-97958357D01*
X116887299Y-97976393D01*
X116883345Y-97992520D01*
X116846461Y-98071526D01*
X116844261Y-98076523D01*
X116810908Y-98157045D01*
X116801694Y-98170835D01*
X116792372Y-98187387D01*
X116785352Y-98202424D01*
X116733761Y-98272720D01*
X116730616Y-98277210D01*
X116682211Y-98349654D01*
X116625210Y-98406655D01*
X116620561Y-98411563D01*
X116249380Y-98825245D01*
X115295473Y-99888376D01*
X115167429Y-100005602D01*
X115068380Y-100065646D01*
X114969333Y-100125689D01*
X114751616Y-100204823D01*
X114522645Y-100239961D01*
X114291220Y-100229754D01*
X114066231Y-100174593D01*
X113961477Y-100125689D01*
X113856329Y-100076602D01*
X113767390Y-100011328D01*
X113669573Y-99939539D01*
X113534977Y-99792522D01*
X113513148Y-99768679D01*
X113431314Y-99633685D01*
X113393061Y-99570583D01*
X113313927Y-99352866D01*
X113278789Y-99123895D01*
X113288996Y-98892470D01*
X113344157Y-98667481D01*
X113395722Y-98557028D01*
X113442148Y-98457580D01*
X113442150Y-98457577D01*
X113544864Y-98317622D01*
X114299995Y-97476027D01*
X114831537Y-96883621D01*
X114842431Y-96869589D01*
X114855289Y-96850346D01*
X114912323Y-96793312D01*
X114916973Y-96788403D01*
X114932028Y-96771624D01*
X114953451Y-96752011D01*
X114957432Y-96748203D01*
X115019096Y-96686539D01*
X115032893Y-96677320D01*
X115047852Y-96665585D01*
X115060071Y-96654398D01*
X115092135Y-96634961D01*
X115134580Y-96609231D01*
X115139171Y-96606308D01*
X115211705Y-96557842D01*
X115227050Y-96551486D01*
X115243998Y-96542901D01*
X115258166Y-96534312D01*
X115258167Y-96534312D01*
X115258168Y-96534311D01*
X115340062Y-96504545D01*
X115345160Y-96502563D01*
X115425723Y-96469193D01*
X115442002Y-96465955D01*
X115460292Y-96460844D01*
X115475885Y-96455177D01*
X115562050Y-96441954D01*
X115567413Y-96441009D01*
X115652923Y-96424000D01*
X115669516Y-96424000D01*
X115688459Y-96422555D01*
X115704856Y-96420039D01*
X115791955Y-96423881D01*
X115791955Y-96423881D01*
G37*
G36*
X172941955Y-96423881D02*
G01*
X172947395Y-96424000D01*
X173034578Y-96424000D01*
X173050847Y-96427236D01*
X173069706Y-96429515D01*
X173086282Y-96430246D01*
X173170973Y-96451010D01*
X173176268Y-96452184D01*
X173261777Y-96469193D01*
X173277112Y-96475545D01*
X173295151Y-96481455D01*
X173311271Y-96485407D01*
X173390254Y-96522280D01*
X173395244Y-96524477D01*
X173475795Y-96557842D01*
X173489591Y-96567060D01*
X173506143Y-96576382D01*
X173521176Y-96583400D01*
X173591444Y-96634971D01*
X173595942Y-96638122D01*
X173668406Y-96686541D01*
X173680133Y-96698268D01*
X173694559Y-96710648D01*
X173707929Y-96720461D01*
X173707930Y-96720462D01*
X173766771Y-96784733D01*
X173770579Y-96788714D01*
X173832209Y-96850344D01*
X173841424Y-96864135D01*
X173853146Y-96879078D01*
X173864355Y-96891321D01*
X173909549Y-96965874D01*
X173912496Y-96970501D01*
X173960908Y-97042955D01*
X173967255Y-97058277D01*
X173975842Y-97075231D01*
X173984441Y-97089417D01*
X174014228Y-97171368D01*
X174016202Y-97176448D01*
X174049557Y-97256973D01*
X174049557Y-97256974D01*
X174052791Y-97273233D01*
X174057908Y-97291542D01*
X174063575Y-97307134D01*
X174076805Y-97393345D01*
X174077751Y-97398713D01*
X174094750Y-97484173D01*
X174094750Y-97500752D01*
X174096194Y-97519692D01*
X174098713Y-97536104D01*
X174094870Y-97623249D01*
X174094750Y-97628689D01*
X174094750Y-97715825D01*
X174091516Y-97732083D01*
X174089238Y-97750941D01*
X174088506Y-97767531D01*
X174067738Y-97852237D01*
X174066562Y-97857537D01*
X174049557Y-97943027D01*
X174043207Y-97958357D01*
X174037299Y-97976393D01*
X174033345Y-97992520D01*
X173996461Y-98071526D01*
X173994261Y-98076523D01*
X173960908Y-98157045D01*
X173951694Y-98170835D01*
X173942372Y-98187387D01*
X173935352Y-98202424D01*
X173883761Y-98272720D01*
X173880616Y-98277210D01*
X173832211Y-98349654D01*
X173775210Y-98406655D01*
X173770561Y-98411563D01*
X173399380Y-98825245D01*
X172445473Y-99888376D01*
X172317429Y-100005602D01*
X172218380Y-100065646D01*
X172119333Y-100125689D01*
X171901616Y-100204823D01*
X171672645Y-100239961D01*
X171441220Y-100229754D01*
X171216231Y-100174593D01*
X171111477Y-100125689D01*
X171006329Y-100076602D01*
X170917390Y-100011328D01*
X170819573Y-99939539D01*
X170684977Y-99792522D01*
X170663148Y-99768679D01*
X170581314Y-99633685D01*
X170543061Y-99570583D01*
X170463927Y-99352866D01*
X170428789Y-99123895D01*
X170438996Y-98892470D01*
X170494157Y-98667481D01*
X170545722Y-98557028D01*
X170592148Y-98457580D01*
X170592150Y-98457577D01*
X170694864Y-98317622D01*
X171449995Y-97476027D01*
X171981537Y-96883621D01*
X171992431Y-96869589D01*
X172005289Y-96850346D01*
X172062323Y-96793312D01*
X172066973Y-96788403D01*
X172082028Y-96771624D01*
X172103451Y-96752011D01*
X172107432Y-96748203D01*
X172169096Y-96686539D01*
X172182893Y-96677320D01*
X172197852Y-96665585D01*
X172210071Y-96654398D01*
X172242135Y-96634961D01*
X172284580Y-96609231D01*
X172289171Y-96606308D01*
X172361705Y-96557842D01*
X172377050Y-96551486D01*
X172393998Y-96542901D01*
X172408166Y-96534312D01*
X172408167Y-96534312D01*
X172408168Y-96534311D01*
X172490062Y-96504545D01*
X172495160Y-96502563D01*
X172575723Y-96469193D01*
X172592002Y-96465955D01*
X172610292Y-96460844D01*
X172625885Y-96455177D01*
X172712050Y-96441954D01*
X172717413Y-96441009D01*
X172802923Y-96424000D01*
X172819516Y-96424000D01*
X172838459Y-96422555D01*
X172854856Y-96420039D01*
X172941955Y-96423881D01*
X172941955Y-96423881D01*
G37*
G36*
X134841955Y-96423881D02*
G01*
X134847395Y-96424000D01*
X134934578Y-96424000D01*
X134950847Y-96427236D01*
X134969706Y-96429515D01*
X134986282Y-96430246D01*
X135070973Y-96451010D01*
X135076268Y-96452184D01*
X135161777Y-96469193D01*
X135177112Y-96475545D01*
X135195151Y-96481455D01*
X135211271Y-96485407D01*
X135290254Y-96522280D01*
X135295244Y-96524477D01*
X135375795Y-96557842D01*
X135389591Y-96567060D01*
X135406143Y-96576382D01*
X135421176Y-96583400D01*
X135491444Y-96634971D01*
X135495942Y-96638122D01*
X135568406Y-96686541D01*
X135580133Y-96698268D01*
X135594559Y-96710648D01*
X135607929Y-96720461D01*
X135607930Y-96720462D01*
X135666771Y-96784733D01*
X135670579Y-96788714D01*
X135732209Y-96850344D01*
X135741424Y-96864135D01*
X135753146Y-96879078D01*
X135764355Y-96891321D01*
X135809549Y-96965874D01*
X135812496Y-96970501D01*
X135860908Y-97042955D01*
X135867255Y-97058277D01*
X135875842Y-97075231D01*
X135884441Y-97089417D01*
X135914228Y-97171368D01*
X135916202Y-97176448D01*
X135949557Y-97256973D01*
X135949557Y-97256974D01*
X135952791Y-97273233D01*
X135957908Y-97291542D01*
X135963575Y-97307134D01*
X135976805Y-97393345D01*
X135977751Y-97398713D01*
X135994750Y-97484173D01*
X135994750Y-97500752D01*
X135996194Y-97519692D01*
X135998713Y-97536104D01*
X135994870Y-97623249D01*
X135994750Y-97628689D01*
X135994750Y-97715825D01*
X135991516Y-97732083D01*
X135989238Y-97750941D01*
X135988506Y-97767531D01*
X135967738Y-97852237D01*
X135966562Y-97857537D01*
X135949557Y-97943027D01*
X135943207Y-97958357D01*
X135937299Y-97976393D01*
X135933345Y-97992520D01*
X135896461Y-98071526D01*
X135894261Y-98076523D01*
X135860908Y-98157045D01*
X135851694Y-98170835D01*
X135842372Y-98187387D01*
X135835352Y-98202424D01*
X135783761Y-98272720D01*
X135780616Y-98277210D01*
X135732211Y-98349654D01*
X135675210Y-98406655D01*
X135670561Y-98411563D01*
X135299380Y-98825245D01*
X134345473Y-99888376D01*
X134217429Y-100005602D01*
X134118380Y-100065646D01*
X134019333Y-100125689D01*
X133801616Y-100204823D01*
X133572645Y-100239961D01*
X133341220Y-100229754D01*
X133116231Y-100174593D01*
X133011477Y-100125689D01*
X132906329Y-100076602D01*
X132817390Y-100011328D01*
X132719573Y-99939539D01*
X132584977Y-99792522D01*
X132563148Y-99768679D01*
X132481314Y-99633685D01*
X132443061Y-99570583D01*
X132363927Y-99352866D01*
X132328789Y-99123895D01*
X132338996Y-98892470D01*
X132394157Y-98667481D01*
X132445722Y-98557028D01*
X132492148Y-98457580D01*
X132492150Y-98457577D01*
X132594864Y-98317622D01*
X133349995Y-97476027D01*
X133881537Y-96883621D01*
X133892431Y-96869589D01*
X133905289Y-96850346D01*
X133962323Y-96793312D01*
X133966973Y-96788403D01*
X133982028Y-96771624D01*
X134003451Y-96752011D01*
X134007432Y-96748203D01*
X134069096Y-96686539D01*
X134082893Y-96677320D01*
X134097852Y-96665585D01*
X134110071Y-96654398D01*
X134142135Y-96634961D01*
X134184580Y-96609231D01*
X134189171Y-96606308D01*
X134261705Y-96557842D01*
X134277050Y-96551486D01*
X134293998Y-96542901D01*
X134308166Y-96534312D01*
X134308167Y-96534312D01*
X134308168Y-96534311D01*
X134390062Y-96504545D01*
X134395160Y-96502563D01*
X134475723Y-96469193D01*
X134492002Y-96465955D01*
X134510292Y-96460844D01*
X134525885Y-96455177D01*
X134612050Y-96441954D01*
X134617413Y-96441009D01*
X134702923Y-96424000D01*
X134719516Y-96424000D01*
X134738459Y-96422555D01*
X134754856Y-96420039D01*
X134841955Y-96423881D01*
X134841955Y-96423881D01*
G37*
G36*
X153891955Y-96423881D02*
G01*
X153897395Y-96424000D01*
X153984578Y-96424000D01*
X154000847Y-96427236D01*
X154019706Y-96429515D01*
X154036282Y-96430246D01*
X154120973Y-96451010D01*
X154126268Y-96452184D01*
X154211777Y-96469193D01*
X154227112Y-96475545D01*
X154245151Y-96481455D01*
X154261271Y-96485407D01*
X154340254Y-96522280D01*
X154345244Y-96524477D01*
X154425795Y-96557842D01*
X154439591Y-96567060D01*
X154456143Y-96576382D01*
X154471176Y-96583400D01*
X154541444Y-96634971D01*
X154545942Y-96638122D01*
X154618406Y-96686541D01*
X154630133Y-96698268D01*
X154644559Y-96710648D01*
X154657929Y-96720461D01*
X154657930Y-96720462D01*
X154716771Y-96784733D01*
X154720579Y-96788714D01*
X154782209Y-96850344D01*
X154791424Y-96864135D01*
X154803146Y-96879078D01*
X154814355Y-96891321D01*
X154859549Y-96965874D01*
X154862496Y-96970501D01*
X154910908Y-97042955D01*
X154917255Y-97058277D01*
X154925842Y-97075231D01*
X154934441Y-97089417D01*
X154964228Y-97171368D01*
X154966202Y-97176448D01*
X154999557Y-97256973D01*
X154999557Y-97256974D01*
X155002791Y-97273233D01*
X155007908Y-97291542D01*
X155013575Y-97307134D01*
X155026805Y-97393345D01*
X155027751Y-97398713D01*
X155044750Y-97484173D01*
X155044750Y-97500752D01*
X155046194Y-97519692D01*
X155048713Y-97536104D01*
X155044870Y-97623249D01*
X155044750Y-97628689D01*
X155044750Y-97715825D01*
X155041516Y-97732083D01*
X155039238Y-97750941D01*
X155038506Y-97767531D01*
X155017738Y-97852237D01*
X155016562Y-97857537D01*
X154999557Y-97943027D01*
X154993207Y-97958357D01*
X154987299Y-97976393D01*
X154983345Y-97992520D01*
X154946461Y-98071526D01*
X154944261Y-98076523D01*
X154910908Y-98157045D01*
X154901694Y-98170835D01*
X154892372Y-98187387D01*
X154885352Y-98202424D01*
X154833761Y-98272720D01*
X154830616Y-98277210D01*
X154782211Y-98349654D01*
X154725210Y-98406655D01*
X154720561Y-98411563D01*
X154349380Y-98825245D01*
X153395473Y-99888376D01*
X153267429Y-100005602D01*
X153168380Y-100065646D01*
X153069333Y-100125689D01*
X152851616Y-100204823D01*
X152622645Y-100239961D01*
X152391220Y-100229754D01*
X152166231Y-100174593D01*
X152061477Y-100125689D01*
X151956329Y-100076602D01*
X151867390Y-100011328D01*
X151769573Y-99939539D01*
X151634977Y-99792522D01*
X151613148Y-99768679D01*
X151531314Y-99633685D01*
X151493061Y-99570583D01*
X151413927Y-99352866D01*
X151378789Y-99123895D01*
X151388996Y-98892470D01*
X151444157Y-98667481D01*
X151495722Y-98557028D01*
X151542148Y-98457580D01*
X151542150Y-98457577D01*
X151644864Y-98317622D01*
X152399995Y-97476027D01*
X152931537Y-96883621D01*
X152942431Y-96869589D01*
X152955289Y-96850346D01*
X153012323Y-96793312D01*
X153016973Y-96788403D01*
X153032028Y-96771624D01*
X153053451Y-96752011D01*
X153057432Y-96748203D01*
X153119096Y-96686539D01*
X153132893Y-96677320D01*
X153147852Y-96665585D01*
X153160071Y-96654398D01*
X153192135Y-96634961D01*
X153234580Y-96609231D01*
X153239171Y-96606308D01*
X153311705Y-96557842D01*
X153327050Y-96551486D01*
X153343998Y-96542901D01*
X153358166Y-96534312D01*
X153358167Y-96534312D01*
X153358168Y-96534311D01*
X153440062Y-96504545D01*
X153445160Y-96502563D01*
X153525723Y-96469193D01*
X153542002Y-96465955D01*
X153560292Y-96460844D01*
X153575885Y-96455177D01*
X153662050Y-96441954D01*
X153667413Y-96441009D01*
X153752923Y-96424000D01*
X153769516Y-96424000D01*
X153788459Y-96422555D01*
X153804856Y-96420039D01*
X153891955Y-96423881D01*
X153891955Y-96423881D01*
G37*
G36*
X158996877Y-95342261D02*
G01*
X159017650Y-95344000D01*
X159024577Y-95344000D01*
X159119504Y-95362882D01*
X159123098Y-95363542D01*
X159218480Y-95379624D01*
X159224953Y-95382085D01*
X159244978Y-95387841D01*
X159251777Y-95389193D01*
X159314164Y-95415034D01*
X159341193Y-95426230D01*
X159344594Y-95427581D01*
X159435005Y-95461961D01*
X159440877Y-95465640D01*
X159459386Y-95475187D01*
X159465795Y-95477842D01*
X159546313Y-95531642D01*
X159549304Y-95533578D01*
X159631307Y-95584959D01*
X159636334Y-95589700D01*
X159652646Y-95602691D01*
X159658402Y-95606537D01*
X159726860Y-95674995D01*
X159729439Y-95677499D01*
X159799840Y-95743889D01*
X159803845Y-95749519D01*
X159817309Y-95765444D01*
X159822209Y-95770344D01*
X159875994Y-95850839D01*
X159878041Y-95853807D01*
X159934130Y-95932645D01*
X159936964Y-95938958D01*
X159947058Y-95957193D01*
X159950908Y-95962955D01*
X159987970Y-96052430D01*
X159989374Y-96055685D01*
X160029015Y-96143973D01*
X160030565Y-96150725D01*
X160036902Y-96170562D01*
X160039557Y-96176973D01*
X160058442Y-96271917D01*
X160059188Y-96275401D01*
X160080848Y-96369751D01*
X160080848Y-96369754D01*
X160081050Y-96376654D01*
X160083397Y-96397370D01*
X160084750Y-96404174D01*
X160084750Y-96500986D01*
X160084803Y-96504584D01*
X160085938Y-96543277D01*
X160085045Y-96556225D01*
X160084750Y-96564797D01*
X160084750Y-96635826D01*
X160078831Y-96665585D01*
X160078354Y-96667979D01*
X160076250Y-96683750D01*
X160037988Y-97238545D01*
X160009126Y-97409730D01*
X159926788Y-97626255D01*
X159803791Y-97822557D01*
X159644861Y-97991090D01*
X159456105Y-98125380D01*
X159244777Y-98220265D01*
X159018999Y-98272098D01*
X158787448Y-98278889D01*
X158787447Y-98278889D01*
X158741762Y-98271186D01*
X158559020Y-98240376D01*
X158342495Y-98158038D01*
X158146193Y-98035041D01*
X157977660Y-97876111D01*
X157843370Y-97687355D01*
X157748485Y-97476027D01*
X157696652Y-97250249D01*
X157691562Y-97076723D01*
X157732454Y-96483794D01*
X157732750Y-96475196D01*
X157732750Y-96404175D01*
X157751632Y-96309250D01*
X157752294Y-96305645D01*
X157757981Y-96271917D01*
X157768374Y-96210270D01*
X157770835Y-96203799D01*
X157776592Y-96183767D01*
X157777943Y-96176974D01*
X157780593Y-96170576D01*
X157815014Y-96087476D01*
X157816303Y-96084230D01*
X157850712Y-95993745D01*
X157854386Y-95987881D01*
X157863937Y-95969365D01*
X157866592Y-95962955D01*
X157920407Y-95882415D01*
X157922327Y-95879449D01*
X157973709Y-95797443D01*
X157978461Y-95792404D01*
X157991439Y-95776107D01*
X157995287Y-95770348D01*
X158063743Y-95701892D01*
X158066296Y-95699262D01*
X158086773Y-95677548D01*
X158132639Y-95628910D01*
X158138271Y-95624903D01*
X158154197Y-95611438D01*
X158159096Y-95606539D01*
X158239574Y-95552766D01*
X158242556Y-95550710D01*
X158321395Y-95494620D01*
X158327705Y-95491787D01*
X158345944Y-95481691D01*
X158351701Y-95477844D01*
X158351704Y-95477843D01*
X158351705Y-95477842D01*
X158441179Y-95440781D01*
X158444437Y-95439375D01*
X158532723Y-95399735D01*
X158539475Y-95398185D01*
X158559312Y-95391848D01*
X158565723Y-95389193D01*
X158660649Y-95370311D01*
X158664196Y-95369551D01*
X158758501Y-95347901D01*
X158760880Y-95347831D01*
X158765415Y-95347698D01*
X158786131Y-95345351D01*
X158792924Y-95344000D01*
X158889709Y-95344000D01*
X158893334Y-95343947D01*
X158990052Y-95341110D01*
X158996877Y-95342261D01*
X158996877Y-95342261D01*
G37*
G36*
X120896877Y-95342261D02*
G01*
X120917650Y-95344000D01*
X120924577Y-95344000D01*
X121019504Y-95362882D01*
X121023098Y-95363542D01*
X121118480Y-95379624D01*
X121124953Y-95382085D01*
X121144978Y-95387841D01*
X121151777Y-95389193D01*
X121214164Y-95415034D01*
X121241193Y-95426230D01*
X121244594Y-95427581D01*
X121335005Y-95461961D01*
X121340877Y-95465640D01*
X121359386Y-95475187D01*
X121365795Y-95477842D01*
X121446313Y-95531642D01*
X121449304Y-95533578D01*
X121531307Y-95584959D01*
X121536334Y-95589700D01*
X121552646Y-95602691D01*
X121558402Y-95606537D01*
X121626860Y-95674995D01*
X121629439Y-95677499D01*
X121699840Y-95743889D01*
X121703845Y-95749519D01*
X121717309Y-95765444D01*
X121722209Y-95770344D01*
X121775994Y-95850839D01*
X121778041Y-95853807D01*
X121834130Y-95932645D01*
X121836964Y-95938958D01*
X121847058Y-95957193D01*
X121850908Y-95962955D01*
X121887970Y-96052430D01*
X121889374Y-96055685D01*
X121929015Y-96143973D01*
X121930565Y-96150725D01*
X121936902Y-96170562D01*
X121939557Y-96176973D01*
X121958442Y-96271917D01*
X121959188Y-96275401D01*
X121980848Y-96369751D01*
X121980848Y-96369754D01*
X121981050Y-96376654D01*
X121983397Y-96397370D01*
X121984750Y-96404174D01*
X121984750Y-96500986D01*
X121984803Y-96504584D01*
X121985938Y-96543277D01*
X121985045Y-96556225D01*
X121984750Y-96564797D01*
X121984750Y-96635826D01*
X121978831Y-96665585D01*
X121978354Y-96667979D01*
X121976250Y-96683750D01*
X121937988Y-97238545D01*
X121909126Y-97409730D01*
X121826788Y-97626255D01*
X121703791Y-97822557D01*
X121544861Y-97991090D01*
X121356105Y-98125380D01*
X121144777Y-98220265D01*
X120918999Y-98272098D01*
X120687448Y-98278889D01*
X120687447Y-98278889D01*
X120641762Y-98271186D01*
X120459020Y-98240376D01*
X120242495Y-98158038D01*
X120046193Y-98035041D01*
X119877660Y-97876111D01*
X119743370Y-97687355D01*
X119648485Y-97476027D01*
X119596652Y-97250249D01*
X119591562Y-97076723D01*
X119632454Y-96483794D01*
X119632750Y-96475196D01*
X119632750Y-96404175D01*
X119651632Y-96309250D01*
X119652294Y-96305645D01*
X119657981Y-96271917D01*
X119668374Y-96210270D01*
X119670835Y-96203799D01*
X119676592Y-96183767D01*
X119677943Y-96176974D01*
X119680593Y-96170576D01*
X119715014Y-96087476D01*
X119716303Y-96084230D01*
X119750712Y-95993745D01*
X119754386Y-95987881D01*
X119763937Y-95969365D01*
X119766592Y-95962955D01*
X119820407Y-95882415D01*
X119822327Y-95879449D01*
X119873709Y-95797443D01*
X119878461Y-95792404D01*
X119891439Y-95776107D01*
X119895287Y-95770348D01*
X119963743Y-95701892D01*
X119966296Y-95699262D01*
X119986773Y-95677548D01*
X120032639Y-95628910D01*
X120038271Y-95624903D01*
X120054197Y-95611438D01*
X120059096Y-95606539D01*
X120139574Y-95552766D01*
X120142556Y-95550710D01*
X120221395Y-95494620D01*
X120227705Y-95491787D01*
X120245944Y-95481691D01*
X120251701Y-95477844D01*
X120251704Y-95477843D01*
X120251705Y-95477842D01*
X120341179Y-95440781D01*
X120344437Y-95439375D01*
X120432723Y-95399735D01*
X120439475Y-95398185D01*
X120459312Y-95391848D01*
X120465723Y-95389193D01*
X120560649Y-95370311D01*
X120564196Y-95369551D01*
X120658501Y-95347901D01*
X120660880Y-95347831D01*
X120665415Y-95347698D01*
X120686131Y-95345351D01*
X120692924Y-95344000D01*
X120789709Y-95344000D01*
X120793334Y-95343947D01*
X120890052Y-95341110D01*
X120896877Y-95342261D01*
X120896877Y-95342261D01*
G37*
G36*
X178046877Y-95342261D02*
G01*
X178067650Y-95344000D01*
X178074577Y-95344000D01*
X178169504Y-95362882D01*
X178173098Y-95363542D01*
X178268480Y-95379624D01*
X178274953Y-95382085D01*
X178294978Y-95387841D01*
X178301777Y-95389193D01*
X178364164Y-95415034D01*
X178391193Y-95426230D01*
X178394594Y-95427581D01*
X178485005Y-95461961D01*
X178490877Y-95465640D01*
X178509386Y-95475187D01*
X178515795Y-95477842D01*
X178596313Y-95531642D01*
X178599304Y-95533578D01*
X178681307Y-95584959D01*
X178686334Y-95589700D01*
X178702646Y-95602691D01*
X178708402Y-95606537D01*
X178776860Y-95674995D01*
X178779439Y-95677499D01*
X178849840Y-95743889D01*
X178853845Y-95749519D01*
X178867309Y-95765444D01*
X178872209Y-95770344D01*
X178925994Y-95850839D01*
X178928041Y-95853807D01*
X178984130Y-95932645D01*
X178986964Y-95938958D01*
X178997058Y-95957193D01*
X179000908Y-95962955D01*
X179037970Y-96052430D01*
X179039374Y-96055685D01*
X179079015Y-96143973D01*
X179080565Y-96150725D01*
X179086902Y-96170562D01*
X179089557Y-96176973D01*
X179108442Y-96271917D01*
X179109188Y-96275401D01*
X179130848Y-96369751D01*
X179130848Y-96369754D01*
X179131050Y-96376654D01*
X179133397Y-96397370D01*
X179134750Y-96404174D01*
X179134750Y-96500986D01*
X179134803Y-96504584D01*
X179135938Y-96543277D01*
X179135045Y-96556225D01*
X179134750Y-96564797D01*
X179134750Y-96635826D01*
X179128831Y-96665585D01*
X179128354Y-96667979D01*
X179126250Y-96683750D01*
X179087988Y-97238545D01*
X179059126Y-97409730D01*
X178976788Y-97626255D01*
X178853791Y-97822557D01*
X178694861Y-97991090D01*
X178506105Y-98125380D01*
X178294777Y-98220265D01*
X178068999Y-98272098D01*
X177837448Y-98278889D01*
X177837447Y-98278889D01*
X177791762Y-98271186D01*
X177609020Y-98240376D01*
X177392495Y-98158038D01*
X177196193Y-98035041D01*
X177027660Y-97876111D01*
X176893370Y-97687355D01*
X176798485Y-97476027D01*
X176746652Y-97250249D01*
X176741562Y-97076723D01*
X176782454Y-96483794D01*
X176782750Y-96475196D01*
X176782750Y-96404175D01*
X176801632Y-96309250D01*
X176802294Y-96305645D01*
X176807981Y-96271917D01*
X176818374Y-96210270D01*
X176820835Y-96203799D01*
X176826592Y-96183767D01*
X176827943Y-96176974D01*
X176830593Y-96170576D01*
X176865014Y-96087476D01*
X176866303Y-96084230D01*
X176900712Y-95993745D01*
X176904386Y-95987881D01*
X176913937Y-95969365D01*
X176916592Y-95962955D01*
X176970407Y-95882415D01*
X176972327Y-95879449D01*
X177023709Y-95797443D01*
X177028461Y-95792404D01*
X177041439Y-95776107D01*
X177045287Y-95770348D01*
X177113743Y-95701892D01*
X177116296Y-95699262D01*
X177136773Y-95677548D01*
X177182639Y-95628910D01*
X177188271Y-95624903D01*
X177204197Y-95611438D01*
X177209096Y-95606539D01*
X177289574Y-95552766D01*
X177292556Y-95550710D01*
X177371395Y-95494620D01*
X177377705Y-95491787D01*
X177395944Y-95481691D01*
X177401701Y-95477844D01*
X177401704Y-95477843D01*
X177401705Y-95477842D01*
X177491179Y-95440781D01*
X177494437Y-95439375D01*
X177582723Y-95399735D01*
X177589475Y-95398185D01*
X177609312Y-95391848D01*
X177615723Y-95389193D01*
X177710649Y-95370311D01*
X177714196Y-95369551D01*
X177808501Y-95347901D01*
X177810880Y-95347831D01*
X177815415Y-95347698D01*
X177836131Y-95345351D01*
X177842924Y-95344000D01*
X177939709Y-95344000D01*
X177943334Y-95343947D01*
X178040052Y-95341110D01*
X178046877Y-95342261D01*
X178046877Y-95342261D01*
G37*
G36*
X139946877Y-95342261D02*
G01*
X139967650Y-95344000D01*
X139974577Y-95344000D01*
X140069504Y-95362882D01*
X140073098Y-95363542D01*
X140168480Y-95379624D01*
X140174953Y-95382085D01*
X140194978Y-95387841D01*
X140201777Y-95389193D01*
X140264164Y-95415034D01*
X140291193Y-95426230D01*
X140294594Y-95427581D01*
X140385005Y-95461961D01*
X140390877Y-95465640D01*
X140409386Y-95475187D01*
X140415795Y-95477842D01*
X140496313Y-95531642D01*
X140499304Y-95533578D01*
X140581307Y-95584959D01*
X140586334Y-95589700D01*
X140602646Y-95602691D01*
X140608402Y-95606537D01*
X140676860Y-95674995D01*
X140679439Y-95677499D01*
X140749840Y-95743889D01*
X140753845Y-95749519D01*
X140767309Y-95765444D01*
X140772209Y-95770344D01*
X140825994Y-95850839D01*
X140828041Y-95853807D01*
X140884130Y-95932645D01*
X140886964Y-95938958D01*
X140897058Y-95957193D01*
X140900908Y-95962955D01*
X140937970Y-96052430D01*
X140939374Y-96055685D01*
X140979015Y-96143973D01*
X140980565Y-96150725D01*
X140986902Y-96170562D01*
X140989557Y-96176973D01*
X141008442Y-96271917D01*
X141009188Y-96275401D01*
X141030848Y-96369751D01*
X141030848Y-96369754D01*
X141031050Y-96376654D01*
X141033397Y-96397370D01*
X141034750Y-96404174D01*
X141034750Y-96500986D01*
X141034803Y-96504584D01*
X141035938Y-96543277D01*
X141035045Y-96556225D01*
X141034750Y-96564797D01*
X141034750Y-96635826D01*
X141028831Y-96665585D01*
X141028354Y-96667979D01*
X141026250Y-96683750D01*
X140987988Y-97238545D01*
X140959126Y-97409730D01*
X140876788Y-97626255D01*
X140753791Y-97822557D01*
X140594861Y-97991090D01*
X140406105Y-98125380D01*
X140194777Y-98220265D01*
X139968999Y-98272098D01*
X139737448Y-98278889D01*
X139737447Y-98278889D01*
X139691762Y-98271186D01*
X139509020Y-98240376D01*
X139292495Y-98158038D01*
X139096193Y-98035041D01*
X138927660Y-97876111D01*
X138793370Y-97687355D01*
X138698485Y-97476027D01*
X138646652Y-97250249D01*
X138641562Y-97076723D01*
X138682454Y-96483794D01*
X138682750Y-96475196D01*
X138682750Y-96404175D01*
X138701632Y-96309250D01*
X138702294Y-96305645D01*
X138707981Y-96271917D01*
X138718374Y-96210270D01*
X138720835Y-96203799D01*
X138726592Y-96183767D01*
X138727943Y-96176974D01*
X138730593Y-96170576D01*
X138765014Y-96087476D01*
X138766303Y-96084230D01*
X138800712Y-95993745D01*
X138804386Y-95987881D01*
X138813937Y-95969365D01*
X138816592Y-95962955D01*
X138870407Y-95882415D01*
X138872327Y-95879449D01*
X138923709Y-95797443D01*
X138928461Y-95792404D01*
X138941439Y-95776107D01*
X138945287Y-95770348D01*
X139013743Y-95701892D01*
X139016296Y-95699262D01*
X139036773Y-95677548D01*
X139082639Y-95628910D01*
X139088271Y-95624903D01*
X139104197Y-95611438D01*
X139109096Y-95606539D01*
X139189574Y-95552766D01*
X139192556Y-95550710D01*
X139271395Y-95494620D01*
X139277705Y-95491787D01*
X139295944Y-95481691D01*
X139301701Y-95477844D01*
X139301704Y-95477843D01*
X139301705Y-95477842D01*
X139391179Y-95440781D01*
X139394437Y-95439375D01*
X139482723Y-95399735D01*
X139489475Y-95398185D01*
X139509312Y-95391848D01*
X139515723Y-95389193D01*
X139610649Y-95370311D01*
X139614196Y-95369551D01*
X139708501Y-95347901D01*
X139710880Y-95347831D01*
X139715415Y-95347698D01*
X139736131Y-95345351D01*
X139742924Y-95344000D01*
X139839709Y-95344000D01*
X139843334Y-95343947D01*
X139940052Y-95341110D01*
X139946877Y-95342261D01*
X139946877Y-95342261D01*
G37*
G36*
X181826000Y-94513500D02*
G01*
X180124000Y-94513500D01*
X180124000Y-92811500D01*
X181826000Y-92811500D01*
X181826000Y-94513500D01*
X181826000Y-94513500D01*
G37*
G36*
X115151000Y-91338500D02*
G01*
X113449000Y-91338500D01*
X113449000Y-89636500D01*
X115151000Y-89636500D01*
X115151000Y-91338500D01*
X115151000Y-91338500D01*
G37*
G36*
X134994750Y-91338500D02*
G01*
X133292750Y-91338500D01*
X133292750Y-89636500D01*
X134994750Y-89636500D01*
X134994750Y-91338500D01*
X134994750Y-91338500D01*
G37*
G36*
X122086823Y-89648813D02*
G01*
X122247242Y-89697476D01*
X122379906Y-89768386D01*
X122395078Y-89776496D01*
X122524659Y-89882841D01*
X122631004Y-90012422D01*
X122631005Y-90012424D01*
X122710024Y-90160258D01*
X122758687Y-90320677D01*
X122775117Y-90487500D01*
X122758687Y-90654323D01*
X122710024Y-90814742D01*
X122639114Y-90947406D01*
X122631004Y-90962578D01*
X122524659Y-91092159D01*
X122395078Y-91198504D01*
X122395076Y-91198505D01*
X122247242Y-91277524D01*
X122086823Y-91326187D01*
X121961804Y-91338500D01*
X121878196Y-91338500D01*
X121753177Y-91326187D01*
X121592758Y-91277524D01*
X121444924Y-91198505D01*
X121444922Y-91198504D01*
X121315341Y-91092159D01*
X121208996Y-90962578D01*
X121200886Y-90947406D01*
X121129976Y-90814742D01*
X121081313Y-90654323D01*
X121064883Y-90487500D01*
X121081313Y-90320677D01*
X121129976Y-90160258D01*
X121208995Y-90012424D01*
X121208996Y-90012422D01*
X121315341Y-89882841D01*
X121444922Y-89776496D01*
X121460094Y-89768386D01*
X121592758Y-89697476D01*
X121753177Y-89648813D01*
X121878196Y-89636500D01*
X121961804Y-89636500D01*
X122086823Y-89648813D01*
X122086823Y-89648813D01*
G37*
G36*
X141930573Y-89648813D02*
G01*
X142090992Y-89697476D01*
X142223656Y-89768386D01*
X142238828Y-89776496D01*
X142368409Y-89882841D01*
X142474754Y-90012422D01*
X142474755Y-90012424D01*
X142553774Y-90160258D01*
X142602437Y-90320677D01*
X142618867Y-90487500D01*
X142602437Y-90654323D01*
X142553774Y-90814742D01*
X142482864Y-90947406D01*
X142474754Y-90962578D01*
X142368409Y-91092159D01*
X142238828Y-91198504D01*
X142238826Y-91198505D01*
X142090992Y-91277524D01*
X141930573Y-91326187D01*
X141805554Y-91338500D01*
X141721946Y-91338500D01*
X141596927Y-91326187D01*
X141436508Y-91277524D01*
X141288674Y-91198505D01*
X141288672Y-91198504D01*
X141159091Y-91092159D01*
X141052746Y-90962578D01*
X141044636Y-90947406D01*
X140973726Y-90814742D01*
X140925063Y-90654323D01*
X140908633Y-90487500D01*
X140925063Y-90320677D01*
X140973726Y-90160258D01*
X141052745Y-90012424D01*
X141052746Y-90012422D01*
X141159091Y-89882841D01*
X141288672Y-89776496D01*
X141303844Y-89768386D01*
X141436508Y-89697476D01*
X141596927Y-89648813D01*
X141721946Y-89636500D01*
X141805554Y-89636500D01*
X141930573Y-89648813D01*
X141930573Y-89648813D01*
G37*
G36*
X149282250Y-88957250D02*
G01*
X147580250Y-88957250D01*
X147580250Y-87255250D01*
X149282250Y-87255250D01*
X149282250Y-88957250D01*
X149282250Y-88957250D01*
G37*
G36*
X165157250Y-88957250D02*
G01*
X163455250Y-88957250D01*
X163455250Y-87255250D01*
X165157250Y-87255250D01*
X165157250Y-88957250D01*
X165157250Y-88957250D01*
G37*
G36*
X129969233Y-85309585D02*
G01*
X130137990Y-85379486D01*
X130289868Y-85480968D01*
X130419032Y-85610132D01*
X130520514Y-85762010D01*
X130590415Y-85930767D01*
X130626050Y-86109918D01*
X130626050Y-86292582D01*
X130590415Y-86471733D01*
X130520514Y-86640490D01*
X130419032Y-86792368D01*
X130289868Y-86921532D01*
X130137990Y-87023014D01*
X129969233Y-87092915D01*
X129790082Y-87128550D01*
X129607418Y-87128550D01*
X129428267Y-87092915D01*
X129259510Y-87023014D01*
X129107632Y-86921532D01*
X128978468Y-86792368D01*
X128876986Y-86640490D01*
X128807085Y-86471733D01*
X128771450Y-86292582D01*
X128771450Y-86109918D01*
X128807085Y-85930767D01*
X128876986Y-85762010D01*
X128978468Y-85610132D01*
X129107632Y-85480968D01*
X129259510Y-85379486D01*
X129428267Y-85309585D01*
X129607418Y-85273950D01*
X129790082Y-85273950D01*
X129969233Y-85309585D01*
X129969233Y-85309585D01*
G37*
G36*
X145209233Y-85309585D02*
G01*
X145377990Y-85379486D01*
X145529868Y-85480968D01*
X145659032Y-85610132D01*
X145760514Y-85762010D01*
X145830415Y-85930767D01*
X145866050Y-86109918D01*
X145866050Y-86292582D01*
X145830415Y-86471733D01*
X145760514Y-86640490D01*
X145659032Y-86792368D01*
X145529868Y-86921532D01*
X145377990Y-87023014D01*
X145209233Y-87092915D01*
X145030082Y-87128550D01*
X144847418Y-87128550D01*
X144668267Y-87092915D01*
X144499510Y-87023014D01*
X144347632Y-86921532D01*
X144218468Y-86792368D01*
X144116986Y-86640490D01*
X144047085Y-86471733D01*
X144011450Y-86292582D01*
X144011450Y-86109918D01*
X144047085Y-85930767D01*
X144116986Y-85762010D01*
X144218468Y-85610132D01*
X144347632Y-85480968D01*
X144499510Y-85379486D01*
X144668267Y-85309585D01*
X144847418Y-85273950D01*
X145030082Y-85273950D01*
X145209233Y-85309585D01*
X145209233Y-85309585D01*
G37*
G36*
X181141823Y-85203813D02*
G01*
X181302242Y-85252476D01*
X181409085Y-85309585D01*
X181450078Y-85331496D01*
X181579659Y-85437841D01*
X181686004Y-85567422D01*
X181686005Y-85567424D01*
X181765024Y-85715258D01*
X181813687Y-85875677D01*
X181830117Y-86042500D01*
X181813687Y-86209323D01*
X181765024Y-86369742D01*
X181694114Y-86502406D01*
X181686004Y-86517578D01*
X181579659Y-86647159D01*
X181450078Y-86753504D01*
X181450076Y-86753505D01*
X181302242Y-86832524D01*
X181141823Y-86881187D01*
X181016804Y-86893500D01*
X180933196Y-86893500D01*
X180808177Y-86881187D01*
X180647758Y-86832524D01*
X180499924Y-86753505D01*
X180499922Y-86753504D01*
X180370341Y-86647159D01*
X180263996Y-86517578D01*
X180255886Y-86502406D01*
X180184976Y-86369742D01*
X180136313Y-86209323D01*
X180119883Y-86042500D01*
X180136313Y-85875677D01*
X180184976Y-85715258D01*
X180263995Y-85567424D01*
X180263996Y-85567422D01*
X180370341Y-85437841D01*
X180499922Y-85331496D01*
X180540915Y-85309585D01*
X180647758Y-85252476D01*
X180808177Y-85203813D01*
X180933196Y-85191500D01*
X181016804Y-85191500D01*
X181141823Y-85203813D01*
X181141823Y-85203813D01*
G37*
G36*
X176015224Y-80583684D02*
G01*
X176182748Y-80653075D01*
X176387373Y-80737833D01*
X176722298Y-80961623D01*
X177007127Y-81246452D01*
X177230917Y-81581377D01*
X177263312Y-81659586D01*
X177385066Y-81953526D01*
X177463650Y-82348594D01*
X177463650Y-82751406D01*
X177385066Y-83146474D01*
X177334201Y-83269272D01*
X177230917Y-83518623D01*
X177007127Y-83853548D01*
X176722298Y-84138377D01*
X176387373Y-84362167D01*
X176233224Y-84426017D01*
X176015224Y-84516316D01*
X175620156Y-84594900D01*
X175217344Y-84594900D01*
X174822276Y-84516316D01*
X174604276Y-84426017D01*
X174450127Y-84362167D01*
X174115202Y-84138377D01*
X173830373Y-83853548D01*
X173606583Y-83518623D01*
X173503299Y-83269272D01*
X173452434Y-83146474D01*
X173373850Y-82751406D01*
X173373850Y-82348594D01*
X173452434Y-81953526D01*
X173574188Y-81659586D01*
X173606583Y-81581377D01*
X173830373Y-81246452D01*
X174115202Y-80961623D01*
X174450127Y-80737833D01*
X174654752Y-80653075D01*
X174822276Y-80583684D01*
X175217344Y-80505100D01*
X175620156Y-80505100D01*
X176015224Y-80583684D01*
X176015224Y-80583684D01*
G37*
G36*
X118865224Y-80583684D02*
G01*
X119032748Y-80653075D01*
X119237373Y-80737833D01*
X119572298Y-80961623D01*
X119857127Y-81246452D01*
X120080917Y-81581377D01*
X120113312Y-81659586D01*
X120235066Y-81953526D01*
X120313650Y-82348594D01*
X120313650Y-82751406D01*
X120235066Y-83146474D01*
X120184201Y-83269272D01*
X120080917Y-83518623D01*
X119857127Y-83853548D01*
X119572298Y-84138377D01*
X119237373Y-84362167D01*
X119083224Y-84426017D01*
X118865224Y-84516316D01*
X118470156Y-84594900D01*
X118067344Y-84594900D01*
X117672276Y-84516316D01*
X117454276Y-84426017D01*
X117300127Y-84362167D01*
X116965202Y-84138377D01*
X116680373Y-83853548D01*
X116456583Y-83518623D01*
X116353299Y-83269272D01*
X116302434Y-83146474D01*
X116223850Y-82751406D01*
X116223850Y-82348594D01*
X116302434Y-81953526D01*
X116424188Y-81659586D01*
X116456583Y-81581377D01*
X116680373Y-81246452D01*
X116965202Y-80961623D01*
X117300127Y-80737833D01*
X117504752Y-80653075D01*
X117672276Y-80583684D01*
X118067344Y-80505100D01*
X118470156Y-80505100D01*
X118865224Y-80583684D01*
X118865224Y-80583684D01*
G37*
G36*
X156965224Y-80583684D02*
G01*
X157132748Y-80653075D01*
X157337373Y-80737833D01*
X157672298Y-80961623D01*
X157957127Y-81246452D01*
X158180917Y-81581377D01*
X158213312Y-81659586D01*
X158335066Y-81953526D01*
X158413650Y-82348594D01*
X158413650Y-82751406D01*
X158335066Y-83146474D01*
X158284201Y-83269272D01*
X158180917Y-83518623D01*
X157957127Y-83853548D01*
X157672298Y-84138377D01*
X157337373Y-84362167D01*
X157183224Y-84426017D01*
X156965224Y-84516316D01*
X156570156Y-84594900D01*
X156167344Y-84594900D01*
X155772276Y-84516316D01*
X155554276Y-84426017D01*
X155400127Y-84362167D01*
X155065202Y-84138377D01*
X154780373Y-83853548D01*
X154556583Y-83518623D01*
X154453299Y-83269272D01*
X154402434Y-83146474D01*
X154323850Y-82751406D01*
X154323850Y-82348594D01*
X154402434Y-81953526D01*
X154524188Y-81659586D01*
X154556583Y-81581377D01*
X154780373Y-81246452D01*
X155065202Y-80961623D01*
X155400127Y-80737833D01*
X155604752Y-80653075D01*
X155772276Y-80583684D01*
X156167344Y-80505100D01*
X156570156Y-80505100D01*
X156965224Y-80583684D01*
X156965224Y-80583684D01*
G37*
G36*
X137915224Y-80583684D02*
G01*
X138082748Y-80653075D01*
X138287373Y-80737833D01*
X138622298Y-80961623D01*
X138907127Y-81246452D01*
X139130917Y-81581377D01*
X139163312Y-81659586D01*
X139285066Y-81953526D01*
X139363650Y-82348594D01*
X139363650Y-82751406D01*
X139285066Y-83146474D01*
X139234201Y-83269272D01*
X139130917Y-83518623D01*
X138907127Y-83853548D01*
X138622298Y-84138377D01*
X138287373Y-84362167D01*
X138133224Y-84426017D01*
X137915224Y-84516316D01*
X137520156Y-84594900D01*
X137117344Y-84594900D01*
X136722276Y-84516316D01*
X136504276Y-84426017D01*
X136350127Y-84362167D01*
X136015202Y-84138377D01*
X135730373Y-83853548D01*
X135506583Y-83518623D01*
X135403299Y-83269272D01*
X135352434Y-83146474D01*
X135273850Y-82751406D01*
X135273850Y-82348594D01*
X135352434Y-81953526D01*
X135474188Y-81659586D01*
X135506583Y-81581377D01*
X135730373Y-81246452D01*
X136015202Y-80961623D01*
X136350127Y-80737833D01*
X136554752Y-80653075D01*
X136722276Y-80583684D01*
X137117344Y-80505100D01*
X137520156Y-80505100D01*
X137915224Y-80583684D01*
X137915224Y-80583684D01*
G37*
G36*
X145209233Y-82769585D02*
G01*
X145377990Y-82839486D01*
X145529868Y-82940968D01*
X145659032Y-83070132D01*
X145760514Y-83222010D01*
X145830415Y-83390767D01*
X145866050Y-83569918D01*
X145866050Y-83752582D01*
X145830415Y-83931733D01*
X145760514Y-84100490D01*
X145659032Y-84252368D01*
X145529868Y-84381532D01*
X145377990Y-84483014D01*
X145209233Y-84552915D01*
X145030082Y-84588550D01*
X144847418Y-84588550D01*
X144668267Y-84552915D01*
X144499510Y-84483014D01*
X144347632Y-84381532D01*
X144218468Y-84252368D01*
X144116986Y-84100490D01*
X144047085Y-83931733D01*
X144011450Y-83752582D01*
X144011450Y-83569918D01*
X144047085Y-83390767D01*
X144116986Y-83222010D01*
X144218468Y-83070132D01*
X144347632Y-82940968D01*
X144499510Y-82839486D01*
X144668267Y-82769585D01*
X144847418Y-82733950D01*
X145030082Y-82733950D01*
X145209233Y-82769585D01*
X145209233Y-82769585D01*
G37*
G36*
X129969233Y-82769585D02*
G01*
X130137990Y-82839486D01*
X130289868Y-82940968D01*
X130419032Y-83070132D01*
X130520514Y-83222010D01*
X130590415Y-83390767D01*
X130626050Y-83569918D01*
X130626050Y-83752582D01*
X130590415Y-83931733D01*
X130520514Y-84100490D01*
X130419032Y-84252368D01*
X130289868Y-84381532D01*
X130137990Y-84483014D01*
X129969233Y-84552915D01*
X129790082Y-84588550D01*
X129607418Y-84588550D01*
X129428267Y-84552915D01*
X129259510Y-84483014D01*
X129107632Y-84381532D01*
X128978468Y-84252368D01*
X128876986Y-84100490D01*
X128807085Y-83931733D01*
X128771450Y-83752582D01*
X128771450Y-83569918D01*
X128807085Y-83390767D01*
X128876986Y-83222010D01*
X128978468Y-83070132D01*
X129107632Y-82940968D01*
X129259510Y-82839486D01*
X129428267Y-82769585D01*
X129607418Y-82733950D01*
X129790082Y-82733950D01*
X129969233Y-82769585D01*
X129969233Y-82769585D01*
G37*
G36*
X142668854Y-81659585D02*
G01*
X142837376Y-81729389D01*
X142989041Y-81830728D01*
X143118022Y-81959709D01*
X143219361Y-82111374D01*
X143289165Y-82279896D01*
X143324750Y-82458797D01*
X143324750Y-82641203D01*
X143289165Y-82820104D01*
X143219361Y-82988626D01*
X143118022Y-83140291D01*
X142989041Y-83269272D01*
X142837376Y-83370611D01*
X142668854Y-83440415D01*
X142489953Y-83476000D01*
X142307547Y-83476000D01*
X142128646Y-83440415D01*
X141960124Y-83370611D01*
X141808459Y-83269272D01*
X141679478Y-83140291D01*
X141578139Y-82988626D01*
X141508335Y-82820104D01*
X141472750Y-82641203D01*
X141472750Y-82458797D01*
X141508335Y-82279896D01*
X141578139Y-82111374D01*
X141679478Y-81959709D01*
X141808459Y-81830728D01*
X141960124Y-81729389D01*
X142128646Y-81659585D01*
X142307547Y-81624000D01*
X142489953Y-81624000D01*
X142668854Y-81659585D01*
X142668854Y-81659585D01*
G37*
G36*
X113458854Y-81659585D02*
G01*
X113627376Y-81729389D01*
X113779041Y-81830728D01*
X113908022Y-81959709D01*
X114009361Y-82111374D01*
X114079165Y-82279896D01*
X114114750Y-82458797D01*
X114114750Y-82641203D01*
X114079165Y-82820104D01*
X114009361Y-82988626D01*
X113908022Y-83140291D01*
X113779041Y-83269272D01*
X113627376Y-83370611D01*
X113458854Y-83440415D01*
X113279953Y-83476000D01*
X113097547Y-83476000D01*
X112918646Y-83440415D01*
X112750124Y-83370611D01*
X112598459Y-83269272D01*
X112469478Y-83140291D01*
X112368139Y-82988626D01*
X112298335Y-82820104D01*
X112262750Y-82641203D01*
X112262750Y-82458797D01*
X112298335Y-82279896D01*
X112368139Y-82111374D01*
X112469478Y-81959709D01*
X112598459Y-81830728D01*
X112750124Y-81729389D01*
X112918646Y-81659585D01*
X113097547Y-81624000D01*
X113279953Y-81624000D01*
X113458854Y-81659585D01*
X113458854Y-81659585D01*
G37*
G36*
X132508854Y-81659585D02*
G01*
X132677376Y-81729389D01*
X132829041Y-81830728D01*
X132958022Y-81959709D01*
X133059361Y-82111374D01*
X133129165Y-82279896D01*
X133164750Y-82458797D01*
X133164750Y-82641203D01*
X133129165Y-82820104D01*
X133059361Y-82988626D01*
X132958022Y-83140291D01*
X132829041Y-83269272D01*
X132677376Y-83370611D01*
X132508854Y-83440415D01*
X132329953Y-83476000D01*
X132147547Y-83476000D01*
X131968646Y-83440415D01*
X131800124Y-83370611D01*
X131648459Y-83269272D01*
X131519478Y-83140291D01*
X131418139Y-82988626D01*
X131348335Y-82820104D01*
X131312750Y-82641203D01*
X131312750Y-82458797D01*
X131348335Y-82279896D01*
X131418139Y-82111374D01*
X131519478Y-81959709D01*
X131648459Y-81830728D01*
X131800124Y-81729389D01*
X131968646Y-81659585D01*
X132147547Y-81624000D01*
X132329953Y-81624000D01*
X132508854Y-81659585D01*
X132508854Y-81659585D01*
G37*
G36*
X123618854Y-81659585D02*
G01*
X123787376Y-81729389D01*
X123939041Y-81830728D01*
X124068022Y-81959709D01*
X124169361Y-82111374D01*
X124239165Y-82279896D01*
X124274750Y-82458797D01*
X124274750Y-82641203D01*
X124239165Y-82820104D01*
X124169361Y-82988626D01*
X124068022Y-83140291D01*
X123939041Y-83269272D01*
X123787376Y-83370611D01*
X123618854Y-83440415D01*
X123439953Y-83476000D01*
X123257547Y-83476000D01*
X123078646Y-83440415D01*
X122910124Y-83370611D01*
X122758459Y-83269272D01*
X122629478Y-83140291D01*
X122528139Y-82988626D01*
X122458335Y-82820104D01*
X122422750Y-82641203D01*
X122422750Y-82458797D01*
X122458335Y-82279896D01*
X122528139Y-82111374D01*
X122629478Y-81959709D01*
X122758459Y-81830728D01*
X122910124Y-81729389D01*
X123078646Y-81659585D01*
X123257547Y-81624000D01*
X123439953Y-81624000D01*
X123618854Y-81659585D01*
X123618854Y-81659585D01*
G37*
G36*
X180768854Y-81659585D02*
G01*
X180937376Y-81729389D01*
X181089041Y-81830728D01*
X181218022Y-81959709D01*
X181319361Y-82111374D01*
X181389165Y-82279896D01*
X181424750Y-82458797D01*
X181424750Y-82641203D01*
X181389165Y-82820104D01*
X181319361Y-82988626D01*
X181218022Y-83140291D01*
X181089041Y-83269272D01*
X180937376Y-83370611D01*
X180768854Y-83440415D01*
X180589953Y-83476000D01*
X180407547Y-83476000D01*
X180228646Y-83440415D01*
X180060124Y-83370611D01*
X179908459Y-83269272D01*
X179779478Y-83140291D01*
X179678139Y-82988626D01*
X179608335Y-82820104D01*
X179572750Y-82641203D01*
X179572750Y-82458797D01*
X179608335Y-82279896D01*
X179678139Y-82111374D01*
X179779478Y-81959709D01*
X179908459Y-81830728D01*
X180060124Y-81729389D01*
X180228646Y-81659585D01*
X180407547Y-81624000D01*
X180589953Y-81624000D01*
X180768854Y-81659585D01*
X180768854Y-81659585D01*
G37*
G36*
X161718854Y-81659585D02*
G01*
X161887376Y-81729389D01*
X162039041Y-81830728D01*
X162168022Y-81959709D01*
X162269361Y-82111374D01*
X162339165Y-82279896D01*
X162374750Y-82458797D01*
X162374750Y-82641203D01*
X162339165Y-82820104D01*
X162269361Y-82988626D01*
X162168022Y-83140291D01*
X162039041Y-83269272D01*
X161887376Y-83370611D01*
X161718854Y-83440415D01*
X161539953Y-83476000D01*
X161357547Y-83476000D01*
X161178646Y-83440415D01*
X161010124Y-83370611D01*
X160858459Y-83269272D01*
X160729478Y-83140291D01*
X160628139Y-82988626D01*
X160558335Y-82820104D01*
X160522750Y-82641203D01*
X160522750Y-82458797D01*
X160558335Y-82279896D01*
X160628139Y-82111374D01*
X160729478Y-81959709D01*
X160858459Y-81830728D01*
X161010124Y-81729389D01*
X161178646Y-81659585D01*
X161357547Y-81624000D01*
X161539953Y-81624000D01*
X161718854Y-81659585D01*
X161718854Y-81659585D01*
G37*
G36*
X151558854Y-81659585D02*
G01*
X151727376Y-81729389D01*
X151879041Y-81830728D01*
X152008022Y-81959709D01*
X152109361Y-82111374D01*
X152179165Y-82279896D01*
X152214750Y-82458797D01*
X152214750Y-82641203D01*
X152179165Y-82820104D01*
X152109361Y-82988626D01*
X152008022Y-83140291D01*
X151879041Y-83269272D01*
X151727376Y-83370611D01*
X151558854Y-83440415D01*
X151379953Y-83476000D01*
X151197547Y-83476000D01*
X151018646Y-83440415D01*
X150850124Y-83370611D01*
X150698459Y-83269272D01*
X150569478Y-83140291D01*
X150468139Y-82988626D01*
X150398335Y-82820104D01*
X150362750Y-82641203D01*
X150362750Y-82458797D01*
X150398335Y-82279896D01*
X150468139Y-82111374D01*
X150569478Y-81959709D01*
X150698459Y-81830728D01*
X150850124Y-81729389D01*
X151018646Y-81659585D01*
X151197547Y-81624000D01*
X151379953Y-81624000D01*
X151558854Y-81659585D01*
X151558854Y-81659585D01*
G37*
G36*
X170608854Y-81659585D02*
G01*
X170777376Y-81729389D01*
X170929041Y-81830728D01*
X171058022Y-81959709D01*
X171159361Y-82111374D01*
X171229165Y-82279896D01*
X171264750Y-82458797D01*
X171264750Y-82641203D01*
X171229165Y-82820104D01*
X171159361Y-82988626D01*
X171058022Y-83140291D01*
X170929041Y-83269272D01*
X170777376Y-83370611D01*
X170608854Y-83440415D01*
X170429953Y-83476000D01*
X170247547Y-83476000D01*
X170068646Y-83440415D01*
X169900124Y-83370611D01*
X169748459Y-83269272D01*
X169619478Y-83140291D01*
X169518139Y-82988626D01*
X169448335Y-82820104D01*
X169412750Y-82641203D01*
X169412750Y-82458797D01*
X169448335Y-82279896D01*
X169518139Y-82111374D01*
X169619478Y-81959709D01*
X169748459Y-81830728D01*
X169900124Y-81729389D01*
X170068646Y-81659585D01*
X170247547Y-81624000D01*
X170429953Y-81624000D01*
X170608854Y-81659585D01*
X170608854Y-81659585D01*
G37*
G36*
X145209233Y-80229585D02*
G01*
X145377990Y-80299486D01*
X145529868Y-80400968D01*
X145659032Y-80530132D01*
X145760514Y-80682010D01*
X145830415Y-80850767D01*
X145866050Y-81029918D01*
X145866050Y-81212582D01*
X145830415Y-81391733D01*
X145760514Y-81560490D01*
X145659032Y-81712368D01*
X145529868Y-81841532D01*
X145377990Y-81943014D01*
X145209233Y-82012915D01*
X145030082Y-82048550D01*
X144847418Y-82048550D01*
X144668267Y-82012915D01*
X144499510Y-81943014D01*
X144347632Y-81841532D01*
X144218468Y-81712368D01*
X144116986Y-81560490D01*
X144047085Y-81391733D01*
X144011450Y-81212582D01*
X144011450Y-81029918D01*
X144047085Y-80850767D01*
X144116986Y-80682010D01*
X144218468Y-80530132D01*
X144347632Y-80400968D01*
X144499510Y-80299486D01*
X144668267Y-80229585D01*
X144847418Y-80193950D01*
X145030082Y-80193950D01*
X145209233Y-80229585D01*
X145209233Y-80229585D01*
G37*
G36*
X129969233Y-80229585D02*
G01*
X130137990Y-80299486D01*
X130289868Y-80400968D01*
X130419032Y-80530132D01*
X130520514Y-80682010D01*
X130590415Y-80850767D01*
X130626050Y-81029918D01*
X130626050Y-81212582D01*
X130590415Y-81391733D01*
X130520514Y-81560490D01*
X130419032Y-81712368D01*
X130289868Y-81841532D01*
X130137990Y-81943014D01*
X129969233Y-82012915D01*
X129790082Y-82048550D01*
X129607418Y-82048550D01*
X129428267Y-82012915D01*
X129259510Y-81943014D01*
X129107632Y-81841532D01*
X128978468Y-81712368D01*
X128876986Y-81560490D01*
X128807085Y-81391733D01*
X128771450Y-81212582D01*
X128771450Y-81029918D01*
X128807085Y-80850767D01*
X128876986Y-80682010D01*
X128978468Y-80530132D01*
X129107632Y-80400968D01*
X129259510Y-80299486D01*
X129428267Y-80229585D01*
X129607418Y-80193950D01*
X129790082Y-80193950D01*
X129969233Y-80229585D01*
X129969233Y-80229585D01*
G37*
G36*
X148598073Y-79647563D02*
G01*
X148758492Y-79696226D01*
X148814195Y-79726000D01*
X148906328Y-79775246D01*
X149035909Y-79881591D01*
X149142254Y-80011172D01*
X149142255Y-80011174D01*
X149221274Y-80159008D01*
X149269937Y-80319427D01*
X149286367Y-80486250D01*
X149269937Y-80653073D01*
X149221274Y-80813492D01*
X149207973Y-80838376D01*
X149142254Y-80961328D01*
X149035909Y-81090909D01*
X148906328Y-81197254D01*
X148906326Y-81197255D01*
X148758492Y-81276274D01*
X148598073Y-81324937D01*
X148473054Y-81337250D01*
X148389446Y-81337250D01*
X148264427Y-81324937D01*
X148104008Y-81276274D01*
X147956174Y-81197255D01*
X147956172Y-81197254D01*
X147826591Y-81090909D01*
X147720246Y-80961328D01*
X147654527Y-80838376D01*
X147641226Y-80813492D01*
X147592563Y-80653073D01*
X147576133Y-80486250D01*
X147592563Y-80319427D01*
X147641226Y-80159008D01*
X147720245Y-80011174D01*
X147720246Y-80011172D01*
X147826591Y-79881591D01*
X147956172Y-79775246D01*
X148048305Y-79726000D01*
X148104008Y-79696226D01*
X148264427Y-79647563D01*
X148389446Y-79635250D01*
X148473054Y-79635250D01*
X148598073Y-79647563D01*
X148598073Y-79647563D01*
G37*
G36*
X164473073Y-79647563D02*
G01*
X164633492Y-79696226D01*
X164689195Y-79726000D01*
X164781328Y-79775246D01*
X164910909Y-79881591D01*
X165017254Y-80011172D01*
X165017255Y-80011174D01*
X165096274Y-80159008D01*
X165144937Y-80319427D01*
X165161367Y-80486250D01*
X165144937Y-80653073D01*
X165096274Y-80813492D01*
X165082973Y-80838376D01*
X165017254Y-80961328D01*
X164910909Y-81090909D01*
X164781328Y-81197254D01*
X164781326Y-81197255D01*
X164633492Y-81276274D01*
X164473073Y-81324937D01*
X164348054Y-81337250D01*
X164264446Y-81337250D01*
X164139427Y-81324937D01*
X163979008Y-81276274D01*
X163831174Y-81197255D01*
X163831172Y-81197254D01*
X163701591Y-81090909D01*
X163595246Y-80961328D01*
X163529527Y-80838376D01*
X163516226Y-80813492D01*
X163467563Y-80653073D01*
X163451133Y-80486250D01*
X163467563Y-80319427D01*
X163516226Y-80159008D01*
X163595245Y-80011174D01*
X163595246Y-80011172D01*
X163701591Y-79881591D01*
X163831172Y-79775246D01*
X163923305Y-79726000D01*
X163979008Y-79696226D01*
X164139427Y-79647563D01*
X164264446Y-79635250D01*
X164348054Y-79635250D01*
X164473073Y-79647563D01*
X164473073Y-79647563D01*
G37*
G36*
X115791955Y-77373881D02*
G01*
X115797395Y-77374000D01*
X115884578Y-77374000D01*
X115900847Y-77377236D01*
X115919706Y-77379515D01*
X115936282Y-77380246D01*
X116020973Y-77401010D01*
X116026268Y-77402184D01*
X116111777Y-77419193D01*
X116127112Y-77425545D01*
X116145151Y-77431455D01*
X116161271Y-77435407D01*
X116240254Y-77472280D01*
X116245244Y-77474477D01*
X116325795Y-77507842D01*
X116339591Y-77517060D01*
X116356143Y-77526382D01*
X116371176Y-77533400D01*
X116441444Y-77584971D01*
X116445942Y-77588122D01*
X116518406Y-77636541D01*
X116530133Y-77648268D01*
X116544559Y-77660648D01*
X116557929Y-77670461D01*
X116557930Y-77670462D01*
X116616771Y-77734733D01*
X116620579Y-77738714D01*
X116682209Y-77800344D01*
X116691424Y-77814135D01*
X116703146Y-77829078D01*
X116714355Y-77841321D01*
X116759549Y-77915874D01*
X116762496Y-77920501D01*
X116810908Y-77992955D01*
X116817255Y-78008277D01*
X116825842Y-78025231D01*
X116834441Y-78039417D01*
X116864228Y-78121368D01*
X116866202Y-78126448D01*
X116899557Y-78206973D01*
X116899557Y-78206974D01*
X116902791Y-78223233D01*
X116907908Y-78241542D01*
X116913575Y-78257134D01*
X116926805Y-78343345D01*
X116927751Y-78348713D01*
X116944750Y-78434173D01*
X116944750Y-78450752D01*
X116946194Y-78469692D01*
X116948713Y-78486104D01*
X116944870Y-78573249D01*
X116944750Y-78578689D01*
X116944750Y-78665825D01*
X116941516Y-78682083D01*
X116939238Y-78700941D01*
X116938506Y-78717531D01*
X116917738Y-78802237D01*
X116916562Y-78807537D01*
X116899557Y-78893027D01*
X116893207Y-78908357D01*
X116887299Y-78926393D01*
X116883345Y-78942520D01*
X116846461Y-79021526D01*
X116844261Y-79026523D01*
X116810908Y-79107045D01*
X116801694Y-79120835D01*
X116792372Y-79137387D01*
X116785352Y-79152424D01*
X116733761Y-79222720D01*
X116730616Y-79227210D01*
X116682211Y-79299654D01*
X116625210Y-79356655D01*
X116620561Y-79361563D01*
X115687942Y-80400969D01*
X115295473Y-80838376D01*
X115167429Y-80955602D01*
X115068380Y-81015646D01*
X114969333Y-81075689D01*
X114751616Y-81154823D01*
X114522645Y-81189961D01*
X114291220Y-81179754D01*
X114066231Y-81124593D01*
X113961477Y-81075689D01*
X113856329Y-81026602D01*
X113767390Y-80961328D01*
X113669573Y-80889539D01*
X113595144Y-80808241D01*
X113513148Y-80718679D01*
X113431314Y-80583685D01*
X113393061Y-80520583D01*
X113313927Y-80302866D01*
X113278789Y-80073895D01*
X113288996Y-79842470D01*
X113344157Y-79617481D01*
X113411647Y-79472915D01*
X113442148Y-79407580D01*
X113445500Y-79403013D01*
X113544864Y-79267622D01*
X114299995Y-78426027D01*
X114831537Y-77833621D01*
X114842431Y-77819589D01*
X114855289Y-77800346D01*
X114912323Y-77743312D01*
X114916973Y-77738403D01*
X114932028Y-77721624D01*
X114953451Y-77702011D01*
X114957432Y-77698203D01*
X115019096Y-77636539D01*
X115032893Y-77627320D01*
X115047852Y-77615585D01*
X115060071Y-77604398D01*
X115092135Y-77584961D01*
X115134580Y-77559231D01*
X115139171Y-77556308D01*
X115211705Y-77507842D01*
X115227050Y-77501486D01*
X115243998Y-77492901D01*
X115258166Y-77484312D01*
X115258167Y-77484312D01*
X115258168Y-77484311D01*
X115340062Y-77454545D01*
X115345160Y-77452563D01*
X115425723Y-77419193D01*
X115442002Y-77415955D01*
X115460292Y-77410844D01*
X115475885Y-77405177D01*
X115562050Y-77391954D01*
X115567413Y-77391009D01*
X115652923Y-77374000D01*
X115669516Y-77374000D01*
X115688459Y-77372555D01*
X115704856Y-77370039D01*
X115791955Y-77373881D01*
X115791955Y-77373881D01*
G37*
G36*
X172941955Y-77373881D02*
G01*
X172947395Y-77374000D01*
X173034578Y-77374000D01*
X173050847Y-77377236D01*
X173069706Y-77379515D01*
X173086282Y-77380246D01*
X173170973Y-77401010D01*
X173176268Y-77402184D01*
X173261777Y-77419193D01*
X173277112Y-77425545D01*
X173295151Y-77431455D01*
X173311271Y-77435407D01*
X173390254Y-77472280D01*
X173395244Y-77474477D01*
X173475795Y-77507842D01*
X173489591Y-77517060D01*
X173506143Y-77526382D01*
X173521176Y-77533400D01*
X173591444Y-77584971D01*
X173595942Y-77588122D01*
X173668406Y-77636541D01*
X173680133Y-77648268D01*
X173694559Y-77660648D01*
X173707929Y-77670461D01*
X173707930Y-77670462D01*
X173766771Y-77734733D01*
X173770579Y-77738714D01*
X173832209Y-77800344D01*
X173841424Y-77814135D01*
X173853146Y-77829078D01*
X173864355Y-77841321D01*
X173909549Y-77915874D01*
X173912496Y-77920501D01*
X173960908Y-77992955D01*
X173967255Y-78008277D01*
X173975842Y-78025231D01*
X173984441Y-78039417D01*
X174014228Y-78121368D01*
X174016202Y-78126448D01*
X174049557Y-78206973D01*
X174049557Y-78206974D01*
X174052791Y-78223233D01*
X174057908Y-78241542D01*
X174063575Y-78257134D01*
X174076805Y-78343345D01*
X174077751Y-78348713D01*
X174094750Y-78434173D01*
X174094750Y-78450752D01*
X174096194Y-78469692D01*
X174098713Y-78486104D01*
X174094870Y-78573249D01*
X174094750Y-78578689D01*
X174094750Y-78665825D01*
X174091516Y-78682083D01*
X174089238Y-78700941D01*
X174088506Y-78717531D01*
X174067738Y-78802237D01*
X174066562Y-78807537D01*
X174049557Y-78893027D01*
X174043207Y-78908357D01*
X174037299Y-78926393D01*
X174033345Y-78942520D01*
X173996461Y-79021526D01*
X173994261Y-79026523D01*
X173960908Y-79107045D01*
X173951694Y-79120835D01*
X173942372Y-79137387D01*
X173935352Y-79152424D01*
X173883761Y-79222720D01*
X173880616Y-79227210D01*
X173832211Y-79299654D01*
X173775210Y-79356655D01*
X173770561Y-79361563D01*
X172837942Y-80400969D01*
X172445473Y-80838376D01*
X172317429Y-80955602D01*
X172218380Y-81015646D01*
X172119333Y-81075689D01*
X171901616Y-81154823D01*
X171672645Y-81189961D01*
X171441220Y-81179754D01*
X171216231Y-81124593D01*
X171111477Y-81075689D01*
X171006329Y-81026602D01*
X170917390Y-80961328D01*
X170819573Y-80889539D01*
X170745144Y-80808241D01*
X170663148Y-80718679D01*
X170581314Y-80583685D01*
X170543061Y-80520583D01*
X170463927Y-80302866D01*
X170428789Y-80073895D01*
X170438996Y-79842470D01*
X170494157Y-79617481D01*
X170561647Y-79472915D01*
X170592148Y-79407580D01*
X170595500Y-79403013D01*
X170694864Y-79267622D01*
X171449995Y-78426027D01*
X171981537Y-77833621D01*
X171992431Y-77819589D01*
X172005289Y-77800346D01*
X172062323Y-77743312D01*
X172066973Y-77738403D01*
X172082028Y-77721624D01*
X172103451Y-77702011D01*
X172107432Y-77698203D01*
X172169096Y-77636539D01*
X172182893Y-77627320D01*
X172197852Y-77615585D01*
X172210071Y-77604398D01*
X172242135Y-77584961D01*
X172284580Y-77559231D01*
X172289171Y-77556308D01*
X172361705Y-77507842D01*
X172377050Y-77501486D01*
X172393998Y-77492901D01*
X172408166Y-77484312D01*
X172408167Y-77484312D01*
X172408168Y-77484311D01*
X172490062Y-77454545D01*
X172495160Y-77452563D01*
X172575723Y-77419193D01*
X172592002Y-77415955D01*
X172610292Y-77410844D01*
X172625885Y-77405177D01*
X172712050Y-77391954D01*
X172717413Y-77391009D01*
X172802923Y-77374000D01*
X172819516Y-77374000D01*
X172838459Y-77372555D01*
X172854856Y-77370039D01*
X172941955Y-77373881D01*
X172941955Y-77373881D01*
G37*
G36*
X153891955Y-77373881D02*
G01*
X153897395Y-77374000D01*
X153984578Y-77374000D01*
X154000847Y-77377236D01*
X154019706Y-77379515D01*
X154036282Y-77380246D01*
X154120973Y-77401010D01*
X154126268Y-77402184D01*
X154211777Y-77419193D01*
X154227112Y-77425545D01*
X154245151Y-77431455D01*
X154261271Y-77435407D01*
X154340254Y-77472280D01*
X154345244Y-77474477D01*
X154425795Y-77507842D01*
X154439591Y-77517060D01*
X154456143Y-77526382D01*
X154471176Y-77533400D01*
X154541444Y-77584971D01*
X154545942Y-77588122D01*
X154618406Y-77636541D01*
X154630133Y-77648268D01*
X154644559Y-77660648D01*
X154657929Y-77670461D01*
X154657930Y-77670462D01*
X154716771Y-77734733D01*
X154720579Y-77738714D01*
X154782209Y-77800344D01*
X154791424Y-77814135D01*
X154803146Y-77829078D01*
X154814355Y-77841321D01*
X154859549Y-77915874D01*
X154862496Y-77920501D01*
X154910908Y-77992955D01*
X154917255Y-78008277D01*
X154925842Y-78025231D01*
X154934441Y-78039417D01*
X154964228Y-78121368D01*
X154966202Y-78126448D01*
X154999557Y-78206973D01*
X154999557Y-78206974D01*
X155002791Y-78223233D01*
X155007908Y-78241542D01*
X155013575Y-78257134D01*
X155026805Y-78343345D01*
X155027751Y-78348713D01*
X155044750Y-78434173D01*
X155044750Y-78450752D01*
X155046194Y-78469692D01*
X155048713Y-78486104D01*
X155044870Y-78573249D01*
X155044750Y-78578689D01*
X155044750Y-78665825D01*
X155041516Y-78682083D01*
X155039238Y-78700941D01*
X155038506Y-78717531D01*
X155017738Y-78802237D01*
X155016562Y-78807537D01*
X154999557Y-78893027D01*
X154993207Y-78908357D01*
X154987299Y-78926393D01*
X154983345Y-78942520D01*
X154946461Y-79021526D01*
X154944261Y-79026523D01*
X154910908Y-79107045D01*
X154901694Y-79120835D01*
X154892372Y-79137387D01*
X154885352Y-79152424D01*
X154833761Y-79222720D01*
X154830616Y-79227210D01*
X154782211Y-79299654D01*
X154725210Y-79356655D01*
X154720561Y-79361563D01*
X153787942Y-80400969D01*
X153395473Y-80838376D01*
X153267429Y-80955602D01*
X153168380Y-81015646D01*
X153069333Y-81075689D01*
X152851616Y-81154823D01*
X152622645Y-81189961D01*
X152391220Y-81179754D01*
X152166231Y-81124593D01*
X152061477Y-81075689D01*
X151956329Y-81026602D01*
X151867390Y-80961328D01*
X151769573Y-80889539D01*
X151695144Y-80808241D01*
X151613148Y-80718679D01*
X151531314Y-80583685D01*
X151493061Y-80520583D01*
X151413927Y-80302866D01*
X151378789Y-80073895D01*
X151388996Y-79842470D01*
X151444157Y-79617481D01*
X151511647Y-79472915D01*
X151542148Y-79407580D01*
X151545500Y-79403013D01*
X151644864Y-79267622D01*
X152399995Y-78426027D01*
X152931537Y-77833621D01*
X152942431Y-77819589D01*
X152955289Y-77800346D01*
X153012323Y-77743312D01*
X153016973Y-77738403D01*
X153032028Y-77721624D01*
X153053451Y-77702011D01*
X153057432Y-77698203D01*
X153119096Y-77636539D01*
X153132893Y-77627320D01*
X153147852Y-77615585D01*
X153160071Y-77604398D01*
X153192135Y-77584961D01*
X153234580Y-77559231D01*
X153239171Y-77556308D01*
X153311705Y-77507842D01*
X153327050Y-77501486D01*
X153343998Y-77492901D01*
X153358166Y-77484312D01*
X153358167Y-77484312D01*
X153358168Y-77484311D01*
X153440062Y-77454545D01*
X153445160Y-77452563D01*
X153525723Y-77419193D01*
X153542002Y-77415955D01*
X153560292Y-77410844D01*
X153575885Y-77405177D01*
X153662050Y-77391954D01*
X153667413Y-77391009D01*
X153752923Y-77374000D01*
X153769516Y-77374000D01*
X153788459Y-77372555D01*
X153804856Y-77370039D01*
X153891955Y-77373881D01*
X153891955Y-77373881D01*
G37*
G36*
X134841955Y-77373881D02*
G01*
X134847395Y-77374000D01*
X134934578Y-77374000D01*
X134950847Y-77377236D01*
X134969706Y-77379515D01*
X134986282Y-77380246D01*
X135070973Y-77401010D01*
X135076268Y-77402184D01*
X135161777Y-77419193D01*
X135177112Y-77425545D01*
X135195151Y-77431455D01*
X135211271Y-77435407D01*
X135290254Y-77472280D01*
X135295244Y-77474477D01*
X135375795Y-77507842D01*
X135389591Y-77517060D01*
X135406143Y-77526382D01*
X135421176Y-77533400D01*
X135491444Y-77584971D01*
X135495942Y-77588122D01*
X135568406Y-77636541D01*
X135580133Y-77648268D01*
X135594559Y-77660648D01*
X135607929Y-77670461D01*
X135607930Y-77670462D01*
X135666771Y-77734733D01*
X135670579Y-77738714D01*
X135732209Y-77800344D01*
X135741424Y-77814135D01*
X135753146Y-77829078D01*
X135764355Y-77841321D01*
X135809549Y-77915874D01*
X135812496Y-77920501D01*
X135860908Y-77992955D01*
X135867255Y-78008277D01*
X135875842Y-78025231D01*
X135884441Y-78039417D01*
X135914228Y-78121368D01*
X135916202Y-78126448D01*
X135949557Y-78206973D01*
X135949557Y-78206974D01*
X135952791Y-78223233D01*
X135957908Y-78241542D01*
X135963575Y-78257134D01*
X135976805Y-78343345D01*
X135977751Y-78348713D01*
X135994750Y-78434173D01*
X135994750Y-78450752D01*
X135996194Y-78469692D01*
X135998713Y-78486104D01*
X135994870Y-78573249D01*
X135994750Y-78578689D01*
X135994750Y-78665825D01*
X135991516Y-78682083D01*
X135989238Y-78700941D01*
X135988506Y-78717531D01*
X135967738Y-78802237D01*
X135966562Y-78807537D01*
X135949557Y-78893027D01*
X135943207Y-78908357D01*
X135937299Y-78926393D01*
X135933345Y-78942520D01*
X135896461Y-79021526D01*
X135894261Y-79026523D01*
X135860908Y-79107045D01*
X135851694Y-79120835D01*
X135842372Y-79137387D01*
X135835352Y-79152424D01*
X135783761Y-79222720D01*
X135780616Y-79227210D01*
X135732211Y-79299654D01*
X135675210Y-79356655D01*
X135670561Y-79361563D01*
X134737942Y-80400969D01*
X134345473Y-80838376D01*
X134217429Y-80955602D01*
X134118380Y-81015646D01*
X134019333Y-81075689D01*
X133801616Y-81154823D01*
X133572645Y-81189961D01*
X133341220Y-81179754D01*
X133116231Y-81124593D01*
X133011477Y-81075689D01*
X132906329Y-81026602D01*
X132817390Y-80961328D01*
X132719573Y-80889539D01*
X132645144Y-80808241D01*
X132563148Y-80718679D01*
X132481314Y-80583685D01*
X132443061Y-80520583D01*
X132363927Y-80302866D01*
X132328789Y-80073895D01*
X132338996Y-79842470D01*
X132394157Y-79617481D01*
X132461647Y-79472915D01*
X132492148Y-79407580D01*
X132495500Y-79403013D01*
X132594864Y-79267622D01*
X133349995Y-78426027D01*
X133881537Y-77833621D01*
X133892431Y-77819589D01*
X133905289Y-77800346D01*
X133962323Y-77743312D01*
X133966973Y-77738403D01*
X133982028Y-77721624D01*
X134003451Y-77702011D01*
X134007432Y-77698203D01*
X134069096Y-77636539D01*
X134082893Y-77627320D01*
X134097852Y-77615585D01*
X134110071Y-77604398D01*
X134142135Y-77584961D01*
X134184580Y-77559231D01*
X134189171Y-77556308D01*
X134261705Y-77507842D01*
X134277050Y-77501486D01*
X134293998Y-77492901D01*
X134308166Y-77484312D01*
X134308167Y-77484312D01*
X134308168Y-77484311D01*
X134390062Y-77454545D01*
X134395160Y-77452563D01*
X134475723Y-77419193D01*
X134492002Y-77415955D01*
X134510292Y-77410844D01*
X134525885Y-77405177D01*
X134612050Y-77391954D01*
X134617413Y-77391009D01*
X134702923Y-77374000D01*
X134719516Y-77374000D01*
X134738459Y-77372555D01*
X134754856Y-77370039D01*
X134841955Y-77373881D01*
X134841955Y-77373881D01*
G37*
G36*
X129969233Y-77689585D02*
G01*
X130137990Y-77759486D01*
X130289868Y-77860968D01*
X130419032Y-77990132D01*
X130520514Y-78142010D01*
X130590415Y-78310767D01*
X130626050Y-78489918D01*
X130626050Y-78672582D01*
X130590415Y-78851733D01*
X130520514Y-79020490D01*
X130419032Y-79172368D01*
X130289868Y-79301532D01*
X130137990Y-79403014D01*
X129969233Y-79472915D01*
X129790082Y-79508550D01*
X129607418Y-79508550D01*
X129428267Y-79472915D01*
X129259510Y-79403014D01*
X129107632Y-79301532D01*
X128978468Y-79172368D01*
X128876986Y-79020490D01*
X128807085Y-78851733D01*
X128771450Y-78672582D01*
X128771450Y-78489918D01*
X128807085Y-78310767D01*
X128876986Y-78142010D01*
X128978468Y-77990132D01*
X129107632Y-77860968D01*
X129259510Y-77759486D01*
X129428267Y-77689585D01*
X129607418Y-77653950D01*
X129790082Y-77653950D01*
X129969233Y-77689585D01*
X129969233Y-77689585D01*
G37*
G36*
X145209233Y-77689585D02*
G01*
X145377990Y-77759486D01*
X145529868Y-77860968D01*
X145659032Y-77990132D01*
X145760514Y-78142010D01*
X145830415Y-78310767D01*
X145866050Y-78489918D01*
X145866050Y-78672582D01*
X145830415Y-78851733D01*
X145760514Y-79020490D01*
X145659032Y-79172368D01*
X145529868Y-79301532D01*
X145377990Y-79403014D01*
X145209233Y-79472915D01*
X145030082Y-79508550D01*
X144847418Y-79508550D01*
X144668267Y-79472915D01*
X144499510Y-79403014D01*
X144347632Y-79301532D01*
X144218468Y-79172368D01*
X144116986Y-79020490D01*
X144047085Y-78851733D01*
X144011450Y-78672582D01*
X144011450Y-78489918D01*
X144047085Y-78310767D01*
X144116986Y-78142010D01*
X144218468Y-77990132D01*
X144347632Y-77860968D01*
X144499510Y-77759486D01*
X144668267Y-77689585D01*
X144847418Y-77653950D01*
X145030082Y-77653950D01*
X145209233Y-77689585D01*
X145209233Y-77689585D01*
G37*
G36*
X178046877Y-76292261D02*
G01*
X178067650Y-76294000D01*
X178074577Y-76294000D01*
X178169504Y-76312882D01*
X178173098Y-76313542D01*
X178268480Y-76329624D01*
X178274953Y-76332085D01*
X178294978Y-76337841D01*
X178301777Y-76339193D01*
X178364164Y-76365034D01*
X178391193Y-76376230D01*
X178394594Y-76377581D01*
X178485005Y-76411961D01*
X178490877Y-76415640D01*
X178509386Y-76425187D01*
X178515795Y-76427842D01*
X178596313Y-76481642D01*
X178599304Y-76483578D01*
X178681307Y-76534959D01*
X178686334Y-76539700D01*
X178702646Y-76552691D01*
X178708402Y-76556537D01*
X178776860Y-76624995D01*
X178779439Y-76627499D01*
X178849840Y-76693889D01*
X178853845Y-76699519D01*
X178867309Y-76715444D01*
X178872209Y-76720344D01*
X178925994Y-76800839D01*
X178928041Y-76803807D01*
X178984130Y-76882645D01*
X178986964Y-76888958D01*
X178997058Y-76907193D01*
X179000908Y-76912955D01*
X179037970Y-77002430D01*
X179039374Y-77005685D01*
X179079015Y-77093973D01*
X179080565Y-77100725D01*
X179086902Y-77120562D01*
X179089557Y-77126973D01*
X179108442Y-77221917D01*
X179109188Y-77225401D01*
X179130848Y-77319751D01*
X179130848Y-77319754D01*
X179131050Y-77326654D01*
X179133397Y-77347370D01*
X179134750Y-77354174D01*
X179134750Y-77450986D01*
X179134803Y-77454584D01*
X179135938Y-77493277D01*
X179135045Y-77506225D01*
X179134750Y-77514797D01*
X179134750Y-77585826D01*
X179128831Y-77615585D01*
X179128354Y-77617979D01*
X179126250Y-77633750D01*
X179087988Y-78188545D01*
X179059126Y-78359730D01*
X178976788Y-78576255D01*
X178853791Y-78772557D01*
X178694861Y-78941090D01*
X178506105Y-79075380D01*
X178294777Y-79170265D01*
X178068999Y-79222098D01*
X177837448Y-79228889D01*
X177837447Y-79228889D01*
X177791762Y-79221186D01*
X177609020Y-79190376D01*
X177392495Y-79108038D01*
X177196193Y-78985041D01*
X177027660Y-78826111D01*
X176893370Y-78637355D01*
X176798485Y-78426027D01*
X176746652Y-78200249D01*
X176741562Y-78026723D01*
X176782454Y-77433794D01*
X176782750Y-77425196D01*
X176782750Y-77354175D01*
X176801632Y-77259250D01*
X176802294Y-77255645D01*
X176807981Y-77221917D01*
X176818374Y-77160270D01*
X176820835Y-77153799D01*
X176826592Y-77133767D01*
X176827943Y-77126974D01*
X176830593Y-77120576D01*
X176865014Y-77037476D01*
X176866303Y-77034230D01*
X176900712Y-76943745D01*
X176904386Y-76937881D01*
X176913937Y-76919365D01*
X176916592Y-76912955D01*
X176970407Y-76832415D01*
X176972327Y-76829449D01*
X177023709Y-76747443D01*
X177028461Y-76742404D01*
X177041439Y-76726107D01*
X177045287Y-76720348D01*
X177113743Y-76651892D01*
X177116296Y-76649262D01*
X177136773Y-76627548D01*
X177182639Y-76578910D01*
X177188271Y-76574903D01*
X177204197Y-76561438D01*
X177209096Y-76556539D01*
X177289574Y-76502766D01*
X177292556Y-76500710D01*
X177371395Y-76444620D01*
X177377705Y-76441787D01*
X177395944Y-76431691D01*
X177401701Y-76427844D01*
X177401704Y-76427843D01*
X177401705Y-76427842D01*
X177491179Y-76390781D01*
X177494437Y-76389375D01*
X177582723Y-76349735D01*
X177589475Y-76348185D01*
X177609312Y-76341848D01*
X177615723Y-76339193D01*
X177710649Y-76320311D01*
X177714196Y-76319551D01*
X177808501Y-76297901D01*
X177810880Y-76297831D01*
X177815415Y-76297698D01*
X177836131Y-76295351D01*
X177842924Y-76294000D01*
X177939709Y-76294000D01*
X177943334Y-76293947D01*
X178040052Y-76291110D01*
X178046877Y-76292261D01*
X178046877Y-76292261D01*
G37*
G36*
X120896877Y-76292261D02*
G01*
X120917650Y-76294000D01*
X120924577Y-76294000D01*
X121019504Y-76312882D01*
X121023098Y-76313542D01*
X121118480Y-76329624D01*
X121124953Y-76332085D01*
X121144978Y-76337841D01*
X121151777Y-76339193D01*
X121214164Y-76365034D01*
X121241193Y-76376230D01*
X121244594Y-76377581D01*
X121335005Y-76411961D01*
X121340877Y-76415640D01*
X121359386Y-76425187D01*
X121365795Y-76427842D01*
X121446313Y-76481642D01*
X121449304Y-76483578D01*
X121531307Y-76534959D01*
X121536334Y-76539700D01*
X121552646Y-76552691D01*
X121558402Y-76556537D01*
X121626860Y-76624995D01*
X121629439Y-76627499D01*
X121699840Y-76693889D01*
X121703845Y-76699519D01*
X121717309Y-76715444D01*
X121722209Y-76720344D01*
X121775994Y-76800839D01*
X121778041Y-76803807D01*
X121834130Y-76882645D01*
X121836964Y-76888958D01*
X121847058Y-76907193D01*
X121850908Y-76912955D01*
X121887970Y-77002430D01*
X121889374Y-77005685D01*
X121929015Y-77093973D01*
X121930565Y-77100725D01*
X121936902Y-77120562D01*
X121939557Y-77126973D01*
X121958442Y-77221917D01*
X121959188Y-77225401D01*
X121980848Y-77319751D01*
X121980848Y-77319754D01*
X121981050Y-77326654D01*
X121983397Y-77347370D01*
X121984750Y-77354174D01*
X121984750Y-77450986D01*
X121984803Y-77454584D01*
X121985938Y-77493277D01*
X121985045Y-77506225D01*
X121984750Y-77514797D01*
X121984750Y-77585826D01*
X121978831Y-77615585D01*
X121978354Y-77617979D01*
X121976250Y-77633750D01*
X121937988Y-78188545D01*
X121909126Y-78359730D01*
X121826788Y-78576255D01*
X121703791Y-78772557D01*
X121544861Y-78941090D01*
X121356105Y-79075380D01*
X121144777Y-79170265D01*
X120918999Y-79222098D01*
X120687448Y-79228889D01*
X120687447Y-79228889D01*
X120641762Y-79221186D01*
X120459020Y-79190376D01*
X120242495Y-79108038D01*
X120046193Y-78985041D01*
X119877660Y-78826111D01*
X119743370Y-78637355D01*
X119648485Y-78426027D01*
X119596652Y-78200249D01*
X119591562Y-78026723D01*
X119632454Y-77433794D01*
X119632750Y-77425196D01*
X119632750Y-77354175D01*
X119651632Y-77259250D01*
X119652294Y-77255645D01*
X119657981Y-77221917D01*
X119668374Y-77160270D01*
X119670835Y-77153799D01*
X119676592Y-77133767D01*
X119677943Y-77126974D01*
X119680593Y-77120576D01*
X119715014Y-77037476D01*
X119716303Y-77034230D01*
X119750712Y-76943745D01*
X119754386Y-76937881D01*
X119763937Y-76919365D01*
X119766592Y-76912955D01*
X119820407Y-76832415D01*
X119822327Y-76829449D01*
X119873709Y-76747443D01*
X119878461Y-76742404D01*
X119891439Y-76726107D01*
X119895287Y-76720348D01*
X119963743Y-76651892D01*
X119966296Y-76649262D01*
X119986773Y-76627548D01*
X120032639Y-76578910D01*
X120038271Y-76574903D01*
X120054197Y-76561438D01*
X120059096Y-76556539D01*
X120139574Y-76502766D01*
X120142556Y-76500710D01*
X120221395Y-76444620D01*
X120227705Y-76441787D01*
X120245944Y-76431691D01*
X120251701Y-76427844D01*
X120251704Y-76427843D01*
X120251705Y-76427842D01*
X120341179Y-76390781D01*
X120344437Y-76389375D01*
X120432723Y-76349735D01*
X120439475Y-76348185D01*
X120459312Y-76341848D01*
X120465723Y-76339193D01*
X120560649Y-76320311D01*
X120564196Y-76319551D01*
X120658501Y-76297901D01*
X120660880Y-76297831D01*
X120665415Y-76297698D01*
X120686131Y-76295351D01*
X120692924Y-76294000D01*
X120789709Y-76294000D01*
X120793334Y-76293947D01*
X120890052Y-76291110D01*
X120896877Y-76292261D01*
X120896877Y-76292261D01*
G37*
G36*
X139946877Y-76292261D02*
G01*
X139967650Y-76294000D01*
X139974577Y-76294000D01*
X140069504Y-76312882D01*
X140073098Y-76313542D01*
X140168480Y-76329624D01*
X140174953Y-76332085D01*
X140194978Y-76337841D01*
X140201777Y-76339193D01*
X140264164Y-76365034D01*
X140291193Y-76376230D01*
X140294594Y-76377581D01*
X140385005Y-76411961D01*
X140390877Y-76415640D01*
X140409386Y-76425187D01*
X140415795Y-76427842D01*
X140496313Y-76481642D01*
X140499304Y-76483578D01*
X140581307Y-76534959D01*
X140586334Y-76539700D01*
X140602646Y-76552691D01*
X140608402Y-76556537D01*
X140676860Y-76624995D01*
X140679439Y-76627499D01*
X140749840Y-76693889D01*
X140753845Y-76699519D01*
X140767309Y-76715444D01*
X140772209Y-76720344D01*
X140825994Y-76800839D01*
X140828041Y-76803807D01*
X140884130Y-76882645D01*
X140886964Y-76888958D01*
X140897058Y-76907193D01*
X140900908Y-76912955D01*
X140937970Y-77002430D01*
X140939374Y-77005685D01*
X140979015Y-77093973D01*
X140980565Y-77100725D01*
X140986902Y-77120562D01*
X140989557Y-77126973D01*
X141008442Y-77221917D01*
X141009188Y-77225401D01*
X141030848Y-77319751D01*
X141030848Y-77319754D01*
X141031050Y-77326654D01*
X141033397Y-77347370D01*
X141034750Y-77354174D01*
X141034750Y-77450986D01*
X141034803Y-77454584D01*
X141035938Y-77493277D01*
X141035045Y-77506225D01*
X141034750Y-77514797D01*
X141034750Y-77585826D01*
X141028831Y-77615585D01*
X141028354Y-77617979D01*
X141026250Y-77633750D01*
X140987988Y-78188545D01*
X140959126Y-78359730D01*
X140876788Y-78576255D01*
X140753791Y-78772557D01*
X140594861Y-78941090D01*
X140406105Y-79075380D01*
X140194777Y-79170265D01*
X139968999Y-79222098D01*
X139737448Y-79228889D01*
X139737447Y-79228889D01*
X139691762Y-79221186D01*
X139509020Y-79190376D01*
X139292495Y-79108038D01*
X139096193Y-78985041D01*
X138927660Y-78826111D01*
X138793370Y-78637355D01*
X138698485Y-78426027D01*
X138646652Y-78200249D01*
X138641562Y-78026723D01*
X138682454Y-77433794D01*
X138682750Y-77425196D01*
X138682750Y-77354175D01*
X138701632Y-77259250D01*
X138702294Y-77255645D01*
X138707981Y-77221917D01*
X138718374Y-77160270D01*
X138720835Y-77153799D01*
X138726592Y-77133767D01*
X138727943Y-77126974D01*
X138730593Y-77120576D01*
X138765014Y-77037476D01*
X138766303Y-77034230D01*
X138800712Y-76943745D01*
X138804386Y-76937881D01*
X138813937Y-76919365D01*
X138816592Y-76912955D01*
X138870407Y-76832415D01*
X138872327Y-76829449D01*
X138923709Y-76747443D01*
X138928461Y-76742404D01*
X138941439Y-76726107D01*
X138945287Y-76720348D01*
X139013743Y-76651892D01*
X139016296Y-76649262D01*
X139036773Y-76627548D01*
X139082639Y-76578910D01*
X139088271Y-76574903D01*
X139104197Y-76561438D01*
X139109096Y-76556539D01*
X139189574Y-76502766D01*
X139192556Y-76500710D01*
X139271395Y-76444620D01*
X139277705Y-76441787D01*
X139295944Y-76431691D01*
X139301701Y-76427844D01*
X139301704Y-76427843D01*
X139301705Y-76427842D01*
X139391179Y-76390781D01*
X139394437Y-76389375D01*
X139482723Y-76349735D01*
X139489475Y-76348185D01*
X139509312Y-76341848D01*
X139515723Y-76339193D01*
X139610649Y-76320311D01*
X139614196Y-76319551D01*
X139708501Y-76297901D01*
X139710880Y-76297831D01*
X139715415Y-76297698D01*
X139736131Y-76295351D01*
X139742924Y-76294000D01*
X139839709Y-76294000D01*
X139843334Y-76293947D01*
X139940052Y-76291110D01*
X139946877Y-76292261D01*
X139946877Y-76292261D01*
G37*
G36*
X158996877Y-76292261D02*
G01*
X159017650Y-76294000D01*
X159024577Y-76294000D01*
X159119504Y-76312882D01*
X159123098Y-76313542D01*
X159218480Y-76329624D01*
X159224953Y-76332085D01*
X159244978Y-76337841D01*
X159251777Y-76339193D01*
X159314164Y-76365034D01*
X159341193Y-76376230D01*
X159344594Y-76377581D01*
X159435005Y-76411961D01*
X159440877Y-76415640D01*
X159459386Y-76425187D01*
X159465795Y-76427842D01*
X159546313Y-76481642D01*
X159549304Y-76483578D01*
X159631307Y-76534959D01*
X159636334Y-76539700D01*
X159652646Y-76552691D01*
X159658402Y-76556537D01*
X159726860Y-76624995D01*
X159729439Y-76627499D01*
X159799840Y-76693889D01*
X159803845Y-76699519D01*
X159817309Y-76715444D01*
X159822209Y-76720344D01*
X159875994Y-76800839D01*
X159878041Y-76803807D01*
X159934130Y-76882645D01*
X159936964Y-76888958D01*
X159947058Y-76907193D01*
X159950908Y-76912955D01*
X159987970Y-77002430D01*
X159989374Y-77005685D01*
X160029015Y-77093973D01*
X160030565Y-77100725D01*
X160036902Y-77120562D01*
X160039557Y-77126973D01*
X160058442Y-77221917D01*
X160059188Y-77225401D01*
X160080848Y-77319751D01*
X160080848Y-77319754D01*
X160081050Y-77326654D01*
X160083397Y-77347370D01*
X160084750Y-77354174D01*
X160084750Y-77450986D01*
X160084803Y-77454584D01*
X160085938Y-77493277D01*
X160085045Y-77506225D01*
X160084750Y-77514797D01*
X160084750Y-77585826D01*
X160078831Y-77615585D01*
X160078354Y-77617979D01*
X160076250Y-77633750D01*
X160037988Y-78188545D01*
X160009126Y-78359730D01*
X159926788Y-78576255D01*
X159803791Y-78772557D01*
X159644861Y-78941090D01*
X159456105Y-79075380D01*
X159244777Y-79170265D01*
X159018999Y-79222098D01*
X158787448Y-79228889D01*
X158787447Y-79228889D01*
X158741762Y-79221186D01*
X158559020Y-79190376D01*
X158342495Y-79108038D01*
X158146193Y-78985041D01*
X157977660Y-78826111D01*
X157843370Y-78637355D01*
X157748485Y-78426027D01*
X157696652Y-78200249D01*
X157691562Y-78026723D01*
X157732454Y-77433794D01*
X157732750Y-77425196D01*
X157732750Y-77354175D01*
X157751632Y-77259250D01*
X157752294Y-77255645D01*
X157757981Y-77221917D01*
X157768374Y-77160270D01*
X157770835Y-77153799D01*
X157776592Y-77133767D01*
X157777943Y-77126974D01*
X157780593Y-77120576D01*
X157815014Y-77037476D01*
X157816303Y-77034230D01*
X157850712Y-76943745D01*
X157854386Y-76937881D01*
X157863937Y-76919365D01*
X157866592Y-76912955D01*
X157920407Y-76832415D01*
X157922327Y-76829449D01*
X157973709Y-76747443D01*
X157978461Y-76742404D01*
X157991439Y-76726107D01*
X157995287Y-76720348D01*
X158063743Y-76651892D01*
X158066296Y-76649262D01*
X158086773Y-76627548D01*
X158132639Y-76578910D01*
X158138271Y-76574903D01*
X158154197Y-76561438D01*
X158159096Y-76556539D01*
X158239574Y-76502766D01*
X158242556Y-76500710D01*
X158321395Y-76444620D01*
X158327705Y-76441787D01*
X158345944Y-76431691D01*
X158351701Y-76427844D01*
X158351704Y-76427843D01*
X158351705Y-76427842D01*
X158441179Y-76390781D01*
X158444437Y-76389375D01*
X158532723Y-76349735D01*
X158539475Y-76348185D01*
X158559312Y-76341848D01*
X158565723Y-76339193D01*
X158660649Y-76320311D01*
X158664196Y-76319551D01*
X158758501Y-76297901D01*
X158760880Y-76297831D01*
X158765415Y-76297698D01*
X158786131Y-76295351D01*
X158792924Y-76294000D01*
X158889709Y-76294000D01*
X158893334Y-76293947D01*
X158990052Y-76291110D01*
X158996877Y-76292261D01*
X158996877Y-76292261D01*
G37*
G36*
X145209233Y-75149585D02*
G01*
X145377990Y-75219486D01*
X145529868Y-75320968D01*
X145659032Y-75450132D01*
X145760514Y-75602010D01*
X145830415Y-75770767D01*
X145866050Y-75949918D01*
X145866050Y-76132582D01*
X145830415Y-76311733D01*
X145760514Y-76480490D01*
X145659032Y-76632368D01*
X145529868Y-76761532D01*
X145377990Y-76863014D01*
X145209233Y-76932915D01*
X145030082Y-76968550D01*
X144847418Y-76968550D01*
X144668267Y-76932915D01*
X144499510Y-76863014D01*
X144347632Y-76761532D01*
X144218468Y-76632368D01*
X144116986Y-76480490D01*
X144047085Y-76311733D01*
X144011450Y-76132582D01*
X144011450Y-75949918D01*
X144047085Y-75770767D01*
X144116986Y-75602010D01*
X144218468Y-75450132D01*
X144347632Y-75320968D01*
X144499510Y-75219486D01*
X144668267Y-75149585D01*
X144847418Y-75113950D01*
X145030082Y-75113950D01*
X145209233Y-75149585D01*
X145209233Y-75149585D01*
G37*
G36*
X129969233Y-75149585D02*
G01*
X130137990Y-75219486D01*
X130289868Y-75320968D01*
X130419032Y-75450132D01*
X130520514Y-75602010D01*
X130590415Y-75770767D01*
X130626050Y-75949918D01*
X130626050Y-76132582D01*
X130590415Y-76311733D01*
X130520514Y-76480490D01*
X130419032Y-76632368D01*
X130289868Y-76761532D01*
X130137990Y-76863014D01*
X129969233Y-76932915D01*
X129790082Y-76968550D01*
X129607418Y-76968550D01*
X129428267Y-76932915D01*
X129259510Y-76863014D01*
X129107632Y-76761532D01*
X128978468Y-76632368D01*
X128876986Y-76480490D01*
X128807085Y-76311733D01*
X128771450Y-76132582D01*
X128771450Y-75949918D01*
X128807085Y-75770767D01*
X128876986Y-75602010D01*
X128978468Y-75450132D01*
X129107632Y-75320968D01*
X129259510Y-75219486D01*
X129428267Y-75149585D01*
X129607418Y-75113950D01*
X129790082Y-75113950D01*
X129969233Y-75149585D01*
X129969233Y-75149585D01*
G37*
G36*
X181826000Y-75463500D02*
G01*
X180124000Y-75463500D01*
X180124000Y-73761500D01*
X181826000Y-73761500D01*
X181826000Y-75463500D01*
X181826000Y-75463500D01*
G37*
G36*
X124676000Y-75463500D02*
G01*
X122974000Y-75463500D01*
X122974000Y-73761500D01*
X124676000Y-73761500D01*
X124676000Y-75463500D01*
X124676000Y-75463500D01*
G37*
G36*
X145209233Y-72609585D02*
G01*
X145377990Y-72679486D01*
X145529868Y-72780968D01*
X145659032Y-72910132D01*
X145760514Y-73062010D01*
X145830415Y-73230767D01*
X145866050Y-73409918D01*
X145866050Y-73592582D01*
X145830415Y-73771733D01*
X145760514Y-73940490D01*
X145659032Y-74092368D01*
X145529868Y-74221532D01*
X145377990Y-74323014D01*
X145209233Y-74392915D01*
X145030082Y-74428550D01*
X144847418Y-74428550D01*
X144668267Y-74392915D01*
X144499510Y-74323014D01*
X144347632Y-74221532D01*
X144218468Y-74092368D01*
X144116986Y-73940490D01*
X144047085Y-73771733D01*
X144011450Y-73592582D01*
X144011450Y-73409918D01*
X144047085Y-73230767D01*
X144116986Y-73062010D01*
X144218468Y-72910132D01*
X144347632Y-72780968D01*
X144499510Y-72679486D01*
X144668267Y-72609585D01*
X144847418Y-72573950D01*
X145030082Y-72573950D01*
X145209233Y-72609585D01*
X145209233Y-72609585D01*
G37*
G36*
X129969233Y-72609585D02*
G01*
X130137990Y-72679486D01*
X130289868Y-72780968D01*
X130419032Y-72910132D01*
X130520514Y-73062010D01*
X130590415Y-73230767D01*
X130626050Y-73409918D01*
X130626050Y-73592582D01*
X130590415Y-73771733D01*
X130520514Y-73940490D01*
X130419032Y-74092368D01*
X130289868Y-74221532D01*
X130137990Y-74323014D01*
X129969233Y-74392915D01*
X129790082Y-74428550D01*
X129607418Y-74428550D01*
X129428267Y-74392915D01*
X129259510Y-74323014D01*
X129107632Y-74221532D01*
X128978468Y-74092368D01*
X128876986Y-73940490D01*
X128807085Y-73771733D01*
X128771450Y-73592582D01*
X128771450Y-73409918D01*
X128807085Y-73230767D01*
X128876986Y-73062010D01*
X128978468Y-72910132D01*
X129107632Y-72780968D01*
X129259510Y-72679486D01*
X129428267Y-72609585D01*
X129607418Y-72573950D01*
X129790082Y-72573950D01*
X129969233Y-72609585D01*
X129969233Y-72609585D01*
G37*
G36*
X129969233Y-70069585D02*
G01*
X130137990Y-70139486D01*
X130289868Y-70240968D01*
X130419032Y-70370132D01*
X130520514Y-70522010D01*
X130590415Y-70690767D01*
X130626050Y-70869918D01*
X130626050Y-71052582D01*
X130590415Y-71231733D01*
X130520514Y-71400490D01*
X130419032Y-71552368D01*
X130289868Y-71681532D01*
X130137990Y-71783014D01*
X129969233Y-71852915D01*
X129790082Y-71888550D01*
X129607418Y-71888550D01*
X129428267Y-71852915D01*
X129259510Y-71783014D01*
X129107632Y-71681532D01*
X128978468Y-71552368D01*
X128876986Y-71400490D01*
X128807085Y-71231733D01*
X128771450Y-71052582D01*
X128771450Y-70869918D01*
X128807085Y-70690767D01*
X128876986Y-70522010D01*
X128978468Y-70370132D01*
X129107632Y-70240968D01*
X129259510Y-70139486D01*
X129428267Y-70069585D01*
X129607418Y-70033950D01*
X129790082Y-70033950D01*
X129969233Y-70069585D01*
X129969233Y-70069585D01*
G37*
G36*
X145209233Y-70069585D02*
G01*
X145377990Y-70139486D01*
X145529868Y-70240968D01*
X145659032Y-70370132D01*
X145760514Y-70522010D01*
X145830415Y-70690767D01*
X145866050Y-70869918D01*
X145866050Y-71052582D01*
X145830415Y-71231733D01*
X145760514Y-71400490D01*
X145659032Y-71552368D01*
X145529868Y-71681532D01*
X145377990Y-71783014D01*
X145209233Y-71852915D01*
X145030082Y-71888550D01*
X144847418Y-71888550D01*
X144668267Y-71852915D01*
X144499510Y-71783014D01*
X144347632Y-71681532D01*
X144218468Y-71552368D01*
X144116986Y-71400490D01*
X144047085Y-71231733D01*
X144011450Y-71052582D01*
X144011450Y-70869918D01*
X144047085Y-70690767D01*
X144116986Y-70522010D01*
X144218468Y-70370132D01*
X144347632Y-70240968D01*
X144499510Y-70139486D01*
X144668267Y-70069585D01*
X144847418Y-70033950D01*
X145030082Y-70033950D01*
X145209233Y-70069585D01*
X145209233Y-70069585D01*
G37*
G36*
X173225314Y-69489389D02*
G01*
X173416583Y-69568615D01*
X173416585Y-69568616D01*
X173588723Y-69683635D01*
X173735115Y-69830027D01*
X173850135Y-70002167D01*
X173929361Y-70193436D01*
X173969750Y-70396484D01*
X173969750Y-70603516D01*
X173929361Y-70806564D01*
X173850135Y-70997833D01*
X173850134Y-70997835D01*
X173735115Y-71169973D01*
X173588723Y-71316365D01*
X173416585Y-71431384D01*
X173416584Y-71431385D01*
X173416583Y-71431385D01*
X173225314Y-71510611D01*
X173022266Y-71551000D01*
X172815234Y-71551000D01*
X172612186Y-71510611D01*
X172420917Y-71431385D01*
X172420916Y-71431385D01*
X172420915Y-71431384D01*
X172248777Y-71316365D01*
X172102385Y-71169973D01*
X171987366Y-70997835D01*
X171987365Y-70997833D01*
X171908139Y-70806564D01*
X171867750Y-70603516D01*
X171867750Y-70396484D01*
X171908139Y-70193436D01*
X171987365Y-70002167D01*
X172102385Y-69830027D01*
X172248777Y-69683635D01*
X172420915Y-69568616D01*
X172420917Y-69568615D01*
X172612186Y-69489389D01*
X172815234Y-69449000D01*
X173022266Y-69449000D01*
X173225314Y-69489389D01*
X173225314Y-69489389D01*
G37*
G36*
X178225314Y-69489389D02*
G01*
X178416583Y-69568615D01*
X178416585Y-69568616D01*
X178588723Y-69683635D01*
X178735115Y-69830027D01*
X178850135Y-70002167D01*
X178929361Y-70193436D01*
X178969750Y-70396484D01*
X178969750Y-70603516D01*
X178929361Y-70806564D01*
X178850135Y-70997833D01*
X178850134Y-70997835D01*
X178735115Y-71169973D01*
X178588723Y-71316365D01*
X178416585Y-71431384D01*
X178416584Y-71431385D01*
X178416583Y-71431385D01*
X178225314Y-71510611D01*
X178022266Y-71551000D01*
X177815234Y-71551000D01*
X177612186Y-71510611D01*
X177420917Y-71431385D01*
X177420916Y-71431385D01*
X177420915Y-71431384D01*
X177248777Y-71316365D01*
X177102385Y-71169973D01*
X176987366Y-70997835D01*
X176987365Y-70997833D01*
X176908139Y-70806564D01*
X176867750Y-70603516D01*
X176867750Y-70396484D01*
X176908139Y-70193436D01*
X176987365Y-70002167D01*
X177102385Y-69830027D01*
X177248777Y-69683635D01*
X177420915Y-69568616D01*
X177420917Y-69568615D01*
X177612186Y-69489389D01*
X177815234Y-69449000D01*
X178022266Y-69449000D01*
X178225314Y-69489389D01*
X178225314Y-69489389D01*
G37*
G36*
X121075314Y-69489389D02*
G01*
X121266583Y-69568615D01*
X121266585Y-69568616D01*
X121438723Y-69683635D01*
X121585115Y-69830027D01*
X121700135Y-70002167D01*
X121779361Y-70193436D01*
X121819750Y-70396484D01*
X121819750Y-70603516D01*
X121779361Y-70806564D01*
X121700135Y-70997833D01*
X121700134Y-70997835D01*
X121585115Y-71169973D01*
X121438723Y-71316365D01*
X121266585Y-71431384D01*
X121266584Y-71431385D01*
X121266583Y-71431385D01*
X121075314Y-71510611D01*
X120872266Y-71551000D01*
X120665234Y-71551000D01*
X120462186Y-71510611D01*
X120270917Y-71431385D01*
X120270916Y-71431385D01*
X120270915Y-71431384D01*
X120098777Y-71316365D01*
X119952385Y-71169973D01*
X119837366Y-70997835D01*
X119837365Y-70997833D01*
X119758139Y-70806564D01*
X119717750Y-70603516D01*
X119717750Y-70396484D01*
X119758139Y-70193436D01*
X119837365Y-70002167D01*
X119952385Y-69830027D01*
X120098777Y-69683635D01*
X120270915Y-69568616D01*
X120270917Y-69568615D01*
X120462186Y-69489389D01*
X120665234Y-69449000D01*
X120872266Y-69449000D01*
X121075314Y-69489389D01*
X121075314Y-69489389D01*
G37*
G36*
X116075314Y-69489389D02*
G01*
X116266583Y-69568615D01*
X116266585Y-69568616D01*
X116438723Y-69683635D01*
X116585115Y-69830027D01*
X116700135Y-70002167D01*
X116779361Y-70193436D01*
X116819750Y-70396484D01*
X116819750Y-70603516D01*
X116779361Y-70806564D01*
X116700135Y-70997833D01*
X116700134Y-70997835D01*
X116585115Y-71169973D01*
X116438723Y-71316365D01*
X116266585Y-71431384D01*
X116266584Y-71431385D01*
X116266583Y-71431385D01*
X116075314Y-71510611D01*
X115872266Y-71551000D01*
X115665234Y-71551000D01*
X115462186Y-71510611D01*
X115270917Y-71431385D01*
X115270916Y-71431385D01*
X115270915Y-71431384D01*
X115098777Y-71316365D01*
X114952385Y-71169973D01*
X114837366Y-70997835D01*
X114837365Y-70997833D01*
X114758139Y-70806564D01*
X114717750Y-70603516D01*
X114717750Y-70396484D01*
X114758139Y-70193436D01*
X114837365Y-70002167D01*
X114952385Y-69830027D01*
X115098777Y-69683635D01*
X115270915Y-69568616D01*
X115270917Y-69568615D01*
X115462186Y-69489389D01*
X115665234Y-69449000D01*
X115872266Y-69449000D01*
X116075314Y-69489389D01*
X116075314Y-69489389D01*
G37*
G36*
X165157250Y-69907250D02*
G01*
X163455250Y-69907250D01*
X163455250Y-68205250D01*
X165157250Y-68205250D01*
X165157250Y-69907250D01*
X165157250Y-69907250D01*
G37*
G36*
X145209233Y-67529585D02*
G01*
X145377990Y-67599486D01*
X145529868Y-67700968D01*
X145659032Y-67830132D01*
X145760514Y-67982010D01*
X145830415Y-68150767D01*
X145866050Y-68329918D01*
X145866050Y-68512582D01*
X145830415Y-68691733D01*
X145760514Y-68860490D01*
X145659032Y-69012368D01*
X145529868Y-69141532D01*
X145377990Y-69243014D01*
X145209233Y-69312915D01*
X145030082Y-69348550D01*
X144847418Y-69348550D01*
X144668267Y-69312915D01*
X144499510Y-69243014D01*
X144347632Y-69141532D01*
X144218468Y-69012368D01*
X144116986Y-68860490D01*
X144047085Y-68691733D01*
X144011450Y-68512582D01*
X144011450Y-68329918D01*
X144047085Y-68150767D01*
X144116986Y-67982010D01*
X144218468Y-67830132D01*
X144347632Y-67700968D01*
X144499510Y-67599486D01*
X144668267Y-67529585D01*
X144847418Y-67493950D01*
X145030082Y-67493950D01*
X145209233Y-67529585D01*
X145209233Y-67529585D01*
G37*
G36*
X129969233Y-67529585D02*
G01*
X130137990Y-67599486D01*
X130289868Y-67700968D01*
X130419032Y-67830132D01*
X130520514Y-67982010D01*
X130590415Y-68150767D01*
X130626050Y-68329918D01*
X130626050Y-68512582D01*
X130590415Y-68691733D01*
X130520514Y-68860490D01*
X130419032Y-69012368D01*
X130289868Y-69141532D01*
X130137990Y-69243014D01*
X129969233Y-69312915D01*
X129790082Y-69348550D01*
X129607418Y-69348550D01*
X129428267Y-69312915D01*
X129259510Y-69243014D01*
X129107632Y-69141532D01*
X128978468Y-69012368D01*
X128876986Y-68860490D01*
X128807085Y-68691733D01*
X128771450Y-68512582D01*
X128771450Y-68329918D01*
X128807085Y-68150767D01*
X128876986Y-67982010D01*
X128978468Y-67830132D01*
X129107632Y-67700968D01*
X129259510Y-67599486D01*
X129428267Y-67529585D01*
X129607418Y-67493950D01*
X129790082Y-67493950D01*
X129969233Y-67529585D01*
X129969233Y-67529585D01*
G37*
G36*
X123991823Y-66153813D02*
G01*
X124152242Y-66202476D01*
X124205045Y-66230700D01*
X124300078Y-66281496D01*
X124429659Y-66387841D01*
X124536004Y-66517422D01*
X124536005Y-66517424D01*
X124615024Y-66665258D01*
X124663687Y-66825677D01*
X124680117Y-66992500D01*
X124663687Y-67159323D01*
X124615024Y-67319742D01*
X124544114Y-67452406D01*
X124536004Y-67467578D01*
X124429659Y-67597159D01*
X124300078Y-67703504D01*
X124300076Y-67703505D01*
X124152242Y-67782524D01*
X123991823Y-67831187D01*
X123866804Y-67843500D01*
X123783196Y-67843500D01*
X123658177Y-67831187D01*
X123497758Y-67782524D01*
X123349924Y-67703505D01*
X123349922Y-67703504D01*
X123220341Y-67597159D01*
X123113996Y-67467578D01*
X123105886Y-67452406D01*
X123034976Y-67319742D01*
X122986313Y-67159323D01*
X122969883Y-66992500D01*
X122986313Y-66825677D01*
X123034976Y-66665258D01*
X123113995Y-66517424D01*
X123113996Y-66517422D01*
X123220341Y-66387841D01*
X123349922Y-66281496D01*
X123444955Y-66230700D01*
X123497758Y-66202476D01*
X123658177Y-66153813D01*
X123783196Y-66141500D01*
X123866804Y-66141500D01*
X123991823Y-66153813D01*
X123991823Y-66153813D01*
G37*
G36*
X181141823Y-66153813D02*
G01*
X181302242Y-66202476D01*
X181355045Y-66230700D01*
X181450078Y-66281496D01*
X181579659Y-66387841D01*
X181686004Y-66517422D01*
X181686005Y-66517424D01*
X181765024Y-66665258D01*
X181813687Y-66825677D01*
X181830117Y-66992500D01*
X181813687Y-67159323D01*
X181765024Y-67319742D01*
X181694114Y-67452406D01*
X181686004Y-67467578D01*
X181579659Y-67597159D01*
X181450078Y-67703504D01*
X181450076Y-67703505D01*
X181302242Y-67782524D01*
X181141823Y-67831187D01*
X181016804Y-67843500D01*
X180933196Y-67843500D01*
X180808177Y-67831187D01*
X180647758Y-67782524D01*
X180499924Y-67703505D01*
X180499922Y-67703504D01*
X180370341Y-67597159D01*
X180263996Y-67467578D01*
X180255886Y-67452406D01*
X180184976Y-67319742D01*
X180136313Y-67159323D01*
X180119883Y-66992500D01*
X180136313Y-66825677D01*
X180184976Y-66665258D01*
X180263995Y-66517424D01*
X180263996Y-66517422D01*
X180370341Y-66387841D01*
X180499922Y-66281496D01*
X180594955Y-66230700D01*
X180647758Y-66202476D01*
X180808177Y-66153813D01*
X180933196Y-66141500D01*
X181016804Y-66141500D01*
X181141823Y-66153813D01*
X181141823Y-66153813D01*
G37*
G36*
X148737814Y-64945639D02*
G01*
X148929083Y-65024865D01*
X148929085Y-65024866D01*
X149101223Y-65139885D01*
X149247615Y-65286277D01*
X149351673Y-65442010D01*
X149362635Y-65458417D01*
X149441861Y-65649686D01*
X149482250Y-65852734D01*
X149482250Y-66059766D01*
X149441861Y-66262814D01*
X149417970Y-66320491D01*
X149362634Y-66454085D01*
X149247615Y-66626223D01*
X149101223Y-66772615D01*
X148929085Y-66887634D01*
X148929084Y-66887635D01*
X148929083Y-66887635D01*
X148737814Y-66966861D01*
X148534766Y-67007250D01*
X148327734Y-67007250D01*
X148124686Y-66966861D01*
X147933417Y-66887635D01*
X147933416Y-66887635D01*
X147933415Y-66887634D01*
X147761277Y-66772615D01*
X147614885Y-66626223D01*
X147499866Y-66454085D01*
X147444530Y-66320491D01*
X147420639Y-66262814D01*
X147380250Y-66059766D01*
X147380250Y-65852734D01*
X147420639Y-65649686D01*
X147499865Y-65458417D01*
X147510828Y-65442010D01*
X147614885Y-65286277D01*
X147761277Y-65139885D01*
X147933415Y-65024866D01*
X147933417Y-65024865D01*
X148124686Y-64945639D01*
X148327734Y-64905250D01*
X148534766Y-64905250D01*
X148737814Y-64945639D01*
X148737814Y-64945639D01*
G37*
G36*
X145209233Y-64989585D02*
G01*
X145377990Y-65059486D01*
X145529868Y-65160968D01*
X145659032Y-65290132D01*
X145760514Y-65442010D01*
X145830415Y-65610767D01*
X145866050Y-65789918D01*
X145866050Y-65972582D01*
X145830415Y-66151733D01*
X145760514Y-66320490D01*
X145659032Y-66472368D01*
X145529868Y-66601532D01*
X145377990Y-66703014D01*
X145209233Y-66772915D01*
X145030082Y-66808550D01*
X144847418Y-66808550D01*
X144668267Y-66772915D01*
X144499510Y-66703014D01*
X144347632Y-66601532D01*
X144218468Y-66472368D01*
X144116986Y-66320490D01*
X144047085Y-66151733D01*
X144011450Y-65972582D01*
X144011450Y-65789918D01*
X144047085Y-65610767D01*
X144116986Y-65442010D01*
X144218468Y-65290132D01*
X144347632Y-65160968D01*
X144499510Y-65059486D01*
X144668267Y-64989585D01*
X144847418Y-64953950D01*
X145030082Y-64953950D01*
X145209233Y-64989585D01*
X145209233Y-64989585D01*
G37*
G36*
X129969233Y-64989585D02*
G01*
X130137990Y-65059486D01*
X130289868Y-65160968D01*
X130419032Y-65290132D01*
X130520514Y-65442010D01*
X130590415Y-65610767D01*
X130626050Y-65789918D01*
X130626050Y-65972582D01*
X130590415Y-66151733D01*
X130520514Y-66320490D01*
X130419032Y-66472368D01*
X130289868Y-66601532D01*
X130137990Y-66703014D01*
X129969233Y-66772915D01*
X129790082Y-66808550D01*
X129607418Y-66808550D01*
X129428267Y-66772915D01*
X129259510Y-66703014D01*
X129107632Y-66601532D01*
X128978468Y-66472368D01*
X128876986Y-66320490D01*
X128807085Y-66151733D01*
X128771450Y-65972582D01*
X128771450Y-65789918D01*
X128807085Y-65610767D01*
X128876986Y-65442010D01*
X128978468Y-65290132D01*
X129107632Y-65160968D01*
X129259510Y-65059486D01*
X129428267Y-64989585D01*
X129607418Y-64953950D01*
X129790082Y-64953950D01*
X129969233Y-64989585D01*
X129969233Y-64989585D01*
G37*
G36*
X190915464Y-65358389D02*
G01*
X190996395Y-65391912D01*
X191069230Y-65440579D01*
X191131171Y-65502520D01*
X191179838Y-65575355D01*
X191213361Y-65656286D01*
X191230450Y-65742201D01*
X191230450Y-65829799D01*
X191213361Y-65915714D01*
X191179838Y-65996645D01*
X191131171Y-66069480D01*
X191069230Y-66131421D01*
X190996395Y-66180088D01*
X190996394Y-66180089D01*
X190996393Y-66180089D01*
X190915464Y-66213611D01*
X190829551Y-66230700D01*
X190741949Y-66230700D01*
X190656036Y-66213611D01*
X190575107Y-66180089D01*
X190575106Y-66180089D01*
X190575105Y-66180088D01*
X190502270Y-66131421D01*
X190440329Y-66069480D01*
X190391662Y-65996645D01*
X190358139Y-65915714D01*
X190341050Y-65829799D01*
X190341050Y-65742201D01*
X190358139Y-65656286D01*
X190391662Y-65575355D01*
X190440329Y-65502520D01*
X190502270Y-65440579D01*
X190575105Y-65391912D01*
X190656036Y-65358389D01*
X190741949Y-65341300D01*
X190829551Y-65341300D01*
X190915464Y-65358389D01*
X190915464Y-65358389D01*
G37*
G36*
X188756464Y-65358389D02*
G01*
X188837395Y-65391912D01*
X188910230Y-65440579D01*
X188972171Y-65502520D01*
X189020838Y-65575355D01*
X189054361Y-65656286D01*
X189071450Y-65742201D01*
X189071450Y-65829799D01*
X189054361Y-65915714D01*
X189020838Y-65996645D01*
X188972171Y-66069480D01*
X188910230Y-66131421D01*
X188837395Y-66180088D01*
X188837394Y-66180089D01*
X188837393Y-66180089D01*
X188756464Y-66213611D01*
X188670551Y-66230700D01*
X188582949Y-66230700D01*
X188497036Y-66213611D01*
X188416107Y-66180089D01*
X188416106Y-66180089D01*
X188416105Y-66180088D01*
X188343270Y-66131421D01*
X188281329Y-66069480D01*
X188232662Y-65996645D01*
X188199139Y-65915714D01*
X188182050Y-65829799D01*
X188182050Y-65742201D01*
X188199139Y-65656286D01*
X188232662Y-65575355D01*
X188281329Y-65502520D01*
X188343270Y-65440579D01*
X188416105Y-65391912D01*
X188497036Y-65358389D01*
X188582949Y-65341300D01*
X188670551Y-65341300D01*
X188756464Y-65358389D01*
X188756464Y-65358389D01*
G37*
G36*
X176015224Y-61533684D02*
G01*
X176182748Y-61603075D01*
X176387373Y-61687833D01*
X176722298Y-61911623D01*
X177007127Y-62196452D01*
X177230917Y-62531377D01*
X177268027Y-62620969D01*
X177385066Y-62903526D01*
X177463650Y-63298594D01*
X177463650Y-63701406D01*
X177385066Y-64096474D01*
X177298264Y-64306032D01*
X177230917Y-64468623D01*
X177007127Y-64803548D01*
X176722298Y-65088377D01*
X176387373Y-65312167D01*
X176233224Y-65376017D01*
X176015224Y-65466316D01*
X175620156Y-65544900D01*
X175217344Y-65544900D01*
X174822276Y-65466316D01*
X174604276Y-65376017D01*
X174450127Y-65312167D01*
X174115202Y-65088377D01*
X173830373Y-64803548D01*
X173606583Y-64468623D01*
X173539236Y-64306032D01*
X173452434Y-64096474D01*
X173373850Y-63701406D01*
X173373850Y-63298594D01*
X173452434Y-62903526D01*
X173569473Y-62620969D01*
X173606583Y-62531377D01*
X173830373Y-62196452D01*
X174115202Y-61911623D01*
X174450127Y-61687833D01*
X174654752Y-61603075D01*
X174822276Y-61533684D01*
X175217344Y-61455100D01*
X175620156Y-61455100D01*
X176015224Y-61533684D01*
X176015224Y-61533684D01*
G37*
G36*
X156965224Y-61533684D02*
G01*
X157132748Y-61603075D01*
X157337373Y-61687833D01*
X157672298Y-61911623D01*
X157957127Y-62196452D01*
X158180917Y-62531377D01*
X158218027Y-62620969D01*
X158335066Y-62903526D01*
X158413650Y-63298594D01*
X158413650Y-63701406D01*
X158335066Y-64096474D01*
X158248264Y-64306032D01*
X158180917Y-64468623D01*
X157957127Y-64803548D01*
X157672298Y-65088377D01*
X157337373Y-65312167D01*
X157183224Y-65376017D01*
X156965224Y-65466316D01*
X156570156Y-65544900D01*
X156167344Y-65544900D01*
X155772276Y-65466316D01*
X155554276Y-65376017D01*
X155400127Y-65312167D01*
X155065202Y-65088377D01*
X154780373Y-64803548D01*
X154556583Y-64468623D01*
X154489236Y-64306032D01*
X154402434Y-64096474D01*
X154323850Y-63701406D01*
X154323850Y-63298594D01*
X154402434Y-62903526D01*
X154519473Y-62620969D01*
X154556583Y-62531377D01*
X154780373Y-62196452D01*
X155065202Y-61911623D01*
X155400127Y-61687833D01*
X155604752Y-61603075D01*
X155772276Y-61533684D01*
X156167344Y-61455100D01*
X156570156Y-61455100D01*
X156965224Y-61533684D01*
X156965224Y-61533684D01*
G37*
G36*
X137915224Y-61533684D02*
G01*
X138082748Y-61603075D01*
X138287373Y-61687833D01*
X138622298Y-61911623D01*
X138907127Y-62196452D01*
X139130917Y-62531377D01*
X139168027Y-62620969D01*
X139285066Y-62903526D01*
X139363650Y-63298594D01*
X139363650Y-63701406D01*
X139285066Y-64096474D01*
X139198264Y-64306032D01*
X139130917Y-64468623D01*
X138907127Y-64803548D01*
X138622298Y-65088377D01*
X138287373Y-65312167D01*
X138133224Y-65376017D01*
X137915224Y-65466316D01*
X137520156Y-65544900D01*
X137117344Y-65544900D01*
X136722276Y-65466316D01*
X136504276Y-65376017D01*
X136350127Y-65312167D01*
X136015202Y-65088377D01*
X135730373Y-64803548D01*
X135506583Y-64468623D01*
X135439236Y-64306032D01*
X135352434Y-64096474D01*
X135273850Y-63701406D01*
X135273850Y-63298594D01*
X135352434Y-62903526D01*
X135469473Y-62620969D01*
X135506583Y-62531377D01*
X135730373Y-62196452D01*
X136015202Y-61911623D01*
X136350127Y-61687833D01*
X136554752Y-61603075D01*
X136722276Y-61533684D01*
X137117344Y-61455100D01*
X137520156Y-61455100D01*
X137915224Y-61533684D01*
X137915224Y-61533684D01*
G37*
G36*
X118865224Y-61533684D02*
G01*
X119032748Y-61603075D01*
X119237373Y-61687833D01*
X119572298Y-61911623D01*
X119857127Y-62196452D01*
X120080917Y-62531377D01*
X120118027Y-62620969D01*
X120235066Y-62903526D01*
X120313650Y-63298594D01*
X120313650Y-63701406D01*
X120235066Y-64096474D01*
X120148264Y-64306032D01*
X120080917Y-64468623D01*
X119857127Y-64803548D01*
X119572298Y-65088377D01*
X119237373Y-65312167D01*
X119083224Y-65376017D01*
X118865224Y-65466316D01*
X118470156Y-65544900D01*
X118067344Y-65544900D01*
X117672276Y-65466316D01*
X117454276Y-65376017D01*
X117300127Y-65312167D01*
X116965202Y-65088377D01*
X116680373Y-64803548D01*
X116456583Y-64468623D01*
X116389236Y-64306032D01*
X116302434Y-64096474D01*
X116223850Y-63701406D01*
X116223850Y-63298594D01*
X116302434Y-62903526D01*
X116419473Y-62620969D01*
X116456583Y-62531377D01*
X116680373Y-62196452D01*
X116965202Y-61911623D01*
X117300127Y-61687833D01*
X117504752Y-61603075D01*
X117672276Y-61533684D01*
X118067344Y-61455100D01*
X118470156Y-61455100D01*
X118865224Y-61533684D01*
X118865224Y-61533684D01*
G37*
G36*
X181224782Y-61864207D02*
G01*
X181422896Y-61924305D01*
X181422899Y-61924306D01*
X181519725Y-61976061D01*
X181605479Y-62021897D01*
X181765515Y-62153235D01*
X181896853Y-62313271D01*
X181942689Y-62399025D01*
X181994444Y-62495851D01*
X181994445Y-62495854D01*
X182054543Y-62693968D01*
X182069750Y-62848370D01*
X182069750Y-64151630D01*
X182054543Y-64306032D01*
X181994445Y-64504145D01*
X181994444Y-64504149D01*
X181964698Y-64559799D01*
X181896853Y-64686729D01*
X181765515Y-64846765D01*
X181605479Y-64978103D01*
X181488780Y-65040479D01*
X181422898Y-65075694D01*
X181422895Y-65075695D01*
X181224781Y-65135793D01*
X181018750Y-65156085D01*
X180812718Y-65135793D01*
X180614604Y-65075695D01*
X180614601Y-65075694D01*
X180517775Y-65023939D01*
X180432021Y-64978103D01*
X180271985Y-64846765D01*
X180140647Y-64686729D01*
X180043057Y-64504149D01*
X180043056Y-64504148D01*
X180033364Y-64472199D01*
X179982957Y-64306031D01*
X179982956Y-64306025D01*
X179981871Y-64302447D01*
X179972493Y-64279808D01*
X179958880Y-64259434D01*
X179941553Y-64242107D01*
X179931722Y-64234816D01*
X179908459Y-64219272D01*
X179779478Y-64090291D01*
X179678139Y-63938626D01*
X179608335Y-63770104D01*
X179572750Y-63591203D01*
X179572750Y-63408797D01*
X179608335Y-63229896D01*
X179678139Y-63061374D01*
X179779478Y-62909709D01*
X179908459Y-62780728D01*
X179931708Y-62765193D01*
X179950641Y-62749656D01*
X179966186Y-62730714D01*
X179981870Y-62697553D01*
X180043055Y-62495853D01*
X180117934Y-62355765D01*
X180140648Y-62313271D01*
X180271986Y-62153235D01*
X180432022Y-62021897D01*
X180517776Y-61976061D01*
X180614602Y-61924306D01*
X180614605Y-61924305D01*
X180812719Y-61864207D01*
X181018750Y-61843915D01*
X181224782Y-61864207D01*
X181224782Y-61864207D01*
G37*
G36*
X170024782Y-61864207D02*
G01*
X170222896Y-61924305D01*
X170222899Y-61924306D01*
X170319725Y-61976061D01*
X170405479Y-62021897D01*
X170565515Y-62153235D01*
X170696853Y-62313271D01*
X170742689Y-62399025D01*
X170794444Y-62495851D01*
X170794445Y-62495854D01*
X170854543Y-62693968D01*
X170854543Y-62693970D01*
X170855630Y-62697553D01*
X170865008Y-62720192D01*
X170878622Y-62740567D01*
X170905795Y-62765196D01*
X170929041Y-62780728D01*
X171058022Y-62909709D01*
X171159361Y-63061374D01*
X171229165Y-63229896D01*
X171264750Y-63408797D01*
X171264750Y-63591203D01*
X171229165Y-63770104D01*
X171159361Y-63938626D01*
X171058022Y-64090291D01*
X170929041Y-64219272D01*
X170905792Y-64234807D01*
X170886859Y-64250344D01*
X170871314Y-64269286D01*
X170855630Y-64302447D01*
X170854543Y-64306029D01*
X170854543Y-64306032D01*
X170794445Y-64504145D01*
X170794444Y-64504149D01*
X170764698Y-64559799D01*
X170696853Y-64686729D01*
X170565515Y-64846765D01*
X170405479Y-64978103D01*
X170288780Y-65040479D01*
X170222898Y-65075694D01*
X170222895Y-65075695D01*
X170024781Y-65135793D01*
X169818750Y-65156085D01*
X169612718Y-65135793D01*
X169414604Y-65075695D01*
X169414601Y-65075694D01*
X169317775Y-65023939D01*
X169232021Y-64978103D01*
X169071985Y-64846765D01*
X168940647Y-64686729D01*
X168843057Y-64504149D01*
X168843056Y-64504148D01*
X168833364Y-64472199D01*
X168782957Y-64306031D01*
X168767750Y-64151629D01*
X168767750Y-62848370D01*
X168774412Y-62780728D01*
X168782957Y-62693970D01*
X168843055Y-62495853D01*
X168917934Y-62355765D01*
X168940648Y-62313271D01*
X169071986Y-62153235D01*
X169232022Y-62021897D01*
X169317776Y-61976061D01*
X169414602Y-61924306D01*
X169414605Y-61924305D01*
X169612719Y-61864207D01*
X169818750Y-61843915D01*
X170024782Y-61864207D01*
X170024782Y-61864207D01*
G37*
G36*
X112874782Y-61864207D02*
G01*
X113072896Y-61924305D01*
X113072899Y-61924306D01*
X113169725Y-61976061D01*
X113255479Y-62021897D01*
X113415515Y-62153235D01*
X113546853Y-62313271D01*
X113592689Y-62399025D01*
X113644444Y-62495851D01*
X113644445Y-62495854D01*
X113704543Y-62693968D01*
X113704543Y-62693970D01*
X113705630Y-62697553D01*
X113715008Y-62720192D01*
X113728622Y-62740567D01*
X113755795Y-62765196D01*
X113779041Y-62780728D01*
X113908022Y-62909709D01*
X114009361Y-63061374D01*
X114079165Y-63229896D01*
X114114750Y-63408797D01*
X114114750Y-63591203D01*
X114079165Y-63770104D01*
X114009361Y-63938626D01*
X113908022Y-64090291D01*
X113779041Y-64219272D01*
X113755792Y-64234807D01*
X113736859Y-64250344D01*
X113721314Y-64269286D01*
X113705630Y-64302447D01*
X113704543Y-64306029D01*
X113704543Y-64306032D01*
X113644445Y-64504145D01*
X113644444Y-64504149D01*
X113614698Y-64559799D01*
X113546853Y-64686729D01*
X113415515Y-64846765D01*
X113255479Y-64978103D01*
X113138780Y-65040479D01*
X113072898Y-65075694D01*
X113072895Y-65075695D01*
X112874781Y-65135793D01*
X112668750Y-65156085D01*
X112462718Y-65135793D01*
X112264604Y-65075695D01*
X112264601Y-65075694D01*
X112167775Y-65023939D01*
X112082021Y-64978103D01*
X111921985Y-64846765D01*
X111790647Y-64686729D01*
X111693057Y-64504149D01*
X111693056Y-64504148D01*
X111683364Y-64472199D01*
X111632957Y-64306031D01*
X111617750Y-64151629D01*
X111617750Y-62848370D01*
X111624412Y-62780728D01*
X111632957Y-62693970D01*
X111693055Y-62495853D01*
X111767934Y-62355765D01*
X111790648Y-62313271D01*
X111921986Y-62153235D01*
X112082022Y-62021897D01*
X112167776Y-61976061D01*
X112264602Y-61924306D01*
X112264605Y-61924305D01*
X112462719Y-61864207D01*
X112668750Y-61843915D01*
X112874782Y-61864207D01*
X112874782Y-61864207D01*
G37*
G36*
X124074782Y-61864207D02*
G01*
X124272896Y-61924305D01*
X124272899Y-61924306D01*
X124369725Y-61976061D01*
X124455479Y-62021897D01*
X124615515Y-62153235D01*
X124746853Y-62313271D01*
X124792689Y-62399025D01*
X124844444Y-62495851D01*
X124844445Y-62495854D01*
X124904543Y-62693968D01*
X124919750Y-62848370D01*
X124919750Y-64151630D01*
X124904543Y-64306032D01*
X124844445Y-64504145D01*
X124844444Y-64504149D01*
X124814698Y-64559799D01*
X124746853Y-64686729D01*
X124615515Y-64846765D01*
X124455479Y-64978103D01*
X124338780Y-65040479D01*
X124272898Y-65075694D01*
X124272895Y-65075695D01*
X124074781Y-65135793D01*
X123868750Y-65156085D01*
X123662718Y-65135793D01*
X123464604Y-65075695D01*
X123464601Y-65075694D01*
X123367775Y-65023939D01*
X123282021Y-64978103D01*
X123121985Y-64846765D01*
X122990647Y-64686729D01*
X122893057Y-64504149D01*
X122893056Y-64504148D01*
X122883364Y-64472199D01*
X122832957Y-64306031D01*
X122832956Y-64306025D01*
X122831871Y-64302447D01*
X122822493Y-64279808D01*
X122808880Y-64259434D01*
X122791553Y-64242107D01*
X122781722Y-64234816D01*
X122758459Y-64219272D01*
X122629478Y-64090291D01*
X122528139Y-63938626D01*
X122458335Y-63770104D01*
X122422750Y-63591203D01*
X122422750Y-63408797D01*
X122458335Y-63229896D01*
X122528139Y-63061374D01*
X122629478Y-62909709D01*
X122758459Y-62780728D01*
X122781708Y-62765193D01*
X122800641Y-62749656D01*
X122816186Y-62730714D01*
X122831870Y-62697553D01*
X122893055Y-62495853D01*
X122967934Y-62355765D01*
X122990648Y-62313271D01*
X123121986Y-62153235D01*
X123282022Y-62021897D01*
X123367776Y-61976061D01*
X123464602Y-61924306D01*
X123464605Y-61924305D01*
X123662719Y-61864207D01*
X123868750Y-61843915D01*
X124074782Y-61864207D01*
X124074782Y-61864207D01*
G37*
G36*
X190915464Y-64088389D02*
G01*
X190996395Y-64121912D01*
X191069230Y-64170579D01*
X191131171Y-64232520D01*
X191155737Y-64269286D01*
X191179839Y-64305357D01*
X191213361Y-64386286D01*
X191229739Y-64468623D01*
X191230450Y-64472201D01*
X191230450Y-64559799D01*
X191213361Y-64645714D01*
X191179838Y-64726645D01*
X191131171Y-64799480D01*
X191069230Y-64861421D01*
X190996395Y-64910088D01*
X190996394Y-64910089D01*
X190996393Y-64910089D01*
X190915464Y-64943611D01*
X190829551Y-64960700D01*
X190741949Y-64960700D01*
X190656036Y-64943611D01*
X190575107Y-64910089D01*
X190575106Y-64910089D01*
X190575105Y-64910088D01*
X190502270Y-64861421D01*
X190440329Y-64799480D01*
X190391662Y-64726645D01*
X190358139Y-64645714D01*
X190341050Y-64559799D01*
X190341050Y-64472201D01*
X190341762Y-64468623D01*
X190358139Y-64386286D01*
X190391661Y-64305357D01*
X190415763Y-64269286D01*
X190440329Y-64232520D01*
X190502270Y-64170579D01*
X190575105Y-64121912D01*
X190656036Y-64088389D01*
X190741949Y-64071300D01*
X190829551Y-64071300D01*
X190915464Y-64088389D01*
X190915464Y-64088389D01*
G37*
G36*
X188756464Y-64088389D02*
G01*
X188837395Y-64121912D01*
X188910230Y-64170579D01*
X188972171Y-64232520D01*
X188996737Y-64269286D01*
X189020839Y-64305357D01*
X189054361Y-64386286D01*
X189070739Y-64468623D01*
X189071450Y-64472201D01*
X189071450Y-64559799D01*
X189054361Y-64645714D01*
X189020838Y-64726645D01*
X188972171Y-64799480D01*
X188910230Y-64861421D01*
X188837395Y-64910088D01*
X188837394Y-64910089D01*
X188837393Y-64910089D01*
X188756464Y-64943611D01*
X188670551Y-64960700D01*
X188582949Y-64960700D01*
X188497036Y-64943611D01*
X188416107Y-64910089D01*
X188416106Y-64910089D01*
X188416105Y-64910088D01*
X188343270Y-64861421D01*
X188281329Y-64799480D01*
X188232662Y-64726645D01*
X188199139Y-64645714D01*
X188182050Y-64559799D01*
X188182050Y-64472201D01*
X188182762Y-64468623D01*
X188199139Y-64386286D01*
X188232661Y-64305357D01*
X188256763Y-64269286D01*
X188281329Y-64232520D01*
X188343270Y-64170579D01*
X188416105Y-64121912D01*
X188497036Y-64088389D01*
X188582949Y-64071300D01*
X188670551Y-64071300D01*
X188756464Y-64088389D01*
X188756464Y-64088389D01*
G37*
G36*
X161718854Y-62609585D02*
G01*
X161887376Y-62679389D01*
X162039041Y-62780728D01*
X162168022Y-62909709D01*
X162269361Y-63061374D01*
X162339165Y-63229896D01*
X162374750Y-63408797D01*
X162374750Y-63591203D01*
X162339165Y-63770104D01*
X162269361Y-63938626D01*
X162168022Y-64090291D01*
X162039041Y-64219272D01*
X161887376Y-64320611D01*
X161718854Y-64390415D01*
X161539953Y-64426000D01*
X161357547Y-64426000D01*
X161178646Y-64390415D01*
X161010124Y-64320611D01*
X160858459Y-64219272D01*
X160729478Y-64090291D01*
X160628139Y-63938626D01*
X160558335Y-63770104D01*
X160522750Y-63591203D01*
X160522750Y-63408797D01*
X160558335Y-63229896D01*
X160628139Y-63061374D01*
X160729478Y-62909709D01*
X160858459Y-62780728D01*
X161010124Y-62679389D01*
X161178646Y-62609585D01*
X161357547Y-62574000D01*
X161539953Y-62574000D01*
X161718854Y-62609585D01*
X161718854Y-62609585D01*
G37*
G36*
X151558854Y-62609585D02*
G01*
X151727376Y-62679389D01*
X151879041Y-62780728D01*
X152008022Y-62909709D01*
X152109361Y-63061374D01*
X152179165Y-63229896D01*
X152214750Y-63408797D01*
X152214750Y-63591203D01*
X152179165Y-63770104D01*
X152109361Y-63938626D01*
X152008022Y-64090291D01*
X151879041Y-64219272D01*
X151727376Y-64320611D01*
X151558854Y-64390415D01*
X151379953Y-64426000D01*
X151197547Y-64426000D01*
X151018646Y-64390415D01*
X150850124Y-64320611D01*
X150698459Y-64219272D01*
X150569478Y-64090291D01*
X150468139Y-63938626D01*
X150398335Y-63770104D01*
X150362750Y-63591203D01*
X150362750Y-63408797D01*
X150398335Y-63229896D01*
X150468139Y-63061374D01*
X150569478Y-62909709D01*
X150698459Y-62780728D01*
X150850124Y-62679389D01*
X151018646Y-62609585D01*
X151197547Y-62574000D01*
X151379953Y-62574000D01*
X151558854Y-62609585D01*
X151558854Y-62609585D01*
G37*
G36*
X142668854Y-62609585D02*
G01*
X142837376Y-62679389D01*
X142989041Y-62780728D01*
X143118022Y-62909709D01*
X143219361Y-63061374D01*
X143289165Y-63229896D01*
X143324750Y-63408797D01*
X143324750Y-63591203D01*
X143289165Y-63770104D01*
X143219361Y-63938626D01*
X143118022Y-64090291D01*
X142989041Y-64219272D01*
X142837376Y-64320611D01*
X142668854Y-64390415D01*
X142489953Y-64426000D01*
X142307547Y-64426000D01*
X142128646Y-64390415D01*
X141960124Y-64320611D01*
X141808459Y-64219272D01*
X141679478Y-64090291D01*
X141578139Y-63938626D01*
X141508335Y-63770104D01*
X141472750Y-63591203D01*
X141472750Y-63408797D01*
X141508335Y-63229896D01*
X141578139Y-63061374D01*
X141679478Y-62909709D01*
X141808459Y-62780728D01*
X141960124Y-62679389D01*
X142128646Y-62609585D01*
X142307547Y-62574000D01*
X142489953Y-62574000D01*
X142668854Y-62609585D01*
X142668854Y-62609585D01*
G37*
G36*
X132508854Y-62609585D02*
G01*
X132677376Y-62679389D01*
X132829041Y-62780728D01*
X132958022Y-62909709D01*
X133059361Y-63061374D01*
X133129165Y-63229896D01*
X133164750Y-63408797D01*
X133164750Y-63591203D01*
X133129165Y-63770104D01*
X133059361Y-63938626D01*
X132958022Y-64090291D01*
X132829041Y-64219272D01*
X132677376Y-64320611D01*
X132508854Y-64390415D01*
X132329953Y-64426000D01*
X132147547Y-64426000D01*
X131968646Y-64390415D01*
X131800124Y-64320611D01*
X131648459Y-64219272D01*
X131519478Y-64090291D01*
X131418139Y-63938626D01*
X131348335Y-63770104D01*
X131312750Y-63591203D01*
X131312750Y-63408797D01*
X131348335Y-63229896D01*
X131418139Y-63061374D01*
X131519478Y-62909709D01*
X131648459Y-62780728D01*
X131800124Y-62679389D01*
X131968646Y-62609585D01*
X132147547Y-62574000D01*
X132329953Y-62574000D01*
X132508854Y-62609585D01*
X132508854Y-62609585D01*
G37*
G36*
X145209233Y-62449585D02*
G01*
X145377990Y-62519486D01*
X145529868Y-62620968D01*
X145659032Y-62750132D01*
X145760514Y-62902010D01*
X145830415Y-63070767D01*
X145866050Y-63249918D01*
X145866050Y-63432582D01*
X145830415Y-63611733D01*
X145760514Y-63780490D01*
X145659032Y-63932368D01*
X145529868Y-64061532D01*
X145377990Y-64163014D01*
X145209233Y-64232915D01*
X145030082Y-64268550D01*
X144847418Y-64268550D01*
X144668267Y-64232915D01*
X144499510Y-64163014D01*
X144347632Y-64061532D01*
X144218468Y-63932368D01*
X144116986Y-63780490D01*
X144047085Y-63611733D01*
X144011450Y-63432582D01*
X144011450Y-63249918D01*
X144047085Y-63070767D01*
X144116986Y-62902010D01*
X144218468Y-62750132D01*
X144347632Y-62620968D01*
X144499510Y-62519486D01*
X144668267Y-62449585D01*
X144847418Y-62413950D01*
X145030082Y-62413950D01*
X145209233Y-62449585D01*
X145209233Y-62449585D01*
G37*
G36*
X129969233Y-62449585D02*
G01*
X130137990Y-62519486D01*
X130289868Y-62620968D01*
X130419032Y-62750132D01*
X130520514Y-62902010D01*
X130590415Y-63070767D01*
X130626050Y-63249918D01*
X130626050Y-63432582D01*
X130590415Y-63611733D01*
X130520514Y-63780490D01*
X130419032Y-63932368D01*
X130289868Y-64061532D01*
X130137990Y-64163014D01*
X129969233Y-64232915D01*
X129790082Y-64268550D01*
X129607418Y-64268550D01*
X129428267Y-64232915D01*
X129259510Y-64163014D01*
X129107632Y-64061532D01*
X128978468Y-63932368D01*
X128876986Y-63780490D01*
X128807085Y-63611733D01*
X128771450Y-63432582D01*
X128771450Y-63249918D01*
X128807085Y-63070767D01*
X128876986Y-62902010D01*
X128978468Y-62750132D01*
X129107632Y-62620968D01*
X129259510Y-62519486D01*
X129428267Y-62449585D01*
X129607418Y-62413950D01*
X129790082Y-62413950D01*
X129969233Y-62449585D01*
X129969233Y-62449585D01*
G37*
G36*
X188756464Y-62818389D02*
G01*
X188837395Y-62851912D01*
X188910230Y-62900579D01*
X188972171Y-62962520D01*
X188972172Y-62962522D01*
X189020839Y-63035357D01*
X189054361Y-63116286D01*
X189071450Y-63202199D01*
X189071450Y-63289801D01*
X189054361Y-63375714D01*
X189040658Y-63408797D01*
X189020838Y-63456645D01*
X188972171Y-63529480D01*
X188910230Y-63591421D01*
X188837395Y-63640088D01*
X188837394Y-63640089D01*
X188837393Y-63640089D01*
X188756464Y-63673611D01*
X188670551Y-63690700D01*
X188582949Y-63690700D01*
X188497036Y-63673611D01*
X188416107Y-63640089D01*
X188416106Y-63640089D01*
X188416105Y-63640088D01*
X188343270Y-63591421D01*
X188281329Y-63529480D01*
X188232662Y-63456645D01*
X188212843Y-63408797D01*
X188199139Y-63375714D01*
X188182050Y-63289801D01*
X188182050Y-63202199D01*
X188199139Y-63116286D01*
X188232661Y-63035357D01*
X188281328Y-62962522D01*
X188281329Y-62962520D01*
X188343270Y-62900579D01*
X188416105Y-62851912D01*
X188497036Y-62818389D01*
X188582949Y-62801300D01*
X188670551Y-62801300D01*
X188756464Y-62818389D01*
X188756464Y-62818389D01*
G37*
G36*
X190915464Y-62818389D02*
G01*
X190996395Y-62851912D01*
X191069230Y-62900579D01*
X191131171Y-62962520D01*
X191131172Y-62962522D01*
X191179839Y-63035357D01*
X191213361Y-63116286D01*
X191230450Y-63202199D01*
X191230450Y-63289801D01*
X191213361Y-63375714D01*
X191199658Y-63408797D01*
X191179838Y-63456645D01*
X191131171Y-63529480D01*
X191069230Y-63591421D01*
X190996395Y-63640088D01*
X190996394Y-63640089D01*
X190996393Y-63640089D01*
X190915464Y-63673611D01*
X190829551Y-63690700D01*
X190741949Y-63690700D01*
X190656036Y-63673611D01*
X190575107Y-63640089D01*
X190575106Y-63640089D01*
X190575105Y-63640088D01*
X190502270Y-63591421D01*
X190440329Y-63529480D01*
X190391662Y-63456645D01*
X190371843Y-63408797D01*
X190358139Y-63375714D01*
X190341050Y-63289801D01*
X190341050Y-63202199D01*
X190358139Y-63116286D01*
X190391661Y-63035357D01*
X190440328Y-62962522D01*
X190440329Y-62962520D01*
X190502270Y-62900579D01*
X190575105Y-62851912D01*
X190656036Y-62818389D01*
X190741949Y-62801300D01*
X190829551Y-62801300D01*
X190915464Y-62818389D01*
X190915464Y-62818389D01*
G37*
G36*
X190915464Y-61548389D02*
G01*
X190996395Y-61581912D01*
X191069230Y-61630579D01*
X191131171Y-61692520D01*
X191178591Y-61763489D01*
X191179839Y-61765357D01*
X191213361Y-61846286D01*
X191230450Y-61932199D01*
X191230450Y-62019801D01*
X191213361Y-62105714D01*
X191196155Y-62147254D01*
X191179838Y-62186645D01*
X191131171Y-62259480D01*
X191069230Y-62321421D01*
X190996395Y-62370088D01*
X190996394Y-62370089D01*
X190996393Y-62370089D01*
X190915464Y-62403611D01*
X190829551Y-62420700D01*
X190741949Y-62420700D01*
X190656036Y-62403611D01*
X190575107Y-62370089D01*
X190575106Y-62370089D01*
X190575105Y-62370088D01*
X190502270Y-62321421D01*
X190440329Y-62259480D01*
X190391662Y-62186645D01*
X190375346Y-62147254D01*
X190358139Y-62105714D01*
X190341050Y-62019801D01*
X190341050Y-61932199D01*
X190358139Y-61846286D01*
X190391661Y-61765357D01*
X190392909Y-61763489D01*
X190440329Y-61692520D01*
X190502270Y-61630579D01*
X190575105Y-61581912D01*
X190656036Y-61548389D01*
X190741949Y-61531300D01*
X190829551Y-61531300D01*
X190915464Y-61548389D01*
X190915464Y-61548389D01*
G37*
G36*
X188756464Y-61548389D02*
G01*
X188837395Y-61581912D01*
X188910230Y-61630579D01*
X188972171Y-61692520D01*
X189019591Y-61763489D01*
X189020839Y-61765357D01*
X189054361Y-61846286D01*
X189071450Y-61932199D01*
X189071450Y-62019801D01*
X189054361Y-62105714D01*
X189037155Y-62147254D01*
X189020838Y-62186645D01*
X188972171Y-62259480D01*
X188910230Y-62321421D01*
X188837395Y-62370088D01*
X188837394Y-62370089D01*
X188837393Y-62370089D01*
X188756464Y-62403611D01*
X188670551Y-62420700D01*
X188582949Y-62420700D01*
X188497036Y-62403611D01*
X188416107Y-62370089D01*
X188416106Y-62370089D01*
X188416105Y-62370088D01*
X188343270Y-62321421D01*
X188281329Y-62259480D01*
X188232662Y-62186645D01*
X188216346Y-62147254D01*
X188199139Y-62105714D01*
X188182050Y-62019801D01*
X188182050Y-61932199D01*
X188199139Y-61846286D01*
X188232661Y-61765357D01*
X188233909Y-61763489D01*
X188281329Y-61692520D01*
X188343270Y-61630579D01*
X188416105Y-61581912D01*
X188497036Y-61548389D01*
X188582949Y-61531300D01*
X188670551Y-61531300D01*
X188756464Y-61548389D01*
X188756464Y-61548389D01*
G37*
G36*
X164473073Y-60597563D02*
G01*
X164633492Y-60646226D01*
X164689195Y-60676000D01*
X164781328Y-60725246D01*
X164910909Y-60831591D01*
X165017254Y-60961172D01*
X165017255Y-60961174D01*
X165096274Y-61109008D01*
X165144937Y-61269427D01*
X165161367Y-61436250D01*
X165144937Y-61603073D01*
X165096274Y-61763492D01*
X165042441Y-61864207D01*
X165017254Y-61911328D01*
X164910909Y-62040909D01*
X164781328Y-62147254D01*
X164781326Y-62147255D01*
X164633492Y-62226274D01*
X164473073Y-62274937D01*
X164348054Y-62287250D01*
X164264446Y-62287250D01*
X164139427Y-62274937D01*
X163979008Y-62226274D01*
X163831174Y-62147255D01*
X163831172Y-62147254D01*
X163701591Y-62040909D01*
X163595246Y-61911328D01*
X163570059Y-61864207D01*
X163516226Y-61763492D01*
X163467563Y-61603073D01*
X163451133Y-61436250D01*
X163467563Y-61269427D01*
X163516226Y-61109008D01*
X163595245Y-60961174D01*
X163595246Y-60961172D01*
X163701591Y-60831591D01*
X163831172Y-60725246D01*
X163923305Y-60676000D01*
X163979008Y-60646226D01*
X164139427Y-60597563D01*
X164264446Y-60585250D01*
X164348054Y-60585250D01*
X164473073Y-60597563D01*
X164473073Y-60597563D01*
G37*
G36*
X134841955Y-58323881D02*
G01*
X134847395Y-58324000D01*
X134934578Y-58324000D01*
X134950847Y-58327236D01*
X134969706Y-58329515D01*
X134986282Y-58330246D01*
X135070973Y-58351010D01*
X135076268Y-58352184D01*
X135161777Y-58369193D01*
X135177112Y-58375545D01*
X135195151Y-58381455D01*
X135211271Y-58385407D01*
X135290254Y-58422280D01*
X135295244Y-58424477D01*
X135375795Y-58457842D01*
X135389591Y-58467060D01*
X135406143Y-58476382D01*
X135421176Y-58483400D01*
X135491444Y-58534971D01*
X135495942Y-58538122D01*
X135568406Y-58586541D01*
X135580133Y-58598268D01*
X135594559Y-58610648D01*
X135607929Y-58620461D01*
X135607930Y-58620462D01*
X135666771Y-58684733D01*
X135670579Y-58688714D01*
X135732209Y-58750344D01*
X135741424Y-58764135D01*
X135753146Y-58779078D01*
X135764355Y-58791321D01*
X135809549Y-58865874D01*
X135812496Y-58870501D01*
X135860908Y-58942955D01*
X135867255Y-58958277D01*
X135875842Y-58975231D01*
X135884441Y-58989417D01*
X135914228Y-59071368D01*
X135916202Y-59076448D01*
X135947876Y-59152915D01*
X135949557Y-59156974D01*
X135952791Y-59173233D01*
X135957908Y-59191542D01*
X135963575Y-59207134D01*
X135976805Y-59293345D01*
X135977751Y-59298713D01*
X135994750Y-59384173D01*
X135994750Y-59400752D01*
X135996194Y-59419692D01*
X135998713Y-59436104D01*
X135994870Y-59523249D01*
X135994750Y-59528689D01*
X135994750Y-59615825D01*
X135991516Y-59632083D01*
X135989238Y-59650941D01*
X135988506Y-59667531D01*
X135967738Y-59752237D01*
X135966562Y-59757537D01*
X135949557Y-59843027D01*
X135943207Y-59858357D01*
X135937299Y-59876393D01*
X135933345Y-59892520D01*
X135896461Y-59971526D01*
X135894261Y-59976523D01*
X135860908Y-60057045D01*
X135851694Y-60070835D01*
X135842372Y-60087387D01*
X135835352Y-60102424D01*
X135783761Y-60172720D01*
X135780616Y-60177210D01*
X135732211Y-60249654D01*
X135675210Y-60306655D01*
X135670561Y-60311563D01*
X135277347Y-60749801D01*
X134345473Y-61788376D01*
X134217429Y-61905602D01*
X134118381Y-61965645D01*
X134019333Y-62025689D01*
X133801616Y-62104823D01*
X133572645Y-62139961D01*
X133341220Y-62129754D01*
X133116231Y-62074593D01*
X133011477Y-62025689D01*
X132906329Y-61976602D01*
X132817390Y-61911328D01*
X132719573Y-61839539D01*
X132584977Y-61692522D01*
X132563148Y-61668679D01*
X132481314Y-61533685D01*
X132443061Y-61470583D01*
X132363927Y-61252866D01*
X132328789Y-61023895D01*
X132338996Y-60792470D01*
X132394157Y-60567481D01*
X132445722Y-60457028D01*
X132492148Y-60357580D01*
X132492150Y-60357577D01*
X132594864Y-60217622D01*
X133370895Y-59352734D01*
X133881537Y-58783621D01*
X133892431Y-58769589D01*
X133905289Y-58750346D01*
X133962323Y-58693312D01*
X133966973Y-58688403D01*
X133982028Y-58671624D01*
X134003451Y-58652011D01*
X134007432Y-58648203D01*
X134069096Y-58586539D01*
X134082893Y-58577320D01*
X134097852Y-58565585D01*
X134110071Y-58554398D01*
X134158788Y-58524866D01*
X134184580Y-58509231D01*
X134189171Y-58506308D01*
X134261705Y-58457842D01*
X134277050Y-58451486D01*
X134293998Y-58442901D01*
X134308166Y-58434312D01*
X134308167Y-58434312D01*
X134308168Y-58434311D01*
X134390062Y-58404545D01*
X134395160Y-58402563D01*
X134475723Y-58369193D01*
X134492002Y-58365955D01*
X134510292Y-58360844D01*
X134525885Y-58355177D01*
X134612050Y-58341954D01*
X134617413Y-58341009D01*
X134702923Y-58324000D01*
X134719516Y-58324000D01*
X134738459Y-58322555D01*
X134754856Y-58320039D01*
X134841955Y-58323881D01*
X134841955Y-58323881D01*
G37*
G36*
X115791955Y-58323881D02*
G01*
X115797395Y-58324000D01*
X115884578Y-58324000D01*
X115900847Y-58327236D01*
X115919706Y-58329515D01*
X115936282Y-58330246D01*
X116020973Y-58351010D01*
X116026268Y-58352184D01*
X116111777Y-58369193D01*
X116127112Y-58375545D01*
X116145151Y-58381455D01*
X116161271Y-58385407D01*
X116240254Y-58422280D01*
X116245244Y-58424477D01*
X116325795Y-58457842D01*
X116339591Y-58467060D01*
X116356143Y-58476382D01*
X116371176Y-58483400D01*
X116441444Y-58534971D01*
X116445942Y-58538122D01*
X116518406Y-58586541D01*
X116530133Y-58598268D01*
X116544559Y-58610648D01*
X116557929Y-58620461D01*
X116557930Y-58620462D01*
X116616771Y-58684733D01*
X116620579Y-58688714D01*
X116682209Y-58750344D01*
X116691424Y-58764135D01*
X116703146Y-58779078D01*
X116714355Y-58791321D01*
X116759549Y-58865874D01*
X116762496Y-58870501D01*
X116810908Y-58942955D01*
X116817255Y-58958277D01*
X116825842Y-58975231D01*
X116834441Y-58989417D01*
X116864228Y-59071368D01*
X116866202Y-59076448D01*
X116897876Y-59152915D01*
X116899557Y-59156974D01*
X116902791Y-59173233D01*
X116907908Y-59191542D01*
X116913575Y-59207134D01*
X116926805Y-59293345D01*
X116927751Y-59298713D01*
X116944750Y-59384173D01*
X116944750Y-59400752D01*
X116946194Y-59419692D01*
X116948713Y-59436104D01*
X116944870Y-59523249D01*
X116944750Y-59528689D01*
X116944750Y-59615825D01*
X116941516Y-59632083D01*
X116939238Y-59650941D01*
X116938506Y-59667531D01*
X116917738Y-59752237D01*
X116916562Y-59757537D01*
X116899557Y-59843027D01*
X116893207Y-59858357D01*
X116887299Y-59876393D01*
X116883345Y-59892520D01*
X116846461Y-59971526D01*
X116844261Y-59976523D01*
X116810908Y-60057045D01*
X116801694Y-60070835D01*
X116792372Y-60087387D01*
X116785352Y-60102424D01*
X116733761Y-60172720D01*
X116730616Y-60177210D01*
X116682211Y-60249654D01*
X116625210Y-60306655D01*
X116620561Y-60311563D01*
X116227347Y-60749801D01*
X115295473Y-61788376D01*
X115167429Y-61905602D01*
X115068381Y-61965645D01*
X114969333Y-62025689D01*
X114751616Y-62104823D01*
X114522645Y-62139961D01*
X114291220Y-62129754D01*
X114066231Y-62074593D01*
X113961477Y-62025689D01*
X113856329Y-61976602D01*
X113767390Y-61911328D01*
X113669573Y-61839539D01*
X113534977Y-61692522D01*
X113513148Y-61668679D01*
X113431314Y-61533685D01*
X113393061Y-61470583D01*
X113313927Y-61252866D01*
X113278789Y-61023895D01*
X113288996Y-60792470D01*
X113344157Y-60567481D01*
X113395722Y-60457028D01*
X113442148Y-60357580D01*
X113442150Y-60357577D01*
X113544864Y-60217622D01*
X114320895Y-59352734D01*
X114831537Y-58783621D01*
X114842431Y-58769589D01*
X114855289Y-58750346D01*
X114912323Y-58693312D01*
X114916973Y-58688403D01*
X114932028Y-58671624D01*
X114953451Y-58652011D01*
X114957432Y-58648203D01*
X115019096Y-58586539D01*
X115032893Y-58577320D01*
X115047852Y-58565585D01*
X115060071Y-58554398D01*
X115108788Y-58524866D01*
X115134580Y-58509231D01*
X115139171Y-58506308D01*
X115211705Y-58457842D01*
X115227050Y-58451486D01*
X115243998Y-58442901D01*
X115258166Y-58434312D01*
X115258167Y-58434312D01*
X115258168Y-58434311D01*
X115340062Y-58404545D01*
X115345160Y-58402563D01*
X115425723Y-58369193D01*
X115442002Y-58365955D01*
X115460292Y-58360844D01*
X115475885Y-58355177D01*
X115562050Y-58341954D01*
X115567413Y-58341009D01*
X115652923Y-58324000D01*
X115669516Y-58324000D01*
X115688459Y-58322555D01*
X115704856Y-58320039D01*
X115791955Y-58323881D01*
X115791955Y-58323881D01*
G37*
G36*
X172941955Y-58323881D02*
G01*
X172947395Y-58324000D01*
X173034578Y-58324000D01*
X173050847Y-58327236D01*
X173069706Y-58329515D01*
X173086282Y-58330246D01*
X173170973Y-58351010D01*
X173176268Y-58352184D01*
X173261777Y-58369193D01*
X173277112Y-58375545D01*
X173295151Y-58381455D01*
X173311271Y-58385407D01*
X173390254Y-58422280D01*
X173395244Y-58424477D01*
X173475795Y-58457842D01*
X173489591Y-58467060D01*
X173506143Y-58476382D01*
X173521176Y-58483400D01*
X173591444Y-58534971D01*
X173595942Y-58538122D01*
X173668406Y-58586541D01*
X173680133Y-58598268D01*
X173694559Y-58610648D01*
X173707929Y-58620461D01*
X173707930Y-58620462D01*
X173766771Y-58684733D01*
X173770579Y-58688714D01*
X173832209Y-58750344D01*
X173841424Y-58764135D01*
X173853146Y-58779078D01*
X173864355Y-58791321D01*
X173909549Y-58865874D01*
X173912496Y-58870501D01*
X173960908Y-58942955D01*
X173967255Y-58958277D01*
X173975842Y-58975231D01*
X173984441Y-58989417D01*
X174014228Y-59071368D01*
X174016202Y-59076448D01*
X174047876Y-59152915D01*
X174049557Y-59156974D01*
X174052791Y-59173233D01*
X174057908Y-59191542D01*
X174063575Y-59207134D01*
X174076805Y-59293345D01*
X174077751Y-59298713D01*
X174094750Y-59384173D01*
X174094750Y-59400752D01*
X174096194Y-59419692D01*
X174098713Y-59436104D01*
X174094870Y-59523249D01*
X174094750Y-59528689D01*
X174094750Y-59615825D01*
X174091516Y-59632083D01*
X174089238Y-59650941D01*
X174088506Y-59667531D01*
X174067738Y-59752237D01*
X174066562Y-59757537D01*
X174049557Y-59843027D01*
X174043207Y-59858357D01*
X174037299Y-59876393D01*
X174033345Y-59892520D01*
X173996461Y-59971526D01*
X173994261Y-59976523D01*
X173960908Y-60057045D01*
X173951694Y-60070835D01*
X173942372Y-60087387D01*
X173935352Y-60102424D01*
X173883761Y-60172720D01*
X173880616Y-60177210D01*
X173832211Y-60249654D01*
X173775210Y-60306655D01*
X173770561Y-60311563D01*
X173377347Y-60749801D01*
X172445473Y-61788376D01*
X172317429Y-61905602D01*
X172218381Y-61965645D01*
X172119333Y-62025689D01*
X171901616Y-62104823D01*
X171672645Y-62139961D01*
X171441220Y-62129754D01*
X171216231Y-62074593D01*
X171111477Y-62025689D01*
X171006329Y-61976602D01*
X170917390Y-61911328D01*
X170819573Y-61839539D01*
X170684977Y-61692522D01*
X170663148Y-61668679D01*
X170581314Y-61533685D01*
X170543061Y-61470583D01*
X170463927Y-61252866D01*
X170428789Y-61023895D01*
X170438996Y-60792470D01*
X170494157Y-60567481D01*
X170545722Y-60457028D01*
X170592148Y-60357580D01*
X170592150Y-60357577D01*
X170694864Y-60217622D01*
X171470895Y-59352734D01*
X171981537Y-58783621D01*
X171992431Y-58769589D01*
X172005289Y-58750346D01*
X172062323Y-58693312D01*
X172066973Y-58688403D01*
X172082028Y-58671624D01*
X172103451Y-58652011D01*
X172107432Y-58648203D01*
X172169096Y-58586539D01*
X172182893Y-58577320D01*
X172197852Y-58565585D01*
X172210071Y-58554398D01*
X172258788Y-58524866D01*
X172284580Y-58509231D01*
X172289171Y-58506308D01*
X172361705Y-58457842D01*
X172377050Y-58451486D01*
X172393998Y-58442901D01*
X172408166Y-58434312D01*
X172408167Y-58434312D01*
X172408168Y-58434311D01*
X172490062Y-58404545D01*
X172495160Y-58402563D01*
X172575723Y-58369193D01*
X172592002Y-58365955D01*
X172610292Y-58360844D01*
X172625885Y-58355177D01*
X172712050Y-58341954D01*
X172717413Y-58341009D01*
X172802923Y-58324000D01*
X172819516Y-58324000D01*
X172838459Y-58322555D01*
X172854856Y-58320039D01*
X172941955Y-58323881D01*
X172941955Y-58323881D01*
G37*
G36*
X153891955Y-58323881D02*
G01*
X153897395Y-58324000D01*
X153984578Y-58324000D01*
X154000847Y-58327236D01*
X154019706Y-58329515D01*
X154036282Y-58330246D01*
X154120973Y-58351010D01*
X154126268Y-58352184D01*
X154211777Y-58369193D01*
X154227112Y-58375545D01*
X154245151Y-58381455D01*
X154261271Y-58385407D01*
X154340254Y-58422280D01*
X154345244Y-58424477D01*
X154425795Y-58457842D01*
X154439591Y-58467060D01*
X154456143Y-58476382D01*
X154471176Y-58483400D01*
X154541444Y-58534971D01*
X154545942Y-58538122D01*
X154618406Y-58586541D01*
X154630133Y-58598268D01*
X154644559Y-58610648D01*
X154657929Y-58620461D01*
X154657930Y-58620462D01*
X154716771Y-58684733D01*
X154720579Y-58688714D01*
X154782209Y-58750344D01*
X154791424Y-58764135D01*
X154803146Y-58779078D01*
X154814355Y-58791321D01*
X154859549Y-58865874D01*
X154862496Y-58870501D01*
X154910908Y-58942955D01*
X154917255Y-58958277D01*
X154925842Y-58975231D01*
X154934441Y-58989417D01*
X154964228Y-59071368D01*
X154966202Y-59076448D01*
X154997876Y-59152915D01*
X154999557Y-59156974D01*
X155002791Y-59173233D01*
X155007908Y-59191542D01*
X155013575Y-59207134D01*
X155026805Y-59293345D01*
X155027751Y-59298713D01*
X155044750Y-59384173D01*
X155044750Y-59400752D01*
X155046194Y-59419692D01*
X155048713Y-59436104D01*
X155044870Y-59523249D01*
X155044750Y-59528689D01*
X155044750Y-59615825D01*
X155041516Y-59632083D01*
X155039238Y-59650941D01*
X155038506Y-59667531D01*
X155017738Y-59752237D01*
X155016562Y-59757537D01*
X154999557Y-59843027D01*
X154993207Y-59858357D01*
X154987299Y-59876393D01*
X154983345Y-59892520D01*
X154946461Y-59971526D01*
X154944261Y-59976523D01*
X154910908Y-60057045D01*
X154901694Y-60070835D01*
X154892372Y-60087387D01*
X154885352Y-60102424D01*
X154833761Y-60172720D01*
X154830616Y-60177210D01*
X154782211Y-60249654D01*
X154725210Y-60306655D01*
X154720561Y-60311563D01*
X154327347Y-60749801D01*
X153395473Y-61788376D01*
X153267429Y-61905602D01*
X153168381Y-61965645D01*
X153069333Y-62025689D01*
X152851616Y-62104823D01*
X152622645Y-62139961D01*
X152391220Y-62129754D01*
X152166231Y-62074593D01*
X152061477Y-62025689D01*
X151956329Y-61976602D01*
X151867390Y-61911328D01*
X151769573Y-61839539D01*
X151634977Y-61692522D01*
X151613148Y-61668679D01*
X151531314Y-61533685D01*
X151493061Y-61470583D01*
X151413927Y-61252866D01*
X151378789Y-61023895D01*
X151388996Y-60792470D01*
X151444157Y-60567481D01*
X151495722Y-60457028D01*
X151542148Y-60357580D01*
X151542150Y-60357577D01*
X151644864Y-60217622D01*
X152420895Y-59352734D01*
X152931537Y-58783621D01*
X152942431Y-58769589D01*
X152955289Y-58750346D01*
X153012323Y-58693312D01*
X153016973Y-58688403D01*
X153032028Y-58671624D01*
X153053451Y-58652011D01*
X153057432Y-58648203D01*
X153119096Y-58586539D01*
X153132893Y-58577320D01*
X153147852Y-58565585D01*
X153160071Y-58554398D01*
X153208788Y-58524866D01*
X153234580Y-58509231D01*
X153239171Y-58506308D01*
X153311705Y-58457842D01*
X153327050Y-58451486D01*
X153343998Y-58442901D01*
X153358166Y-58434312D01*
X153358167Y-58434312D01*
X153358168Y-58434311D01*
X153440062Y-58404545D01*
X153445160Y-58402563D01*
X153525723Y-58369193D01*
X153542002Y-58365955D01*
X153560292Y-58360844D01*
X153575885Y-58355177D01*
X153662050Y-58341954D01*
X153667413Y-58341009D01*
X153752923Y-58324000D01*
X153769516Y-58324000D01*
X153788459Y-58322555D01*
X153804856Y-58320039D01*
X153891955Y-58323881D01*
X153891955Y-58323881D01*
G37*
G36*
X145209233Y-59909585D02*
G01*
X145377990Y-59979486D01*
X145529868Y-60080968D01*
X145659032Y-60210132D01*
X145760514Y-60362010D01*
X145830415Y-60530767D01*
X145866050Y-60709918D01*
X145866050Y-60892582D01*
X145830415Y-61071733D01*
X145760514Y-61240490D01*
X145659032Y-61392368D01*
X145529868Y-61521532D01*
X145377990Y-61623014D01*
X145209233Y-61692915D01*
X145030082Y-61728550D01*
X144847418Y-61728550D01*
X144668267Y-61692915D01*
X144499510Y-61623014D01*
X144347632Y-61521532D01*
X144218468Y-61392368D01*
X144116986Y-61240490D01*
X144047085Y-61071733D01*
X144011450Y-60892582D01*
X144011450Y-60709918D01*
X144047085Y-60530767D01*
X144116986Y-60362010D01*
X144218468Y-60210132D01*
X144347632Y-60080968D01*
X144499510Y-59979486D01*
X144668267Y-59909585D01*
X144847418Y-59873950D01*
X145030082Y-59873950D01*
X145209233Y-59909585D01*
X145209233Y-59909585D01*
G37*
G36*
X129969233Y-59909585D02*
G01*
X130137990Y-59979486D01*
X130289868Y-60080968D01*
X130419032Y-60210132D01*
X130520514Y-60362010D01*
X130590415Y-60530767D01*
X130626050Y-60709918D01*
X130626050Y-60892582D01*
X130590415Y-61071733D01*
X130520514Y-61240490D01*
X130419032Y-61392368D01*
X130289868Y-61521532D01*
X130137990Y-61623014D01*
X129969233Y-61692915D01*
X129790082Y-61728550D01*
X129607418Y-61728550D01*
X129428267Y-61692915D01*
X129259510Y-61623014D01*
X129107632Y-61521532D01*
X128978468Y-61392368D01*
X128876986Y-61240490D01*
X128807085Y-61071733D01*
X128771450Y-60892582D01*
X128771450Y-60709918D01*
X128807085Y-60530767D01*
X128876986Y-60362010D01*
X128978468Y-60210132D01*
X129107632Y-60080968D01*
X129259510Y-59979486D01*
X129428267Y-59909585D01*
X129607418Y-59873950D01*
X129790082Y-59873950D01*
X129969233Y-59909585D01*
X129969233Y-59909585D01*
G37*
G36*
X188756464Y-60278389D02*
G01*
X188837395Y-60311912D01*
X188910230Y-60360579D01*
X188972171Y-60422520D01*
X189020838Y-60495355D01*
X189020839Y-60495357D01*
X189054361Y-60576286D01*
X189071450Y-60662199D01*
X189071450Y-60749801D01*
X189062962Y-60792471D01*
X189054361Y-60835714D01*
X189020838Y-60916645D01*
X188972171Y-60989480D01*
X188910230Y-61051421D01*
X188837395Y-61100088D01*
X188837394Y-61100089D01*
X188837393Y-61100089D01*
X188756464Y-61133611D01*
X188670551Y-61150700D01*
X188582949Y-61150700D01*
X188497036Y-61133611D01*
X188416107Y-61100089D01*
X188416106Y-61100089D01*
X188416105Y-61100088D01*
X188343270Y-61051421D01*
X188281329Y-60989480D01*
X188232662Y-60916645D01*
X188199139Y-60835714D01*
X188190538Y-60792471D01*
X188182050Y-60749801D01*
X188182050Y-60662199D01*
X188199139Y-60576286D01*
X188232661Y-60495357D01*
X188232662Y-60495355D01*
X188281329Y-60422520D01*
X188343270Y-60360579D01*
X188416105Y-60311912D01*
X188497036Y-60278389D01*
X188582949Y-60261300D01*
X188670551Y-60261300D01*
X188756464Y-60278389D01*
X188756464Y-60278389D01*
G37*
G36*
X190915464Y-60278389D02*
G01*
X190996395Y-60311912D01*
X191069230Y-60360579D01*
X191131171Y-60422520D01*
X191179838Y-60495355D01*
X191179839Y-60495357D01*
X191213361Y-60576286D01*
X191230450Y-60662199D01*
X191230450Y-60749801D01*
X191221962Y-60792471D01*
X191213361Y-60835714D01*
X191179838Y-60916645D01*
X191131171Y-60989480D01*
X191069230Y-61051421D01*
X190996395Y-61100088D01*
X190996394Y-61100089D01*
X190996393Y-61100089D01*
X190915464Y-61133611D01*
X190829551Y-61150700D01*
X190741949Y-61150700D01*
X190656036Y-61133611D01*
X190575107Y-61100089D01*
X190575106Y-61100089D01*
X190575105Y-61100088D01*
X190502270Y-61051421D01*
X190440329Y-60989480D01*
X190391662Y-60916645D01*
X190358139Y-60835714D01*
X190349538Y-60792471D01*
X190341050Y-60749801D01*
X190341050Y-60662199D01*
X190358139Y-60576286D01*
X190391661Y-60495357D01*
X190391662Y-60495355D01*
X190440329Y-60422520D01*
X190502270Y-60360579D01*
X190575105Y-60311912D01*
X190656036Y-60278389D01*
X190741949Y-60261300D01*
X190829551Y-60261300D01*
X190915464Y-60278389D01*
X190915464Y-60278389D01*
G37*
G36*
X148737814Y-58445639D02*
G01*
X148929083Y-58524865D01*
X148929085Y-58524866D01*
X149101223Y-58639885D01*
X149247615Y-58786277D01*
X149291776Y-58852368D01*
X149362635Y-58958417D01*
X149441861Y-59149686D01*
X149482250Y-59352734D01*
X149482250Y-59559766D01*
X149441861Y-59762814D01*
X149370523Y-59935039D01*
X149362634Y-59954085D01*
X149247615Y-60126223D01*
X149101223Y-60272615D01*
X148929085Y-60387634D01*
X148929084Y-60387635D01*
X148929083Y-60387635D01*
X148737814Y-60466861D01*
X148534766Y-60507250D01*
X148327734Y-60507250D01*
X148124686Y-60466861D01*
X147933417Y-60387635D01*
X147933416Y-60387635D01*
X147933415Y-60387634D01*
X147761277Y-60272615D01*
X147614885Y-60126223D01*
X147499866Y-59954085D01*
X147491977Y-59935039D01*
X147420639Y-59762814D01*
X147380250Y-59559766D01*
X147380250Y-59352734D01*
X147420639Y-59149686D01*
X147499865Y-58958417D01*
X147570725Y-58852368D01*
X147614885Y-58786277D01*
X147761277Y-58639885D01*
X147933415Y-58524866D01*
X147933417Y-58524865D01*
X148124686Y-58445639D01*
X148327734Y-58405250D01*
X148534766Y-58405250D01*
X148737814Y-58445639D01*
X148737814Y-58445639D01*
G37*
G36*
X121819750Y-57051000D02*
G01*
X121205139Y-57051000D01*
X121180753Y-57053402D01*
X121157304Y-57060515D01*
X121135693Y-57072066D01*
X121116751Y-57087611D01*
X121101206Y-57106553D01*
X121089655Y-57128164D01*
X121082542Y-57151613D01*
X121080140Y-57175999D01*
X121082542Y-57200385D01*
X121089655Y-57223834D01*
X121101206Y-57245445D01*
X121116751Y-57264387D01*
X121135693Y-57279932D01*
X121157303Y-57291482D01*
X121197323Y-57308059D01*
X121241193Y-57326230D01*
X121244594Y-57327581D01*
X121335005Y-57361961D01*
X121340877Y-57365640D01*
X121359386Y-57375187D01*
X121365795Y-57377842D01*
X121446313Y-57431642D01*
X121449304Y-57433578D01*
X121531307Y-57484959D01*
X121536334Y-57489700D01*
X121552646Y-57502691D01*
X121558402Y-57506537D01*
X121626860Y-57574995D01*
X121629439Y-57577499D01*
X121699840Y-57643889D01*
X121703845Y-57649519D01*
X121717309Y-57665444D01*
X121722209Y-57670344D01*
X121775994Y-57750839D01*
X121778041Y-57753807D01*
X121834130Y-57832645D01*
X121836964Y-57838958D01*
X121847058Y-57857193D01*
X121850908Y-57862955D01*
X121887970Y-57952430D01*
X121889374Y-57955685D01*
X121929015Y-58043973D01*
X121930565Y-58050725D01*
X121936902Y-58070562D01*
X121939557Y-58076973D01*
X121958045Y-58169919D01*
X121958442Y-58171917D01*
X121959188Y-58175401D01*
X121980848Y-58269751D01*
X121980848Y-58269754D01*
X121981050Y-58276654D01*
X121983397Y-58297370D01*
X121984750Y-58304174D01*
X121984750Y-58400986D01*
X121984803Y-58404584D01*
X121985938Y-58443277D01*
X121985045Y-58456225D01*
X121984750Y-58464797D01*
X121984750Y-58535826D01*
X121978831Y-58565585D01*
X121978354Y-58567979D01*
X121976250Y-58583750D01*
X121937988Y-59138545D01*
X121909126Y-59309730D01*
X121826788Y-59526255D01*
X121703791Y-59722557D01*
X121544861Y-59891090D01*
X121356105Y-60025380D01*
X121144777Y-60120265D01*
X120918999Y-60172098D01*
X120687448Y-60178889D01*
X120687447Y-60178889D01*
X120641762Y-60171186D01*
X120459020Y-60140376D01*
X120242495Y-60058038D01*
X120046193Y-59935041D01*
X119877660Y-59776111D01*
X119743370Y-59587355D01*
X119648485Y-59376027D01*
X119596652Y-59150249D01*
X119591562Y-58976723D01*
X119632454Y-58383794D01*
X119632750Y-58375196D01*
X119632750Y-58304175D01*
X119639597Y-58269751D01*
X119651638Y-58209219D01*
X119652294Y-58205645D01*
X119657981Y-58171917D01*
X119668374Y-58110270D01*
X119670835Y-58103799D01*
X119676592Y-58083767D01*
X119677943Y-58076974D01*
X119680593Y-58070576D01*
X119715014Y-57987476D01*
X119716303Y-57984230D01*
X119750712Y-57893745D01*
X119754386Y-57887881D01*
X119763937Y-57869365D01*
X119766592Y-57862955D01*
X119820407Y-57782415D01*
X119822327Y-57779449D01*
X119873709Y-57697443D01*
X119878461Y-57692404D01*
X119891439Y-57676107D01*
X119895287Y-57670348D01*
X119963743Y-57601892D01*
X119966296Y-57599262D01*
X119986773Y-57577548D01*
X120032639Y-57528910D01*
X120038271Y-57524903D01*
X120054197Y-57511438D01*
X120059096Y-57506539D01*
X120139574Y-57452766D01*
X120142556Y-57450710D01*
X120221395Y-57394620D01*
X120227705Y-57391787D01*
X120245944Y-57381691D01*
X120251701Y-57377844D01*
X120251704Y-57377843D01*
X120251705Y-57377842D01*
X120341179Y-57340781D01*
X120344437Y-57339375D01*
X120432723Y-57299735D01*
X120439475Y-57298185D01*
X120459337Y-57291838D01*
X120460229Y-57291469D01*
X120481829Y-57279917D01*
X120500768Y-57264368D01*
X120516309Y-57245422D01*
X120527855Y-57223809D01*
X120534963Y-57200359D01*
X120537360Y-57175972D01*
X120534953Y-57151586D01*
X120527835Y-57128139D01*
X120516279Y-57106531D01*
X120500730Y-57087592D01*
X120481784Y-57072051D01*
X120460171Y-57060505D01*
X120436721Y-57053397D01*
X120412361Y-57051000D01*
X119717750Y-57051000D01*
X119717750Y-54949000D01*
X121819750Y-54949000D01*
X121819750Y-57051000D01*
X121819750Y-57051000D01*
G37*
G36*
X178969750Y-57051000D02*
G01*
X178355139Y-57051000D01*
X178330753Y-57053402D01*
X178307304Y-57060515D01*
X178285693Y-57072066D01*
X178266751Y-57087611D01*
X178251206Y-57106553D01*
X178239655Y-57128164D01*
X178232542Y-57151613D01*
X178230140Y-57175999D01*
X178232542Y-57200385D01*
X178239655Y-57223834D01*
X178251206Y-57245445D01*
X178266751Y-57264387D01*
X178285693Y-57279932D01*
X178307303Y-57291482D01*
X178347323Y-57308059D01*
X178391193Y-57326230D01*
X178394594Y-57327581D01*
X178485005Y-57361961D01*
X178490877Y-57365640D01*
X178509386Y-57375187D01*
X178515795Y-57377842D01*
X178596313Y-57431642D01*
X178599304Y-57433578D01*
X178681307Y-57484959D01*
X178686334Y-57489700D01*
X178702646Y-57502691D01*
X178708402Y-57506537D01*
X178776860Y-57574995D01*
X178779439Y-57577499D01*
X178849840Y-57643889D01*
X178853845Y-57649519D01*
X178867309Y-57665444D01*
X178872209Y-57670344D01*
X178925994Y-57750839D01*
X178928041Y-57753807D01*
X178984130Y-57832645D01*
X178986964Y-57838958D01*
X178997058Y-57857193D01*
X179000908Y-57862955D01*
X179037970Y-57952430D01*
X179039374Y-57955685D01*
X179079015Y-58043973D01*
X179080565Y-58050725D01*
X179086902Y-58070562D01*
X179089557Y-58076973D01*
X179108045Y-58169919D01*
X179108442Y-58171917D01*
X179109188Y-58175401D01*
X179130848Y-58269751D01*
X179130848Y-58269754D01*
X179131050Y-58276654D01*
X179133397Y-58297370D01*
X179134750Y-58304174D01*
X179134750Y-58400986D01*
X179134803Y-58404584D01*
X179135938Y-58443277D01*
X179135045Y-58456225D01*
X179134750Y-58464797D01*
X179134750Y-58535826D01*
X179128831Y-58565585D01*
X179128354Y-58567979D01*
X179126250Y-58583750D01*
X179087988Y-59138545D01*
X179059126Y-59309730D01*
X178976788Y-59526255D01*
X178853791Y-59722557D01*
X178694861Y-59891090D01*
X178506105Y-60025380D01*
X178294777Y-60120265D01*
X178068999Y-60172098D01*
X177837448Y-60178889D01*
X177837447Y-60178889D01*
X177791762Y-60171186D01*
X177609020Y-60140376D01*
X177392495Y-60058038D01*
X177196193Y-59935041D01*
X177027660Y-59776111D01*
X176893370Y-59587355D01*
X176798485Y-59376027D01*
X176746652Y-59150249D01*
X176741562Y-58976723D01*
X176782454Y-58383794D01*
X176782750Y-58375196D01*
X176782750Y-58304175D01*
X176789597Y-58269751D01*
X176801638Y-58209219D01*
X176802294Y-58205645D01*
X176807981Y-58171917D01*
X176818374Y-58110270D01*
X176820835Y-58103799D01*
X176826592Y-58083767D01*
X176827943Y-58076974D01*
X176830593Y-58070576D01*
X176865014Y-57987476D01*
X176866303Y-57984230D01*
X176900712Y-57893745D01*
X176904386Y-57887881D01*
X176913937Y-57869365D01*
X176916592Y-57862955D01*
X176970407Y-57782415D01*
X176972327Y-57779449D01*
X177023709Y-57697443D01*
X177028461Y-57692404D01*
X177041439Y-57676107D01*
X177045287Y-57670348D01*
X177113743Y-57601892D01*
X177116296Y-57599262D01*
X177136773Y-57577548D01*
X177182639Y-57528910D01*
X177188271Y-57524903D01*
X177204197Y-57511438D01*
X177209096Y-57506539D01*
X177289574Y-57452766D01*
X177292556Y-57450710D01*
X177371395Y-57394620D01*
X177377705Y-57391787D01*
X177395944Y-57381691D01*
X177401701Y-57377844D01*
X177401704Y-57377843D01*
X177401705Y-57377842D01*
X177491179Y-57340781D01*
X177494437Y-57339375D01*
X177582723Y-57299735D01*
X177589475Y-57298185D01*
X177609337Y-57291838D01*
X177610229Y-57291469D01*
X177631829Y-57279917D01*
X177650768Y-57264368D01*
X177666309Y-57245422D01*
X177677855Y-57223809D01*
X177684963Y-57200359D01*
X177687360Y-57175972D01*
X177684953Y-57151586D01*
X177677835Y-57128139D01*
X177666279Y-57106531D01*
X177650730Y-57087592D01*
X177631784Y-57072051D01*
X177610171Y-57060505D01*
X177586721Y-57053397D01*
X177562361Y-57051000D01*
X176867750Y-57051000D01*
X176867750Y-54949000D01*
X178969750Y-54949000D01*
X178969750Y-57051000D01*
X178969750Y-57051000D01*
G37*
G36*
X139946877Y-57242261D02*
G01*
X139967650Y-57244000D01*
X139974577Y-57244000D01*
X140069504Y-57262882D01*
X140073098Y-57263542D01*
X140168480Y-57279624D01*
X140174953Y-57282085D01*
X140194978Y-57287841D01*
X140201777Y-57289193D01*
X140264164Y-57315034D01*
X140291193Y-57326230D01*
X140294594Y-57327581D01*
X140385005Y-57361961D01*
X140390877Y-57365640D01*
X140409386Y-57375187D01*
X140415795Y-57377842D01*
X140496313Y-57431642D01*
X140499304Y-57433578D01*
X140581307Y-57484959D01*
X140586334Y-57489700D01*
X140602646Y-57502691D01*
X140608402Y-57506537D01*
X140676860Y-57574995D01*
X140679439Y-57577499D01*
X140749840Y-57643889D01*
X140753845Y-57649519D01*
X140767309Y-57665444D01*
X140772209Y-57670344D01*
X140825994Y-57750839D01*
X140828041Y-57753807D01*
X140884130Y-57832645D01*
X140886964Y-57838958D01*
X140897058Y-57857193D01*
X140900908Y-57862955D01*
X140937970Y-57952430D01*
X140939374Y-57955685D01*
X140979015Y-58043973D01*
X140980565Y-58050725D01*
X140986902Y-58070562D01*
X140989557Y-58076973D01*
X141008045Y-58169919D01*
X141008442Y-58171917D01*
X141009188Y-58175401D01*
X141030848Y-58269751D01*
X141030848Y-58269754D01*
X141031050Y-58276654D01*
X141033397Y-58297370D01*
X141034750Y-58304174D01*
X141034750Y-58400986D01*
X141034803Y-58404584D01*
X141035938Y-58443277D01*
X141035045Y-58456225D01*
X141034750Y-58464797D01*
X141034750Y-58535826D01*
X141028831Y-58565585D01*
X141028354Y-58567979D01*
X141026250Y-58583750D01*
X140987988Y-59138545D01*
X140959126Y-59309730D01*
X140876788Y-59526255D01*
X140753791Y-59722557D01*
X140594861Y-59891090D01*
X140406105Y-60025380D01*
X140194777Y-60120265D01*
X139968999Y-60172098D01*
X139737448Y-60178889D01*
X139737447Y-60178889D01*
X139691762Y-60171186D01*
X139509020Y-60140376D01*
X139292495Y-60058038D01*
X139096193Y-59935041D01*
X138927660Y-59776111D01*
X138793370Y-59587355D01*
X138698485Y-59376027D01*
X138646652Y-59150249D01*
X138641562Y-58976723D01*
X138682454Y-58383794D01*
X138682750Y-58375196D01*
X138682750Y-58304175D01*
X138689597Y-58269751D01*
X138701638Y-58209219D01*
X138702294Y-58205645D01*
X138707981Y-58171917D01*
X138718374Y-58110270D01*
X138720835Y-58103799D01*
X138726592Y-58083767D01*
X138727943Y-58076974D01*
X138730593Y-58070576D01*
X138765014Y-57987476D01*
X138766303Y-57984230D01*
X138800712Y-57893745D01*
X138804386Y-57887881D01*
X138813937Y-57869365D01*
X138816592Y-57862955D01*
X138870407Y-57782415D01*
X138872327Y-57779449D01*
X138923709Y-57697443D01*
X138928461Y-57692404D01*
X138941439Y-57676107D01*
X138945287Y-57670348D01*
X139013743Y-57601892D01*
X139016296Y-57599262D01*
X139036773Y-57577548D01*
X139082639Y-57528910D01*
X139088271Y-57524903D01*
X139104197Y-57511438D01*
X139109096Y-57506539D01*
X139189574Y-57452766D01*
X139192556Y-57450710D01*
X139271395Y-57394620D01*
X139277705Y-57391787D01*
X139295944Y-57381691D01*
X139301701Y-57377844D01*
X139301704Y-57377843D01*
X139301705Y-57377842D01*
X139391179Y-57340781D01*
X139394437Y-57339375D01*
X139482723Y-57299735D01*
X139489475Y-57298185D01*
X139509312Y-57291848D01*
X139515723Y-57289193D01*
X139610649Y-57270311D01*
X139614196Y-57269551D01*
X139708501Y-57247901D01*
X139710880Y-57247831D01*
X139715415Y-57247698D01*
X139736131Y-57245351D01*
X139742924Y-57244000D01*
X139839709Y-57244000D01*
X139843334Y-57243947D01*
X139940052Y-57241110D01*
X139946877Y-57242261D01*
X139946877Y-57242261D01*
G37*
G36*
X158996877Y-57242261D02*
G01*
X159017650Y-57244000D01*
X159024577Y-57244000D01*
X159119504Y-57262882D01*
X159123098Y-57263542D01*
X159218480Y-57279624D01*
X159224953Y-57282085D01*
X159244978Y-57287841D01*
X159251777Y-57289193D01*
X159314164Y-57315034D01*
X159341193Y-57326230D01*
X159344594Y-57327581D01*
X159435005Y-57361961D01*
X159440877Y-57365640D01*
X159459386Y-57375187D01*
X159465795Y-57377842D01*
X159546313Y-57431642D01*
X159549304Y-57433578D01*
X159631307Y-57484959D01*
X159636334Y-57489700D01*
X159652646Y-57502691D01*
X159658402Y-57506537D01*
X159726860Y-57574995D01*
X159729439Y-57577499D01*
X159799840Y-57643889D01*
X159803845Y-57649519D01*
X159817309Y-57665444D01*
X159822209Y-57670344D01*
X159875994Y-57750839D01*
X159878041Y-57753807D01*
X159934130Y-57832645D01*
X159936964Y-57838958D01*
X159947058Y-57857193D01*
X159950908Y-57862955D01*
X159987970Y-57952430D01*
X159989374Y-57955685D01*
X160029015Y-58043973D01*
X160030565Y-58050725D01*
X160036902Y-58070562D01*
X160039557Y-58076973D01*
X160058045Y-58169919D01*
X160058442Y-58171917D01*
X160059188Y-58175401D01*
X160080848Y-58269751D01*
X160080848Y-58269754D01*
X160081050Y-58276654D01*
X160083397Y-58297370D01*
X160084750Y-58304174D01*
X160084750Y-58400986D01*
X160084803Y-58404584D01*
X160085938Y-58443277D01*
X160085045Y-58456225D01*
X160084750Y-58464797D01*
X160084750Y-58535826D01*
X160078831Y-58565585D01*
X160078354Y-58567979D01*
X160076250Y-58583750D01*
X160037988Y-59138545D01*
X160009126Y-59309730D01*
X159926788Y-59526255D01*
X159803791Y-59722557D01*
X159644861Y-59891090D01*
X159456105Y-60025380D01*
X159244777Y-60120265D01*
X159018999Y-60172098D01*
X158787448Y-60178889D01*
X158787447Y-60178889D01*
X158741762Y-60171186D01*
X158559020Y-60140376D01*
X158342495Y-60058038D01*
X158146193Y-59935041D01*
X157977660Y-59776111D01*
X157843370Y-59587355D01*
X157748485Y-59376027D01*
X157696652Y-59150249D01*
X157691562Y-58976723D01*
X157732454Y-58383794D01*
X157732750Y-58375196D01*
X157732750Y-58304175D01*
X157739597Y-58269751D01*
X157751638Y-58209219D01*
X157752294Y-58205645D01*
X157757981Y-58171917D01*
X157768374Y-58110270D01*
X157770835Y-58103799D01*
X157776592Y-58083767D01*
X157777943Y-58076974D01*
X157780593Y-58070576D01*
X157815014Y-57987476D01*
X157816303Y-57984230D01*
X157850712Y-57893745D01*
X157854386Y-57887881D01*
X157863937Y-57869365D01*
X157866592Y-57862955D01*
X157920407Y-57782415D01*
X157922327Y-57779449D01*
X157973709Y-57697443D01*
X157978461Y-57692404D01*
X157991439Y-57676107D01*
X157995287Y-57670348D01*
X158063743Y-57601892D01*
X158066296Y-57599262D01*
X158086773Y-57577548D01*
X158132639Y-57528910D01*
X158138271Y-57524903D01*
X158154197Y-57511438D01*
X158159096Y-57506539D01*
X158239574Y-57452766D01*
X158242556Y-57450710D01*
X158321395Y-57394620D01*
X158327705Y-57391787D01*
X158345944Y-57381691D01*
X158351701Y-57377844D01*
X158351704Y-57377843D01*
X158351705Y-57377842D01*
X158441179Y-57340781D01*
X158444437Y-57339375D01*
X158532723Y-57299735D01*
X158539475Y-57298185D01*
X158559312Y-57291848D01*
X158565723Y-57289193D01*
X158660649Y-57270311D01*
X158664196Y-57269551D01*
X158758501Y-57247901D01*
X158760880Y-57247831D01*
X158765415Y-57247698D01*
X158786131Y-57245351D01*
X158792924Y-57244000D01*
X158889709Y-57244000D01*
X158893334Y-57243947D01*
X158990052Y-57241110D01*
X158996877Y-57242261D01*
X158996877Y-57242261D01*
G37*
G36*
X185219630Y-54909776D02*
G01*
X185600343Y-54985504D01*
X186009999Y-55155189D01*
X186378679Y-55401534D01*
X186692216Y-55715071D01*
X186938561Y-56083751D01*
X187108246Y-56493407D01*
X187172486Y-56816365D01*
X187194750Y-56928295D01*
X187194750Y-57371705D01*
X187190755Y-57391788D01*
X187108246Y-57806593D01*
X186938561Y-58216249D01*
X186692216Y-58584929D01*
X186378679Y-58898466D01*
X186009999Y-59144811D01*
X185600343Y-59314496D01*
X185219630Y-59390224D01*
X185165455Y-59401000D01*
X184722045Y-59401000D01*
X184667870Y-59390224D01*
X184287157Y-59314496D01*
X183877501Y-59144811D01*
X183508821Y-58898466D01*
X183195284Y-58584929D01*
X182948939Y-58216249D01*
X182779254Y-57806593D01*
X182696745Y-57391788D01*
X182692750Y-57371705D01*
X182692750Y-56928295D01*
X182715014Y-56816365D01*
X182779254Y-56493407D01*
X182948939Y-56083751D01*
X183195284Y-55715071D01*
X183508821Y-55401534D01*
X183877501Y-55155189D01*
X184287157Y-54985504D01*
X184667870Y-54909776D01*
X184722045Y-54899000D01*
X185165455Y-54899000D01*
X185219630Y-54909776D01*
X185219630Y-54909776D01*
G37*
G36*
X270944630Y-54909776D02*
G01*
X271325343Y-54985504D01*
X271734999Y-55155189D01*
X272103679Y-55401534D01*
X272417216Y-55715071D01*
X272663561Y-56083751D01*
X272833246Y-56493407D01*
X272897486Y-56816365D01*
X272919750Y-56928295D01*
X272919750Y-57371705D01*
X272915755Y-57391788D01*
X272833246Y-57806593D01*
X272663561Y-58216249D01*
X272417216Y-58584929D01*
X272103679Y-58898466D01*
X271734999Y-59144811D01*
X271325343Y-59314496D01*
X270944630Y-59390224D01*
X270890455Y-59401000D01*
X270447045Y-59401000D01*
X270392870Y-59390224D01*
X270012157Y-59314496D01*
X269602501Y-59144811D01*
X269233821Y-58898466D01*
X268920284Y-58584929D01*
X268673939Y-58216249D01*
X268504254Y-57806593D01*
X268421745Y-57391788D01*
X268417750Y-57371705D01*
X268417750Y-56928295D01*
X268440014Y-56816365D01*
X268504254Y-56493407D01*
X268673939Y-56083751D01*
X268920284Y-55715071D01*
X269233821Y-55401534D01*
X269602501Y-55155189D01*
X270012157Y-54985504D01*
X270392870Y-54909776D01*
X270447045Y-54899000D01*
X270890455Y-54899000D01*
X270944630Y-54909776D01*
X270944630Y-54909776D01*
G37*
G36*
X194744630Y-54909776D02*
G01*
X195125343Y-54985504D01*
X195534999Y-55155189D01*
X195903679Y-55401534D01*
X196217216Y-55715071D01*
X196463561Y-56083751D01*
X196633246Y-56493407D01*
X196697486Y-56816365D01*
X196719750Y-56928295D01*
X196719750Y-57371705D01*
X196715755Y-57391788D01*
X196633246Y-57806593D01*
X196463561Y-58216249D01*
X196217216Y-58584929D01*
X195903679Y-58898466D01*
X195534999Y-59144811D01*
X195125343Y-59314496D01*
X194744630Y-59390224D01*
X194690455Y-59401000D01*
X194247045Y-59401000D01*
X194192870Y-59390224D01*
X193812157Y-59314496D01*
X193402501Y-59144811D01*
X193033821Y-58898466D01*
X192720284Y-58584929D01*
X192473939Y-58216249D01*
X192304254Y-57806593D01*
X192221745Y-57391788D01*
X192217750Y-57371705D01*
X192217750Y-56928295D01*
X192240014Y-56816365D01*
X192304254Y-56493407D01*
X192473939Y-56083751D01*
X192720284Y-55715071D01*
X193033821Y-55401534D01*
X193402501Y-55155189D01*
X193812157Y-54985504D01*
X194192870Y-54909776D01*
X194247045Y-54899000D01*
X194690455Y-54899000D01*
X194744630Y-54909776D01*
X194744630Y-54909776D01*
G37*
G36*
X109019630Y-54909776D02*
G01*
X109400343Y-54985504D01*
X109809999Y-55155189D01*
X110178679Y-55401534D01*
X110492216Y-55715071D01*
X110738561Y-56083751D01*
X110908246Y-56493407D01*
X110972486Y-56816365D01*
X110994750Y-56928295D01*
X110994750Y-57371705D01*
X110990755Y-57391788D01*
X110908246Y-57806593D01*
X110738561Y-58216249D01*
X110492216Y-58584929D01*
X110178679Y-58898466D01*
X109809999Y-59144811D01*
X109400343Y-59314496D01*
X109019630Y-59390224D01*
X108965455Y-59401000D01*
X108522045Y-59401000D01*
X108467870Y-59390224D01*
X108087157Y-59314496D01*
X107677501Y-59144811D01*
X107308821Y-58898466D01*
X106995284Y-58584929D01*
X106748939Y-58216249D01*
X106579254Y-57806593D01*
X106496745Y-57391788D01*
X106492750Y-57371705D01*
X106492750Y-56928295D01*
X106515014Y-56816365D01*
X106579254Y-56493407D01*
X106748939Y-56083751D01*
X106995284Y-55715071D01*
X107308821Y-55401534D01*
X107677501Y-55155189D01*
X108087157Y-54985504D01*
X108467870Y-54909776D01*
X108522045Y-54899000D01*
X108965455Y-54899000D01*
X109019630Y-54909776D01*
X109019630Y-54909776D01*
G37*
G36*
X145209233Y-57369585D02*
G01*
X145377990Y-57439486D01*
X145529868Y-57540968D01*
X145659032Y-57670132D01*
X145760514Y-57822010D01*
X145830415Y-57990767D01*
X145866050Y-58169918D01*
X145866050Y-58352582D01*
X145830415Y-58531733D01*
X145760514Y-58700490D01*
X145659032Y-58852368D01*
X145529868Y-58981532D01*
X145377990Y-59083014D01*
X145209233Y-59152915D01*
X145030082Y-59188550D01*
X144847418Y-59188550D01*
X144668267Y-59152915D01*
X144499510Y-59083014D01*
X144347632Y-58981532D01*
X144218468Y-58852368D01*
X144116986Y-58700490D01*
X144047085Y-58531733D01*
X144011450Y-58352582D01*
X144011450Y-58169918D01*
X144047085Y-57990767D01*
X144116986Y-57822010D01*
X144218468Y-57670132D01*
X144347632Y-57540968D01*
X144499510Y-57439486D01*
X144668267Y-57369585D01*
X144847418Y-57333950D01*
X145030082Y-57333950D01*
X145209233Y-57369585D01*
X145209233Y-57369585D01*
G37*
G36*
X130626050Y-59188550D02*
G01*
X128771450Y-59188550D01*
X128771450Y-57333950D01*
X130626050Y-57333950D01*
X130626050Y-59188550D01*
X130626050Y-59188550D01*
G37*
G36*
X173225314Y-54989389D02*
G01*
X173416583Y-55068615D01*
X173416585Y-55068616D01*
X173588723Y-55183635D01*
X173735115Y-55330027D01*
X173850135Y-55502167D01*
X173929361Y-55693436D01*
X173969750Y-55896484D01*
X173969750Y-56103516D01*
X173929361Y-56306564D01*
X173851968Y-56493407D01*
X173850134Y-56497835D01*
X173735115Y-56669973D01*
X173588723Y-56816365D01*
X173416585Y-56931384D01*
X173416584Y-56931385D01*
X173416583Y-56931385D01*
X173225314Y-57010611D01*
X173022266Y-57051000D01*
X172815234Y-57051000D01*
X172612186Y-57010611D01*
X172420917Y-56931385D01*
X172420916Y-56931385D01*
X172420915Y-56931384D01*
X172248777Y-56816365D01*
X172102385Y-56669973D01*
X171987366Y-56497835D01*
X171985532Y-56493407D01*
X171908139Y-56306564D01*
X171867750Y-56103516D01*
X171867750Y-55896484D01*
X171908139Y-55693436D01*
X171987365Y-55502167D01*
X172102385Y-55330027D01*
X172248777Y-55183635D01*
X172420915Y-55068616D01*
X172420917Y-55068615D01*
X172612186Y-54989389D01*
X172815234Y-54949000D01*
X173022266Y-54949000D01*
X173225314Y-54989389D01*
X173225314Y-54989389D01*
G37*
G36*
X118575314Y-54989389D02*
G01*
X118766583Y-55068615D01*
X118766585Y-55068616D01*
X118938723Y-55183635D01*
X119085115Y-55330027D01*
X119200135Y-55502167D01*
X119279361Y-55693436D01*
X119319750Y-55896484D01*
X119319750Y-56103516D01*
X119279361Y-56306564D01*
X119201968Y-56493407D01*
X119200134Y-56497835D01*
X119085115Y-56669973D01*
X118938723Y-56816365D01*
X118766585Y-56931384D01*
X118766584Y-56931385D01*
X118766583Y-56931385D01*
X118575314Y-57010611D01*
X118372266Y-57051000D01*
X118165234Y-57051000D01*
X117962186Y-57010611D01*
X117770917Y-56931385D01*
X117770916Y-56931385D01*
X117770915Y-56931384D01*
X117598777Y-56816365D01*
X117452385Y-56669973D01*
X117337366Y-56497835D01*
X117335532Y-56493407D01*
X117258139Y-56306564D01*
X117217750Y-56103516D01*
X117217750Y-55896484D01*
X117258139Y-55693436D01*
X117337365Y-55502167D01*
X117452385Y-55330027D01*
X117598777Y-55183635D01*
X117770915Y-55068616D01*
X117770917Y-55068615D01*
X117962186Y-54989389D01*
X118165234Y-54949000D01*
X118372266Y-54949000D01*
X118575314Y-54989389D01*
X118575314Y-54989389D01*
G37*
G36*
X116075314Y-54989389D02*
G01*
X116266583Y-55068615D01*
X116266585Y-55068616D01*
X116438723Y-55183635D01*
X116585115Y-55330027D01*
X116700135Y-55502167D01*
X116779361Y-55693436D01*
X116819750Y-55896484D01*
X116819750Y-56103516D01*
X116779361Y-56306564D01*
X116701968Y-56493407D01*
X116700134Y-56497835D01*
X116585115Y-56669973D01*
X116438723Y-56816365D01*
X116266585Y-56931384D01*
X116266584Y-56931385D01*
X116266583Y-56931385D01*
X116075314Y-57010611D01*
X115872266Y-57051000D01*
X115665234Y-57051000D01*
X115462186Y-57010611D01*
X115270917Y-56931385D01*
X115270916Y-56931385D01*
X115270915Y-56931384D01*
X115098777Y-56816365D01*
X114952385Y-56669973D01*
X114837366Y-56497835D01*
X114835532Y-56493407D01*
X114758139Y-56306564D01*
X114717750Y-56103516D01*
X114717750Y-55896484D01*
X114758139Y-55693436D01*
X114837365Y-55502167D01*
X114952385Y-55330027D01*
X115098777Y-55183635D01*
X115270915Y-55068616D01*
X115270917Y-55068615D01*
X115462186Y-54989389D01*
X115665234Y-54949000D01*
X115872266Y-54949000D01*
X116075314Y-54989389D01*
X116075314Y-54989389D01*
G37*
G36*
X175725314Y-54989389D02*
G01*
X175916583Y-55068615D01*
X175916585Y-55068616D01*
X176088723Y-55183635D01*
X176235115Y-55330027D01*
X176350135Y-55502167D01*
X176429361Y-55693436D01*
X176469750Y-55896484D01*
X176469750Y-56103516D01*
X176429361Y-56306564D01*
X176351968Y-56493407D01*
X176350134Y-56497835D01*
X176235115Y-56669973D01*
X176088723Y-56816365D01*
X175916585Y-56931384D01*
X175916584Y-56931385D01*
X175916583Y-56931385D01*
X175725314Y-57010611D01*
X175522266Y-57051000D01*
X175315234Y-57051000D01*
X175112186Y-57010611D01*
X174920917Y-56931385D01*
X174920916Y-56931385D01*
X174920915Y-56931384D01*
X174748777Y-56816365D01*
X174602385Y-56669973D01*
X174487366Y-56497835D01*
X174485532Y-56493407D01*
X174408139Y-56306564D01*
X174367750Y-56103516D01*
X174367750Y-55896484D01*
X174408139Y-55693436D01*
X174487365Y-55502167D01*
X174602385Y-55330027D01*
X174748777Y-55183635D01*
X174920915Y-55068616D01*
X174920917Y-55068615D01*
X175112186Y-54989389D01*
X175315234Y-54949000D01*
X175522266Y-54949000D01*
X175725314Y-54989389D01*
X175725314Y-54989389D01*
G37*
M02*
