M48
; DRILL file {KiCad (5.1.4)-1} date 1/21/2021 10:19:29 AM
; FORMAT={-:-/ absolute / inch / decimal}
; #@! TF.CreationDate,2021-01-21T10:19:29-05:00
; #@! TF.GenerationSoftware,Kicad,Pcbnew,(5.1.4)-1
; #@! TF.FileFunction,Plated,1,2,PTH
FMAT,2
INCH
T1C0.0315
T2C0.0394
T3C0.0430
T4C0.0512
T5C0.0579
T6C0.0591
T7C0.0866
%
G90
G05
T1
X7.125Y-3.3875
X7.125Y-3.6875
X5.8438Y-3.1687
X5.8438Y-3.4688
X4.9688Y-3.9187
X4.9688Y-4.2188
X6.4688Y-3.1687
X6.4688Y-3.4688
X7.125Y-2.6375
X7.125Y-2.9375
X4.5Y-3.5625
X4.8Y-3.5625
X4.875Y-2.6375
X4.875Y-2.9375
X6.4688Y-3.9187
X6.4688Y-4.2188
X6.6562Y-4.1875
X6.9562Y-4.1875
X6.4688Y-2.4187
X6.4688Y-2.7188
X5.2812Y-3.5625
X5.5812Y-3.5625
X5.7188Y-3.9187
X5.7188Y-4.2188
T2
X4.5578Y-2.2047
X4.5578Y-2.7756
X4.6562Y-2.2047
X4.7547Y-2.2047
X4.7547Y-2.7756
X6.8078Y-2.2047
X6.8078Y-2.7756
X6.9062Y-2.2047
X7.0047Y-2.2047
X7.0047Y-2.7756
T3
X5.1063Y-2.2937
X5.1063Y-2.3937
X5.1063Y-2.4937
X5.1063Y-2.5938
X5.1063Y-2.6938
X5.1063Y-2.7937
X5.1063Y-2.8937
X5.1063Y-2.9937
X5.1063Y-3.0938
X5.1063Y-3.1938
X5.1063Y-3.2937
X5.1063Y-3.3937
X5.7062Y-2.2937
X5.7062Y-2.3937
X5.7062Y-2.4937
X5.7062Y-2.5938
X5.7062Y-2.6938
X5.7062Y-2.7937
X5.7062Y-2.8937
X5.7062Y-2.9937
X5.7062Y-3.0938
X5.7062Y-3.1938
X5.7062Y-3.2937
X5.7062Y-3.3937
T4
X5.8438Y-2.3408
X5.8438Y-2.5967
T5
X4.5062Y-3.15
X4.5578Y-3.0925
X4.7547Y-3.0728
X4.7562Y-3.05
X6.7562Y-2.4
X6.8078Y-2.3425
X7.0047Y-2.3228
X7.0062Y-2.3
X5.2562Y-3.9
X5.3078Y-3.8425
X5.5047Y-3.8228
X5.5062Y-3.8
X6.0062Y-3.15
X6.0578Y-3.0925
X6.2547Y-3.0728
X6.2562Y-3.05
X4.5062Y-2.4
X4.5578Y-2.3425
X4.7547Y-2.3228
X4.7562Y-2.3
X6.0062Y-3.9
X6.0578Y-3.8425
X6.2547Y-3.8228
X6.2562Y-3.8
X5.2562Y-3.15
X5.3078Y-3.0925
X5.5047Y-3.0728
X5.5062Y-3.05
X6.7562Y-3.15
X6.8078Y-3.0925
X7.0047Y-3.0728
X7.0062Y-3.05
X4.5062Y-3.9
X4.5578Y-3.8425
X4.7547Y-3.8228
X4.7562Y-3.8
X6.7562Y-3.9
X6.8078Y-3.8425
X7.0047Y-3.8228
X7.0062Y-3.8
X6.0062Y-2.4
X6.0578Y-2.3425
X6.2547Y-2.3228
X6.2562Y-2.3
X5.2562Y-2.4
X5.3078Y-2.3425
X5.5047Y-2.3228
X5.5062Y-2.3
T7
X7.2812Y-4.25
X7.6562Y-2.25
X4.2812Y-4.25
X10.6562Y-4.25
X4.2812Y-2.25
X7.6562Y-4.25
X10.6562Y-2.25
X7.2812Y-2.25
T6
G00X4.4358Y-2.4744
M15
G01X4.4358Y-2.5256
M16
G05
G00X4.8767Y-2.4744
M15
G01X4.8767Y-2.5256
M16
G05
G00X6.6858Y-2.4744
M15
G01X6.6858Y-2.5256
M16
G05
G00X7.1267Y-2.4744
M15
G01X7.1267Y-2.5256
M16
G05
T0
M30
